{"glyphs":{"0":{"ha":750,"x_min":0,"x_max":0,"o":"m 375 986 b 56 488 167 986 56 781 b 375 -12 56 194 165 -12 b 694 486 583 -12 694 193 b 375 986 694 779 583 986 z m 375 -7 b 186 488 206 -7 186 307 b 375 981 186 668 207 981 b 564 486 543 981 564 667 b 375 -7 563 306 543 -7 z "},"1":{"ha":449,"x_min":0,"x_max":0,"o":"m 292 160 l 292 972 l 286 972 l 69 872 l 69 865 b 176 832 164 892 176 885 l 176 160 b 89 7 176 57 168 7 l 89 0 l 379 0 l 379 7 b 292 160 300 7 292 57 z "},"2":{"ha":707,"x_min":0,"x_max":0,"o":"m 644 199 b 451 111 617 121 553 113 l 157 111 b 635 731 414 376 635 497 b 349 986 635 929 472 986 b 179 606 58 986 32 674 b 179 626 179 617 179 617 b 332 981 39 714 110 981 b 496 731 460 981 496 851 b 56 7 496 428 254 239 l 56 0 l 624 0 l 651 199 z "},"3":{"ha":715,"x_min":0,"x_max":0,"o":"m 368 518 b 594 771 507 549 594 644 b 321 986 594 943 446 986 b 176 606 32 986 25 669 b 176 626 176 617 176 617 b 304 981 32 710 82 981 b 463 761 419 981 463 882 b 290 518 463 639 426 518 b 238 518 268 518 260 518 l 238 508 b 319 508 265 508 308 508 b 511 253 443 508 517 418 b 288 -6 504 74 399 -6 b 56 75 207 -6 110 31 l 56 54 b 304 -12 136 10 214 -12 b 658 256 507 -12 647 74 b 368 518 668 429 544 513 z "},"4":{"ha":708,"x_min":0,"x_max":0,"o":"m 554 229 l 701 229 l 701 236 l 554 236 l 554 972 l 547 972 l 35 236 l 35 229 l 439 229 l 439 160 b 351 7 439 57 431 7 l 351 0 l 642 0 l 642 7 b 554 160 563 7 554 57 z m 42 236 l 439 808 l 439 236 z "},"5":{"ha":654,"x_min":0,"x_max":0,"o":"m 108 526 b 129 861 111 565 122 743 l 519 861 l 533 1057 l 526 1057 b 364 972 499 979 465 974 l 129 972 b 103 515 129 972 106 579 b 458 274 394 633 463 424 b 238 -6 456 94 385 -6 b 63 58 163 -6 113 18 l 63 38 b 254 -12 126 1 172 -12 b 597 274 425 -12 583 44 b 108 526 610 492 411 674 z "},"6":{"ha":710,"x_min":0,"x_max":0,"o":"m 400 -12 b 653 313 563 6 667 128 b 328 572 640 488 499 593 b 218 528 292 568 256 556 b 532 965 256 667 317 794 b 532 972 532 969 532 969 b 57 324 310 889 43 672 b 400 -12 67 71 232 -31 z m 328 565 b 529 289 451 579 522 438 b 386 -7 538 138 510 4 b 188 267 269 -17 201 92 b 328 565 175 442 206 551 z "},"7":{"ha":721,"x_min":0,"x_max":0,"o":"m 90 972 l 63 774 l 69 774 b 263 861 97 851 161 861 l 561 861 b 185 0 306 597 185 269 b 322 0 235 0 278 0 b 658 965 322 506 460 733 l 658 972 z "},"8":{"ha":743,"x_min":0,"x_max":0,"o":"m 686 219 b 431 535 694 383 521 468 b 632 771 521 572 632 643 b 371 986 632 939 485 986 b 104 774 258 986 111 925 b 299 501 99 650 192 572 b 57 206 161 431 49 367 b 369 -12 64 68 188 -12 b 686 219 550 -12 679 85 z m 208 774 b 371 981 194 911 275 981 b 528 771 471 981 528 892 b 426 539 528 686 501 603 b 208 774 329 603 218 676 z m 369 -7 b 171 225 258 -7 175 71 b 303 499 168 371 228 454 b 575 208 400 428 569 347 b 369 -7 582 54 476 -7 z "},"9":{"ha":708,"x_min":0,"x_max":0,"o":"m 329 985 b 57 667 161 965 44 851 b 382 400 69 492 213 385 b 490 444 418 403 454 421 b 178 7 440 303 383 192 b 178 0 178 4 178 4 b 653 667 376 101 651 317 b 329 985 653 915 497 1004 z m 381 407 b 179 674 257 396 192 539 b 331 976 168 814 207 965 b 521 707 447 986 515 861 b 381 407 528 546 504 418 z "},"A":{"ha":989,"x_min":0,"x_max":0,"o":"m 821 193 b 521 972 783 282 521 972 l 508 972 b 215 222 508 972 263 343 b 7 7 161 83 96 22 l 7 0 l 303 0 l 303 7 b 242 272 210 7 199 154 b 286 386 246 283 263 326 l 619 386 b 715 135 663 274 701 172 b 676 7 753 33 743 7 l 676 0 l 982 0 l 982 7 b 821 193 896 7 857 104 z m 289 393 b 454 817 335 511 404 689 b 617 393 457 810 543 586 z "},"B":{"ha":868,"x_min":0,"x_max":0,"o":"m 526 494 b 751 729 647 515 751 586 b 460 972 751 904 594 972 l 69 972 l 69 965 b 157 813 149 965 156 914 l 157 160 b 69 7 156 58 149 7 l 69 0 l 513 0 b 819 246 664 0 819 71 b 526 494 819 421 661 494 z m 426 965 b 618 729 507 965 618 904 b 426 494 618 554 531 494 b 278 494 390 494 329 494 l 278 813 b 365 965 278 914 286 965 z m 483 7 b 365 7 453 7 407 7 b 278 160 286 7 278 58 l 278 488 b 483 488 293 488 483 488 b 685 246 564 488 685 421 b 483 7 685 71 571 7 z "},"C":{"ha":1015,"x_min":0,"x_max":0,"o":"m 629 -3 b 203 451 411 -8 226 182 b 542 975 179 722 331 956 b 754 928 611 981 686 964 b 922 672 838 879 922 763 l 929 672 l 929 1022 l 922 1022 b 821 949 922 928 892 932 b 542 982 740 968 629 989 b 65 439 254 956 38 743 b 631 -10 92 136 342 -28 b 946 110 785 0 871 50 l 946 131 b 629 -3 868 60 761 0 z "},"D":{"ha":1044,"x_min":0,"x_max":0,"o":"m 533 972 l 69 972 l 69 965 b 157 813 149 965 156 914 l 157 160 b 69 7 156 58 149 7 l 69 0 l 533 0 b 982 486 833 0 982 215 b 533 972 982 757 832 972 z m 472 7 b 365 7 432 7 396 7 b 278 160 286 7 278 58 l 278 813 b 365 965 278 914 286 965 l 472 965 b 843 486 651 965 843 857 b 472 7 843 114 651 7 z "},"E":{"ha":835,"x_min":0,"x_max":0,"o":"m 793 235 b 524 7 753 144 664 7 l 365 7 b 278 160 286 7 279 58 l 278 481 l 379 481 b 574 310 488 481 574 403 l 581 310 l 581 658 l 574 658 b 379 488 574 565 488 488 l 278 488 l 278 813 b 365 965 279 914 286 965 l 481 965 b 739 781 619 965 699 871 l 746 781 l 699 972 l 69 972 l 69 965 b 157 813 149 965 157 914 l 157 160 b 69 7 157 58 149 7 l 69 0 l 743 0 l 800 235 z "},"F":{"ha":767,"x_min":0,"x_max":0,"o":"m 699 972 l 69 972 l 69 965 b 157 813 149 965 157 914 l 157 160 b 69 7 157 58 149 7 l 69 0 l 365 0 l 365 7 b 278 160 286 7 279 58 l 278 481 l 379 481 b 574 310 486 481 574 403 l 581 310 l 581 658 l 574 658 b 379 488 574 565 486 488 l 278 488 l 278 813 b 365 965 279 914 286 965 l 481 965 b 739 781 619 965 699 871 l 746 781 z "},"G":{"ha":1068,"x_min":0,"x_max":0,"o":"m 738 440 l 738 433 b 825 281 817 433 824 383 l 825 63 b 629 -3 763 25 690 3 b 203 451 418 -22 228 182 b 542 975 179 722 331 956 b 754 928 611 981 686 964 b 922 672 838 879 922 763 l 929 672 l 929 1022 l 922 1022 b 832 946 922 935 896 931 b 542 982 767 961 635 990 b 65 439 254 956 38 743 b 631 -10 92 136 342 -31 b 939 -14 721 -4 939 71 l 946 -14 b 946 281 946 146 946 214 b 1033 433 946 383 954 433 l 1033 440 z "},"I":{"ha":435,"x_min":0,"x_max":0,"o":"m 278 813 b 365 965 279 914 286 965 l 365 972 l 69 972 l 69 965 b 157 813 149 965 157 914 l 157 160 b 69 7 157 58 149 7 l 69 0 l 365 0 l 365 7 b 278 160 286 7 279 58 z "},"J":{"ha":438,"x_min":0,"x_max":0,"o":"m 71 972 l 71 965 b 158 813 150 965 158 914 l 158 14 b 14 -264 158 -142 101 -232 l 14 -272 b 281 31 163 -260 281 -179 l 281 813 b 368 965 281 914 289 965 l 368 972 z "},"K":{"ha":1015,"x_min":0,"x_max":0,"o":"m 738 186 b 433 564 676 256 450 543 b 614 736 499 625 567 689 b 926 965 678 800 836 965 l 926 972 l 631 972 l 631 965 b 621 753 729 965 722 854 b 278 426 528 660 358 501 l 278 813 b 365 965 279 914 286 965 l 365 972 l 69 972 l 69 965 b 157 813 149 965 156 914 l 157 160 b 69 7 156 58 149 7 l 69 0 l 365 0 l 365 7 b 278 160 286 7 279 58 l 278 419 b 344 481 296 436 319 457 l 722 0 l 1008 0 l 1008 7 b 738 186 915 7 799 114 z "},"L":{"ha":821,"x_min":0,"x_max":0,"o":"m 793 235 b 524 7 753 144 664 7 l 365 7 b 278 158 286 7 279 57 l 278 813 b 365 965 279 914 286 965 l 365 972 l 69 972 l 69 965 b 157 813 149 965 157 914 l 157 158 b 69 7 157 57 149 7 l 69 0 l 742 0 l 800 235 z "},"M":{"ha":1242,"x_min":0,"x_max":0,"o":"m 1085 813 b 1172 965 1085 914 1093 965 l 1172 972 l 964 972 l 663 326 l 311 972 l 96 972 l 96 965 b 207 899 139 965 175 938 l 207 269 b 35 7 207 104 129 7 l 35 0 l 385 0 l 385 7 b 214 269 290 7 214 104 l 214 890 b 597 201 246 849 597 201 l 604 201 l 607 201 l 610 201 l 964 957 l 964 160 b 876 7 963 58 956 7 l 876 0 l 1172 0 l 1172 7 b 1085 160 1093 7 1085 58 z "},"N":{"ha":1099,"x_min":0,"x_max":0,"o":"m 714 972 l 714 965 b 886 703 808 965 886 868 l 886 183 l 276 972 l 44 972 l 44 965 b 206 853 99 965 157 913 l 206 269 b 35 7 206 104 129 7 l 35 0 l 385 0 l 385 7 b 213 269 290 7 213 104 l 213 844 b 876 0 244 807 865 13 l 893 0 l 893 703 b 1064 965 893 868 971 965 l 1064 972 z "},"O":{"ha":1174,"x_min":0,"x_max":0,"o":"m 543 982 b 65 439 254 957 39 743 b 631 -10 93 136 343 -36 b 1108 532 919 15 1135 229 b 543 982 1081 836 831 1008 z m 631 -3 b 204 451 419 -21 228 182 b 543 975 179 722 332 957 b 969 521 754 994 946 790 b 631 -3 994 250 842 17 z "},"P":{"ha":796,"x_min":0,"x_max":0,"o":"m 426 972 l 69 972 l 69 965 b 157 813 149 965 157 915 l 157 160 b 69 7 157 58 149 7 l 69 0 l 367 0 l 367 7 b 279 160 288 7 279 58 l 279 414 l 426 414 b 747 693 592 414 747 511 b 426 972 747 875 592 972 z m 411 421 l 279 421 l 279 813 b 367 965 279 915 288 965 l 411 965 b 613 693 504 965 613 878 b 411 421 613 508 504 421 z "},"Q":{"ha":1174,"x_min":0,"x_max":0,"o":"m 869 -108 b 543 -75 765 -76 678 -24 b 676 -4 543 -75 658 -7 b 1108 532 924 29 1135 244 b 543 982 1082 836 831 1008 b 65 439 256 957 39 743 b 632 -10 93 136 343 -36 b 653 -8 639 -10 646 -8 b 560 -58 614 -28 581 -47 b 457 -86 517 -79 488 -86 b 436 -121 374 -86 392 -146 b 465 -104 446 -117 456 -111 b 856 -221 565 -47 706 -194 b 994 -175 906 -229 954 -208 b 1093 -94 1042 -136 1093 -94 l 1090 -89 b 869 -108 1033 -136 949 -133 z m 631 -3 b 204 451 419 -21 228 182 b 543 975 181 722 332 957 b 971 521 756 994 946 790 b 631 -3 994 250 843 17 z "},"R":{"ha":999,"x_min":0,"x_max":0,"o":"m 772 151 b 515 488 685 282 651 446 b 746 726 639 507 746 581 b 453 972 746 901 588 972 l 69 972 l 69 965 b 157 813 149 965 156 915 l 157 158 b 69 7 156 57 149 7 l 69 0 l 365 0 l 365 7 b 278 158 286 7 279 57 l 278 481 b 399 481 290 481 399 481 b 679 61 542 472 558 199 b 836 0 717 17 776 0 b 985 0 907 0 985 0 l 985 7 b 772 151 900 7 826 71 z m 278 488 l 278 813 b 365 965 279 915 286 965 l 410 965 b 611 726 490 965 611 901 b 410 488 611 551 497 488 b 278 488 376 488 324 488 z "},"S":{"ha":788,"x_min":0,"x_max":0,"o":"m 200 790 b 386 979 200 925 296 979 b 661 672 550 979 661 842 l 668 672 l 668 1022 l 661 1022 b 585 946 661 946 635 932 b 382 986 524 961 460 986 b 93 743 235 986 93 908 b 601 188 93 450 601 433 b 389 -7 601 74 515 -7 b 76 299 169 -7 76 218 l 69 299 l 69 -51 l 76 -51 b 193 13 76 43 150 24 b 389 -14 238 3 314 -14 b 718 242 578 -14 718 71 b 200 790 718 525 200 556 z "},"T":{"ha":953,"x_min":0,"x_max":0,"o":"m 867 972 l 86 972 l 56 764 l 63 764 b 304 965 103 854 165 965 l 328 965 b 415 813 407 965 415 915 l 415 160 b 328 7 415 58 407 7 l 328 0 l 625 0 l 625 7 b 538 160 546 7 538 58 l 538 813 b 625 965 538 915 546 965 l 649 965 b 890 764 788 965 850 854 l 897 764 z "},"U":{"ha":981,"x_min":0,"x_max":0,"o":"m 729 972 l 729 965 b 817 813 808 965 817 915 l 817 303 b 507 -4 817 118 722 -4 b 278 286 376 -4 278 107 l 278 813 b 365 965 279 915 286 965 l 365 972 l 69 972 l 69 965 b 157 813 149 965 157 915 l 157 303 b 507 -14 157 60 356 -14 b 824 303 665 -14 824 60 l 824 813 b 911 965 824 915 832 965 l 911 972 z "},"V":{"ha":1053,"x_min":0,"x_max":0,"o":"m 715 972 l 715 965 b 783 700 810 965 819 800 b 592 161 771 669 661 358 b 321 818 592 161 365 710 b 349 965 278 925 278 965 l 349 972 l 42 972 l 42 965 b 204 779 129 965 168 868 b 526 0 240 690 526 0 l 540 0 b 810 750 540 0 763 629 b 1011 965 857 871 924 949 l 1011 972 z "},"W":{"ha":1447,"x_min":0,"x_max":0,"o":"m 1108 972 l 1108 965 b 1186 726 1203 965 1211 832 b 1031 189 1178 689 1090 392 l 775 972 l 758 972 l 536 204 b 319 853 521 249 350 754 b 371 965 293 939 308 965 l 371 972 l 42 972 l 42 965 b 204 779 128 965 165 892 b 469 0 243 660 469 0 l 482 0 l 707 772 l 967 0 l 981 0 b 1203 750 981 0 1163 622 b 1406 965 1242 874 1317 949 l 1406 972 z "},"X":{"ha":993,"x_min":0,"x_max":0,"o":"m 944 965 l 944 972 l 649 972 l 649 965 b 682 774 742 965 743 863 b 535 549 656 735 585 625 b 389 808 483 638 431 732 b 389 965 349 886 319 965 l 389 972 l 83 972 l 83 965 b 329 703 178 965 281 788 b 471 450 356 656 413 554 b 289 178 417 368 335 244 b 49 7 213 72 138 22 l 49 0 l 346 0 l 346 7 b 311 199 251 7 251 110 b 474 444 339 239 418 360 b 639 151 546 315 618 186 b 632 7 675 88 699 7 l 632 0 l 938 0 l 938 7 b 708 242 851 7 758 158 b 538 543 689 276 617 404 b 706 794 586 618 660 729 b 944 965 781 900 856 949 z "},"Y":{"ha":939,"x_min":0,"x_max":0,"o":"m 601 972 l 601 965 b 649 700 694 965 699 828 b 549 424 638 674 589 538 b 335 844 529 463 364 788 b 349 965 313 889 294 965 l 349 972 l 42 972 l 42 965 b 254 747 129 965 210 832 b 429 410 288 683 374 517 l 429 160 b 342 7 429 58 421 7 l 342 0 l 638 0 l 638 7 b 550 160 558 7 551 58 l 550 411 b 675 750 590 524 646 675 b 897 965 722 871 808 949 l 897 972 z "},"Z":{"ha":807,"x_min":0,"x_max":0,"o":"m 758 972 l 122 972 l 75 781 l 82 781 b 340 965 122 871 201 965 l 624 965 l 49 7 l 49 0 l 694 0 l 742 192 l 735 192 b 475 7 694 100 615 7 l 182 7 l 758 965 z "},"£":{"ha":735,"x_min":0,"x_max":0,"o":"m 665 192 b 285 7 594 75 483 7 l 121 7 b 363 490 358 85 413 235 l 571 490 l 571 497 l 361 497 b 329 629 353 539 342 582 b 443 1019 256 888 254 1019 b 547 879 578 1019 528 922 b 642 861 565 839 618 835 b 621 965 665 889 661 929 b 422 1026 581 1003 524 1026 b 164 828 329 1026 171 1000 b 232 497 160 732 203 618 l 107 497 l 107 490 l 233 490 b 254 231 253 407 267 319 b 63 7 231 54 133 7 l 63 0 l 642 0 l 672 192 z "},"¥":{"ha":938,"x_min":0,"x_max":0,"o":"m 600 972 l 600 965 b 646 700 693 965 697 828 b 547 425 636 675 588 538 b 333 844 528 464 363 788 b 347 965 311 889 293 965 l 347 972 l 42 972 l 42 965 b 253 747 128 965 208 833 b 426 414 286 685 369 522 l 250 414 l 250 407 l 428 407 l 428 319 l 250 319 l 250 314 l 428 314 l 428 160 b 340 7 428 58 419 7 l 340 0 l 636 0 l 636 7 b 549 160 557 7 550 58 l 549 314 l 728 314 l 728 319 l 549 319 l 549 407 l 728 407 l 728 414 l 550 414 b 674 750 590 528 644 676 b 896 965 721 871 807 950 l 896 972 z "},"¤":{"ha":683,"x_min":0,"x_max":0,"o":"m 550 453 b 490 599 550 510 526 561 l 614 710 l 600 724 l 485 603 b 340 661 447 639 397 661 b 197 604 286 661 235 639 l 83 724 l 69 710 l 193 599 b 132 453 156 561 132 510 b 192 307 132 396 156 344 l 69 197 l 83 183 l 197 301 b 340 244 235 267 285 244 b 486 303 397 244 449 267 l 600 183 l 614 197 l 490 308 b 550 453 526 346 550 396 z m 139 453 b 340 654 139 564 229 654 b 543 453 453 654 543 564 b 340 251 543 342 453 251 b 139 453 229 251 139 342 z "},"¢":{"ha":694,"x_min":0,"x_max":0,"o":"m 439 -7 b 385 -1 421 -7 403 -4 l 385 696 b 561 626 461 697 533 667 b 543 529 592 583 553 568 b 604 467 533 493 567 458 b 635 576 642 475 658 526 b 385 700 613 625 517 710 l 385 799 l 378 799 l 378 700 b 374 700 376 700 375 700 b 50 321 181 679 40 553 b 378 -11 58 110 207 0 l 378 -110 l 385 -110 l 385 -11 b 440 -11 403 -12 421 -12 b 632 68 524 -6 588 35 l 632 85 b 439 -7 594 44 511 -6 z m 167 324 b 374 694 157 522 231 683 b 378 694 375 694 376 694 l 378 1 b 167 324 260 31 174 151 z "},"$":{"ha":788,"x_min":0,"x_max":0,"o":"m 718 243 b 397 569 718 407 543 486 l 397 979 b 661 674 556 972 661 838 l 668 674 l 668 1024 l 661 1024 b 583 946 661 947 635 932 b 397 986 526 961 468 983 l 397 1121 l 390 1121 l 390 986 b 382 986 388 986 385 986 b 93 744 235 986 93 908 b 390 424 93 581 250 503 l 390 -6 b 389 -6 390 -6 389 -6 b 76 300 169 -6 76 219 l 69 300 l 69 -50 l 76 -50 b 193 14 76 44 150 24 b 389 -12 238 4 314 -12 b 390 -12 390 -12 390 -12 l 390 -147 l 397 -147 l 397 -12 b 718 243 581 -10 718 74 z m 200 792 b 385 979 200 925 296 979 b 390 979 388 979 389 979 l 390 574 b 200 792 288 632 200 694 z m 397 -6 l 397 421 b 600 189 506 358 600 296 b 397 -6 600 78 519 -3 z "},"€":{"ha":1094,"x_min":0,"x_max":0,"o":"m 708 -3 b 288 411 501 -7 325 163 l 628 411 l 628 418 l 286 418 b 282 453 285 429 283 440 b 281 532 279 479 279 506 l 661 532 l 661 539 l 281 539 b 621 976 292 771 432 958 b 833 928 690 982 765 964 b 1001 674 917 879 1001 763 l 1008 674 l 1008 1024 l 1001 1024 b 900 949 1001 929 971 932 b 621 982 819 968 708 990 b 143 539 365 960 167 789 l 49 539 l 49 532 l 143 532 b 144 440 140 503 142 472 b 146 418 144 432 146 425 l 49 418 l 49 411 l 147 411 b 710 -10 188 126 431 -26 b 1025 111 864 0 951 51 l 1025 132 b 708 -3 947 61 840 0 z "},"₽":{"ha":803,"x_min":0,"x_max":0,"o":"m 435 414 b 754 693 600 414 754 513 b 435 972 754 875 600 972 l 78 972 l 78 965 b 165 814 157 965 165 915 l 165 421 l 21 421 l 21 414 l 165 414 l 165 317 l 21 317 l 21 310 l 165 310 l 165 160 b 78 7 165 58 157 7 l 78 0 l 375 0 l 375 7 b 288 160 296 7 288 58 l 288 310 l 499 310 l 499 317 l 288 317 l 288 414 z m 419 965 b 619 693 513 965 619 879 b 419 421 619 508 513 421 l 288 421 l 288 814 b 375 965 288 915 296 965 z "},"₿":{"ha":868,"x_min":0,"x_max":0,"o":"m 528 494 b 753 731 649 515 753 588 b 460 972 753 906 594 972 l 456 972 l 456 1121 l 449 1121 l 449 972 l 375 972 l 375 1121 l 368 1121 l 368 972 l 69 972 l 69 965 b 157 814 149 965 157 915 l 157 160 b 69 7 157 58 149 7 l 69 0 l 401 0 l 401 -147 l 408 -147 l 408 0 l 482 0 l 482 -147 l 489 -147 l 489 0 l 514 0 b 819 246 665 0 819 71 b 528 494 819 421 663 494 z m 428 965 b 618 731 507 965 618 906 b 428 494 618 556 531 494 b 279 494 390 494 329 494 l 279 814 b 367 965 279 915 288 965 z m 485 7 b 367 7 485 7 378 7 b 279 160 288 7 279 58 l 279 489 b 485 489 293 489 485 489 b 686 246 564 489 686 421 b 485 7 686 71 571 7 z "},"a":{"ha":697,"x_min":0,"x_max":0,"o":"m 622 -3 b 554 144 558 -3 554 51 b 554 494 554 144 554 357 b 326 699 554 633 457 699 b 104 565 178 699 128 617 b 135 457 81 515 97 465 b 197 518 174 447 207 482 b 168 619 188 558 147 575 b 322 693 189 667 232 693 b 440 488 424 693 440 606 b 440 364 440 453 440 408 b 367 331 419 351 396 340 b 64 132 271 299 74 279 b 306 -1 54 -7 201 -33 b 442 119 367 18 410 63 b 604 -12 453 7 525 -12 b 669 4 632 -12 651 -7 l 669 11 b 622 -3 661 6 639 -3 z m 329 14 b 160 164 243 -28 144 17 b 372 326 174 289 306 301 b 440 358 401 338 422 347 b 440 151 440 256 440 151 b 442 126 440 143 440 135 b 329 14 415 79 379 38 z "},"b":{"ha":796,"x_min":0,"x_max":0,"o":"m 453 700 b 250 569 351 700 285 639 b 250 807 250 643 250 729 b 274 1015 250 946 260 1008 l 274 1022 l 49 1022 l 49 1015 b 136 864 128 1015 135 965 l 136 0 l 139 0 b 294 75 139 0 242 139 b 465 -12 325 38 372 -12 b 747 343 657 -12 747 118 b 453 700 747 572 604 700 z m 431 0 b 267 151 354 0 290 71 b 250 343 258 183 250 243 b 250 553 250 404 250 551 b 425 689 281 639 365 689 b 633 343 560 689 633 558 b 431 0 633 118 574 0 z "},"c":{"ha":694,"x_min":0,"x_max":0,"o":"m 439 -7 b 167 322 290 -8 175 122 b 374 693 158 522 231 682 b 561 626 454 699 533 668 b 543 529 592 582 553 568 b 604 467 533 492 567 458 b 635 575 642 475 658 525 b 374 699 613 626 511 714 b 50 319 181 679 40 551 b 440 -12 60 85 244 -25 b 632 68 525 -7 589 35 l 632 85 b 439 -7 594 44 511 -7 z "},"d":{"ha":829,"x_min":0,"x_max":0,"o":"m 672 160 l 672 807 b 696 1015 672 946 682 1008 l 696 1022 l 471 1022 l 471 1015 b 558 864 550 1015 557 965 l 558 697 b 319 683 481 700 414 707 b 57 343 172 647 64 535 b 343 -12 50 128 151 -12 b 558 199 447 -12 531 47 b 535 7 557 71 547 14 l 535 0 l 760 0 l 760 7 b 672 160 681 7 674 58 z m 378 0 b 171 343 235 0 161 149 b 353 681 181 533 251 643 b 558 690 400 697 501 697 l 558 243 b 542 151 556 213 550 183 b 378 0 518 71 461 0 z "},"e":{"ha":751,"x_min":0,"x_max":0,"o":"m 50 318 b 50 318 50 321 50 315 z m 703 463 b 388 699 676 621 551 711 b 50 318 194 685 36 533 b 453 -12 67 89 257 -25 b 671 75 558 -6 621 32 l 671 90 b 453 -7 618 39 542 -6 b 174 322 304 -11 192 115 b 179 463 169 371 172 419 z m 388 693 b 585 468 529 690 574 582 l 181 468 b 388 693 206 599 281 694 z "},"f":{"ha":411,"x_min":0,"x_max":0,"o":"m 467 1006 b 363 1026 456 1011 417 1026 b 157 828 268 1026 157 993 b 157 686 157 828 157 768 l 69 686 l 69 679 l 157 679 b 157 160 157 649 157 619 b 69 7 157 58 149 7 l 69 0 l 360 0 l 360 7 b 272 160 281 7 272 58 l 272 679 l 379 679 l 379 686 l 272 686 l 272 835 b 383 1019 272 929 292 1019 b 426 915 436 1019 408 951 b 514 908 443 882 493 875 b 467 1006 532 939 521 983 z "},"g":{"ha":711,"x_min":0,"x_max":0,"o":"m 689 -40 b 263 78 647 67 511 21 b 236 188 165 100 150 158 b 371 168 279 171 326 164 b 611 431 492 181 617 274 b 508 607 608 513 565 571 b 536 656 514 628 524 646 b 619 650 568 686 586 654 b 664 713 651 647 681 676 b 568 724 649 746 607 749 b 504 610 546 708 517 665 b 329 649 451 640 386 653 b 88 385 207 636 75 544 b 232 189 96 285 157 221 b 138 125 200 179 160 164 b 154 17 121 96 119 46 b 585 -81 256 -64 521 -28 b 490 -310 639 -124 625 -239 b 104 -208 350 -383 115 -374 b 210 -57 97 -107 151 -64 b 322 -71 265 -50 322 -71 l 322 -57 b 217 -51 289 -51 253 -50 b 17 -218 114 -53 -4 -90 b 444 -339 36 -343 279 -385 b 689 -40 613 -292 729 -140 z m 329 643 b 508 424 419 651 496 563 b 369 174 519 285 460 183 b 190 393 279 165 204 254 b 329 643 179 532 239 633 z "},"h":{"ha":872,"x_min":0,"x_max":0,"o":"m 715 160 l 715 478 b 478 700 715 643 615 700 b 272 569 376 700 306 639 l 272 807 b 296 1015 272 946 282 1008 l 296 1022 l 69 1022 l 69 1015 b 157 864 149 1015 157 965 l 157 160 b 69 7 157 58 149 7 l 69 0 l 360 0 l 360 7 b 272 160 281 7 272 58 l 272 553 b 450 690 303 639 390 690 b 601 485 585 690 601 579 l 601 160 b 514 7 601 58 593 7 l 514 0 l 803 0 l 803 7 b 715 160 724 7 717 58 z "},"i":{"ha":428,"x_min":0,"x_max":0,"o":"m 271 160 l 271 469 b 294 679 271 610 281 672 l 294 686 l 69 686 l 69 679 b 157 528 149 679 156 629 l 157 160 b 69 7 156 58 149 7 l 69 0 l 358 0 l 358 7 b 271 160 279 7 271 58 z m 214 832 b 288 908 254 832 288 865 b 214 986 288 951 254 986 b 140 908 172 986 140 951 b 214 832 140 865 172 832 z "},"j":{"ha":428,"x_min":0,"x_max":0,"o":"m 69 686 l 69 679 b 157 528 149 679 157 629 l 157 -121 b 13 -397 157 -276 100 -367 l 13 -407 b 272 -104 161 -393 272 -312 l 272 469 b 296 679 272 610 282 672 l 296 686 z m 214 832 b 289 908 256 832 289 865 b 214 986 289 951 256 986 b 140 908 174 986 140 951 b 214 832 140 865 174 832 z "},"k":{"ha":864,"x_min":0,"x_max":0,"o":"m 625 165 b 424 467 572 239 436 447 b 540 579 461 503 501 543 b 753 679 617 651 718 679 l 753 686 l 457 686 l 457 679 b 543 651 504 679 532 669 b 533 582 557 631 551 600 b 272 326 474 522 307 361 l 272 807 b 296 1015 272 946 282 1008 l 296 1022 l 69 1022 l 69 1015 b 157 864 149 1015 157 965 l 157 160 b 69 7 157 58 149 7 l 69 0 l 360 0 l 360 7 b 272 160 281 7 272 58 l 272 317 b 340 385 283 328 308 353 l 585 0 l 836 0 l 836 7 b 625 165 744 7 685 81 z "},"l":{"ha":429,"x_min":0,"x_max":0,"o":"m 272 160 l 272 807 b 296 1015 272 946 282 1008 l 296 1022 l 69 1022 l 69 1015 b 157 864 149 1015 157 965 l 157 160 b 69 7 157 58 149 7 l 69 0 l 360 0 l 360 7 b 272 160 281 7 272 58 z "},"m":{"ha":1289,"x_min":0,"x_max":0,"o":"m 1132 160 l 1132 478 b 900 700 1132 643 1038 700 b 692 560 800 700 726 631 b 469 700 664 663 582 700 b 274 574 371 700 308 642 b 294 679 276 642 285 674 l 294 686 l 69 686 l 69 679 b 157 528 149 679 156 629 l 157 160 b 69 7 156 58 149 7 l 69 0 l 358 0 l 358 7 b 271 160 279 7 271 58 l 271 471 b 272 556 271 504 271 532 b 443 690 304 642 383 690 b 588 485 578 690 588 579 l 588 160 b 500 7 586 58 579 7 l 500 0 l 789 0 l 789 7 b 701 160 710 7 701 58 l 701 478 b 694 550 701 504 699 529 b 874 690 728 633 815 690 b 1018 485 1008 690 1018 579 l 1018 160 b 931 7 1017 58 1010 7 l 931 0 l 1219 0 l 1219 7 b 1132 160 1140 7 1132 58 z "},"n":{"ha":872,"x_min":0,"x_max":0,"o":"m 715 160 l 715 478 b 478 700 715 642 615 700 b 274 572 379 700 310 642 b 296 679 278 642 286 675 l 296 686 l 69 686 l 69 679 b 157 526 149 679 157 629 l 157 160 b 69 7 157 58 149 7 l 69 0 l 360 0 l 360 7 b 272 160 281 7 272 58 l 272 471 b 274 556 272 503 272 531 b 450 690 306 640 392 690 b 601 485 585 690 601 578 l 601 160 b 514 7 601 58 593 7 l 514 0 l 803 0 l 803 7 b 715 160 724 7 717 57 z "},"o":{"ha":821,"x_min":0,"x_max":0,"o":"m 394 699 b 56 310 188 685 43 522 b 457 -12 68 94 256 -32 b 769 374 654 6 776 181 b 394 699 763 583 590 713 z m 457 -7 b 176 318 306 -26 193 100 b 394 693 161 531 243 681 b 647 368 538 704 636 540 b 457 -7 660 182 586 11 z "},"p":{"ha":835,"x_min":0,"x_max":0,"o":"m 474 699 b 274 572 375 699 308 642 b 296 679 278 642 286 675 l 296 686 l 69 686 l 69 679 b 157 526 149 679 157 629 l 157 -114 b 69 -265 157 -215 149 -265 l 69 -272 l 360 -272 l 360 -265 b 272 -114 281 -265 272 -215 l 272 118 b 474 -14 306 47 374 -14 b 779 343 625 -14 779 97 b 474 699 779 589 625 699 z m 447 -4 b 272 135 386 -4 303 47 l 272 471 b 274 556 272 503 272 531 b 447 689 306 640 388 689 b 665 343 582 689 665 571 b 447 -4 665 114 582 -4 z "},"q":{"ha":836,"x_min":0,"x_max":0,"o":"m 679 526 b 767 679 681 629 688 679 l 767 686 b 622 686 767 686 676 686 b 444 699 522 686 522 699 b 57 343 222 699 68 549 b 343 -14 47 128 151 -14 b 565 249 475 -14 544 90 l 565 -114 b 478 -265 565 -215 557 -265 l 478 -272 l 767 -272 l 767 -265 b 679 -114 688 -265 681 -215 z m 563 343 b 539 151 563 274 560 215 b 379 0 511 71 454 0 b 172 343 236 0 163 147 b 435 693 182 544 253 693 b 564 585 542 693 561 671 b 563 343 563 515 563 401 z "},"r":{"ha":615,"x_min":0,"x_max":0,"o":"m 468 699 b 271 488 415 693 306 614 b 294 679 272 615 282 672 l 294 686 l 69 686 l 69 679 b 157 526 149 679 157 629 l 157 160 b 69 7 157 58 149 7 l 69 0 l 358 0 l 358 7 b 271 160 279 7 272 58 l 272 472 b 397 644 292 549 349 631 b 483 593 449 660 449 615 b 565 635 515 572 564 588 b 468 699 567 679 524 706 z "},"s":{"ha":629,"x_min":0,"x_max":0,"o":"m 194 565 b 328 693 194 632 240 693 b 456 646 404 693 431 672 b 446 540 489 608 449 581 b 517 489 442 503 481 475 b 529 601 551 504 560 556 b 328 699 503 640 451 699 b 96 535 186 699 96 642 b 463 121 96 296 463 289 b 311 -7 463 51 401 -7 b 153 50 224 -7 179 19 b 165 160 117 90 163 119 b 94 211 169 197 131 225 b 82 99 60 197 51 144 b 311 -12 108 60 183 -12 b 567 171 475 -12 567 53 b 194 565 567 374 194 397 z "},"t":{"ha":440,"x_min":0,"x_max":0,"o":"m 351 -4 b 240 178 261 -4 240 83 l 240 679 l 385 679 l 385 686 l 240 686 l 240 840 l 233 840 b 126 736 217 763 181 743 b 126 686 126 729 126 686 b 63 686 126 686 85 686 l 63 679 l 126 679 b 126 185 126 560 126 185 b 331 -14 126 19 238 -14 b 406 3 365 -14 389 -7 l 406 11 b 351 -4 399 7 375 -4 z "},"u":{"ha":865,"x_min":0,"x_max":0,"o":"m 708 160 l 708 471 b 732 679 708 610 718 672 l 732 686 l 507 686 l 507 679 b 594 526 586 679 593 629 l 594 215 b 593 131 594 183 593 154 b 415 -4 561 46 475 -4 b 265 201 281 -4 265 107 l 265 471 b 288 679 265 610 275 672 l 288 686 l 63 686 l 63 679 b 150 526 142 679 150 629 l 150 208 b 389 -14 150 43 251 -14 b 592 113 488 -14 557 44 b 571 7 588 44 581 11 l 571 0 l 796 0 l 796 7 b 708 158 717 7 710 57 z "},"v":{"ha":769,"x_min":0,"x_max":0,"o":"m 533 686 l 533 679 b 581 493 599 679 606 564 b 451 132 572 472 500 271 b 250 586 440 157 278 518 b 272 679 221 656 224 679 l 272 686 l 35 686 l 35 679 b 149 549 96 679 121 610 b 397 0 179 481 397 0 l 410 0 b 599 528 410 0 565 443 b 742 679 632 614 679 668 l 742 686 z "},"w":{"ha":1104,"x_min":0,"x_max":0,"o":"m 868 686 l 868 679 b 915 493 935 679 939 565 b 807 156 908 471 851 294 l 603 686 l 593 686 l 433 156 b 264 586 414 207 289 517 b 286 679 236 656 238 679 l 286 686 l 35 686 l 35 679 b 149 549 96 679 122 611 b 379 0 182 467 379 0 l 392 0 l 546 515 l 749 0 l 763 0 b 935 528 763 0 901 443 b 1076 679 968 614 1014 668 l 1076 686 z "},"x":{"ha":703,"x_min":0,"x_max":0,"o":"m 508 171 b 383 390 494 196 442 289 b 497 560 418 443 467 517 b 667 679 550 635 604 668 l 667 686 l 457 686 l 457 679 b 481 546 524 679 524 608 b 382 393 463 519 417 447 b 281 571 347 454 311 517 b 278 679 247 629 228 679 l 278 686 l 51 686 l 51 679 b 222 496 118 679 188 556 b 328 310 243 457 285 383 b 203 125 289 253 235 171 b 35 7 150 51 97 18 l 35 0 l 243 0 l 243 7 b 219 140 178 7 176 78 b 329 306 239 167 290 247 b 443 107 379 218 429 131 b 442 7 469 61 489 7 l 442 0 l 668 0 l 668 7 b 508 171 607 7 543 113 z "},"y":{"ha":771,"x_min":0,"x_max":0,"o":"m 535 686 l 535 679 b 582 493 601 679 608 564 b 450 126 575 474 508 290 b 250 586 432 168 276 519 b 272 679 221 656 224 679 l 272 686 l 35 686 l 35 679 b 149 549 96 679 121 610 b 399 0 179 481 399 0 l 404 0 b 253 -260 361 -114 296 -225 b 163 -192 190 -307 196 -215 b 85 -229 131 -171 86 -187 b 171 -301 82 -275 122 -304 b 411 0 260 -296 336 -182 b 456 124 426 38 440 81 b 601 528 515 292 581 475 b 743 679 635 614 681 668 l 743 686 z "},"z":{"ha":651,"x_min":0,"x_max":0,"o":"m 596 686 l 126 686 l 88 540 l 92 540 b 281 679 119 604 182 679 l 476 679 l 63 7 l 63 0 l 539 0 l 579 146 l 574 146 b 385 7 546 81 483 7 l 182 7 l 596 679 z "}," ":{"ha":292,"x_min":0,"x_max":0,"o":""},".":{"ha":274,"x_min":0,"x_max":0,"o":"m 136 122 b 69 54 99 122 69 92 b 136 -12 69 17 99 -12 b 204 54 174 -12 204 17 b 136 122 204 92 174 122 z "},",":{"ha":275,"x_min":0,"x_max":0,"o":"m 204 51 b 143 121 203 89 183 118 b 71 60 107 125 74 97 b 132 -12 67 24 94 -8 b 197 14 154 -15 185 -7 b 94 -107 199 -19 188 -114 l 94 -112 b 204 51 197 -117 207 -19 z "},":":{"ha":274,"x_min":0,"x_max":0,"o":"m 136 122 b 69 54 100 122 69 92 b 136 -12 69 17 100 -12 b 204 54 174 -12 204 17 b 136 122 204 92 174 122 z m 136 449 b 204 515 174 449 204 478 b 136 583 204 553 174 583 b 69 515 100 583 69 553 b 136 449 69 478 100 449 z "},";":{"ha":275,"x_min":0,"x_max":0,"o":"m 138 449 b 206 515 175 449 206 478 b 138 583 206 553 175 583 b 71 515 101 583 71 553 b 138 449 71 478 101 449 z m 144 121 b 71 60 107 125 75 97 b 132 -12 68 24 94 -8 b 199 14 154 -15 186 -7 b 94 -107 199 -19 188 -114 l 94 -112 b 204 51 199 -117 208 -19 b 144 121 203 89 185 118 z "},"!":{"ha":274,"x_min":0,"x_max":0,"o":"m 136 122 b 69 54 100 122 69 92 b 136 -12 69 17 100 -12 b 204 54 174 -12 204 17 b 136 122 204 92 174 122 z m 124 506 b 133 246 136 367 133 246 l 136 246 l 140 246 b 150 506 140 246 136 367 b 188 890 164 643 186 869 b 136 972 192 939 183 972 b 86 890 89 972 82 939 b 124 506 88 869 110 643 z "},"?":{"ha":585,"x_min":0,"x_max":0,"o":"m 263 986 b 175 596 -10 986 17 653 b 175 617 175 606 175 606 b 246 981 24 688 31 981 b 390 731 374 981 410 856 b 232 233 363 563 218 449 b 239 233 232 233 236 233 b 525 740 239 485 497 542 b 263 986 551 942 388 986 z m 242 122 b 175 54 206 122 175 92 b 242 -12 175 17 206 -12 b 310 54 279 -12 310 17 b 242 122 310 92 279 122 z "},"@":{"ha":917,"x_min":0,"x_max":0,"o":"m 238 165 b 453 54 229 50 365 28 b 567 156 504 71 540 108 b 708 44 576 61 642 44 b 861 365 832 44 861 239 b 781 671 861 501 835 601 b 485 788 718 749 622 788 b 167 683 342 788 238 753 b 56 338 92 610 56 496 b 165 -10 56 185 93 68 b 449 -117 232 -81 328 -117 b 804 6 676 -117 803 4 l 800 8 b 449 -111 799 7 675 -111 b 61 338 272 -111 61 -33 b 485 782 61 640 196 782 b 856 365 738 782 856 650 b 724 53 856 125 775 53 b 671 176 669 53 671 99 b 671 468 671 176 671 354 b 469 639 671 583 579 639 b 288 483 346 639 297 553 b 328 278 274 388 304 314 b 238 165 279 256 240 221 z m 472 67 b 332 192 400 33 318 69 b 508 328 343 297 453 307 b 565 354 532 338 550 346 b 565 182 565 268 565 182 b 565 161 565 175 565 168 b 472 67 544 121 514 88 z m 290 475 b 467 635 304 592 390 635 b 565 463 551 635 565 561 b 565 360 565 433 565 397 b 503 331 549 349 528 339 b 332 279 461 317 389 306 b 290 475 286 346 285 433 z "},"#":{"ha":785,"x_min":0,"x_max":0,"o":"m 715 508 l 715 515 l 518 515 l 518 731 l 511 731 l 511 515 l 272 515 l 272 731 l 265 731 l 265 515 l 69 515 l 69 508 l 265 508 l 265 274 l 69 274 l 69 267 l 265 267 l 265 51 l 272 51 l 272 267 l 511 267 l 511 51 l 518 51 l 518 267 l 715 267 l 715 274 l 518 274 l 518 508 z m 511 274 l 272 274 l 272 508 l 511 508 z "},"=":{"ha":529,"x_min":0,"x_max":0,"o":"m 69 475 l 69 468 l 460 468 l 460 475 z m 69 307 l 460 307 l 460 314 l 69 314 z "},"+":{"ha":529,"x_min":0,"x_max":0,"o":"m 460 394 l 268 394 l 268 586 l 261 586 l 261 394 l 69 394 l 69 388 l 261 388 l 261 196 l 268 196 l 268 388 l 460 388 z "},"×":{"ha":419,"x_min":0,"x_max":0,"o":"m 350 526 l 346 531 l 210 396 l 74 531 l 69 526 l 206 390 l 69 256 l 74 250 l 210 386 l 346 250 l 350 256 l 214 390 z "},"÷":{"ha":529,"x_min":0,"x_max":0,"o":"m 69 385 l 69 378 l 460 378 l 460 385 z m 265 475 b 318 529 294 475 318 500 b 265 583 318 558 294 583 b 211 529 235 583 211 558 b 265 475 211 500 235 475 z m 265 288 b 211 233 235 288 211 263 b 265 179 211 203 235 179 b 318 233 294 179 318 203 b 265 288 318 263 294 288 z "},"−":{"ha":529,"x_min":0,"x_max":0,"o":"m 69 385 l 69 378 l 460 378 l 460 385 z "},"≠":{"ha":529,"x_min":0,"x_max":0,"o":"m 460 458 l 460 465 l 353 465 l 404 517 l 400 521 l 343 465 l 69 465 l 69 458 l 338 458 l 182 304 l 69 304 l 69 297 l 175 297 l 124 246 l 129 240 l 185 297 l 460 297 l 460 304 l 192 304 l 346 458 z "},"-":{"ha":449,"x_min":0,"x_max":0,"o":"m 69 385 l 69 378 l 379 378 l 379 385 z "},"–":{"ha":549,"x_min":0,"x_max":0,"o":"m 69 385 l 69 378 l 479 378 l 479 385 z "},"_":{"ha":529,"x_min":0,"x_max":0,"o":"m 69 -15 l 69 -22 l 460 -22 l 460 -15 z "},"”":{"ha":371,"x_min":0,"x_max":0,"o":"m 178 961 b 129 1017 176 992 161 1014 b 71 969 100 1019 74 999 b 119 911 69 939 90 914 b 172 932 138 910 163 915 b 90 838 172 906 164 831 l 90 832 b 178 961 172 828 181 906 z m 300 961 b 251 1017 299 992 283 1014 b 194 969 222 1019 197 999 b 243 911 192 939 213 914 b 294 932 260 910 285 915 b 213 838 296 906 286 831 l 213 832 b 300 961 294 828 303 906 z "},"“":{"ha":371,"x_min":0,"x_max":0,"o":"m 194 888 b 242 832 196 858 210 835 b 300 881 271 829 297 851 b 251 939 303 910 281 935 b 199 917 233 940 210 933 b 281 1013 199 943 207 1018 l 281 1017 b 194 888 199 1021 192 944 z m 71 888 b 119 832 72 858 88 835 b 178 881 149 829 175 851 b 129 939 181 910 158 935 b 76 917 111 940 86 933 b 158 1013 76 943 85 1018 l 158 1017 b 71 888 76 1021 68 944 z "},"„":{"ha":371,"x_min":0,"x_max":0,"o":"m 176 43 b 129 99 175 72 161 96 b 71 50 100 101 74 79 b 119 -7 68 21 90 -4 b 172 14 138 -10 163 -3 b 90 -82 172 -12 164 -87 l 90 -86 b 176 43 172 -90 179 -12 z m 300 43 b 251 99 299 72 283 96 b 194 50 222 101 196 79 b 242 -7 192 21 213 -4 b 294 14 260 -10 285 -3 b 213 -82 294 -12 286 -87 l 213 -86 b 300 43 294 -90 303 -12 z "},"‚":{"ha":249,"x_min":0,"x_max":0,"o":"m 178 43 b 129 99 176 72 161 96 b 71 50 100 101 74 79 b 119 -7 68 21 90 -4 b 172 14 138 -10 163 -3 b 90 -82 172 -12 164 -87 l 90 -86 b 178 43 172 -90 179 -12 z "},"‘":{"ha":247,"x_min":0,"x_max":0,"o":"m 71 888 b 118 832 72 858 88 835 b 176 881 149 829 174 851 b 128 939 179 910 157 935 b 76 917 110 940 86 933 b 157 1013 75 943 83 1018 l 157 1017 b 71 888 76 1021 68 944 z "},"’":{"ha":247,"x_min":0,"x_max":0,"o":"m 176 961 b 128 1017 175 992 160 1014 b 71 969 99 1019 74 999 b 119 911 68 939 90 914 b 171 932 138 910 161 915 b 89 838 172 906 161 831 l 89 832 b 176 961 171 828 179 906 z "},"'":{"ha":211,"x_min":0,"x_max":0,"o":"m 106 963 b 72 896 75 963 65 944 b 101 765 78 849 99 818 b 106 765 106 765 106 765 b 108 765 106 765 106 765 b 139 896 113 818 132 849 b 106 963 146 944 136 963 z "},"\"":{"ha":303,"x_min":0,"x_max":0,"o":"m 106 963 b 72 896 75 963 65 944 b 103 765 79 849 99 818 b 106 765 106 765 106 765 b 108 765 106 765 106 765 b 139 896 113 818 132 849 b 106 963 146 944 136 963 z m 196 963 b 163 896 167 963 156 944 b 193 765 169 849 190 818 b 196 765 196 765 196 765 b 200 765 196 765 196 765 b 231 896 203 818 224 849 b 196 963 238 944 226 963 z "},"°":{"ha":335,"x_min":0,"x_max":0,"o":"m 167 793 b 265 890 221 793 265 836 b 167 988 265 944 221 988 b 69 890 114 988 69 944 b 167 793 69 836 114 793 z m 167 982 b 258 890 217 982 258 940 b 167 800 258 840 217 800 b 76 890 117 800 76 840 b 167 982 76 940 117 982 z "},"±":{"ha":529,"x_min":0,"x_max":0,"o":"m 268 435 l 268 626 l 261 626 l 261 435 l 69 435 l 69 428 l 261 428 l 261 236 l 268 236 l 268 428 l 460 428 l 460 435 z m 69 169 l 460 169 l 460 176 l 69 176 z "},"|":{"ha":146,"x_min":0,"x_max":0,"o":"m 69 1024 l 69 -60 l 76 -60 l 76 1024 z "},"/":{"ha":347,"x_min":0,"x_max":0,"o":"m 271 976 l 69 -10 l 76 -10 l 278 976 z "},"[":{"ha":314,"x_min":0,"x_max":0,"o":"m 279 1024 l 279 1031 l 69 1031 l 69 -43 l 279 -43 l 279 -36 l 171 -36 l 171 1024 z "},"]":{"ha":313,"x_min":0,"x_max":0,"o":"m 35 1031 l 35 1024 l 143 1024 l 143 -36 l 35 -36 l 35 -43 l 243 -43 l 243 1031 z "},"\\":{"ha":347,"x_min":0,"x_max":0,"o":"m 76 976 l 69 976 l 271 -10 l 278 -10 z "},"⁄":{"ha":347,"x_min":0,"x_max":0,"o":"m 271 976 l 69 -10 l 76 -10 l 278 976 z "},"¦":{"ha":146,"x_min":0,"x_max":0,"o":"m 69 -17 l 76 -17 l 76 360 l 69 360 z m 69 999 l 69 622 l 76 622 l 76 999 z "},"%":{"ha":778,"x_min":0,"x_max":0,"o":"m 553 985 l 204 0 l 210 0 l 560 985 z m 215 985 b 56 790 121 986 56 925 b 215 596 56 657 119 596 b 375 790 311 596 375 657 b 215 985 375 925 311 985 z m 215 600 b 126 790 139 600 126 708 b 215 981 126 874 139 981 b 306 790 293 981 306 872 b 215 600 306 708 293 600 z m 563 376 b 403 182 467 376 403 315 b 563 -14 403 47 467 -14 b 722 181 657 -14 722 47 b 563 376 722 315 657 376 z m 563 -8 b 472 182 485 -8 472 99 b 563 372 472 264 485 372 b 651 181 639 371 651 264 b 563 -8 651 99 639 -10 z "},"¶":{"ha":364,"x_min":0,"x_max":0,"o":"m 288 985 l 288 0 l 294 0 l 294 985 z m 69 796 b 233 606 69 672 142 610 l 233 0 l 240 0 l 240 985 b 69 796 146 985 69 922 z "},"§":{"ha":576,"x_min":0,"x_max":0,"o":"m 289 832 b 469 988 289 943 394 988 b 469 992 469 988 469 988 b 50 699 329 992 39 922 b 292 158 60 474 313 360 b 96 -1 282 54 200 -1 b 96 -7 96 -1 96 -1 b 97 -7 96 -7 96 -7 b 526 289 325 -7 517 82 b 289 832 538 494 289 610 z m 467 253 b 214 10 456 104 319 31 b 350 194 296 38 342 100 b 113 738 367 407 113 517 b 350 969 113 871 250 943 b 233 793 283 940 236 883 b 467 253 228 578 481 454 z "},">":{"ha":428,"x_min":0,"x_max":0,"o":"m 69 717 l 69 710 l 354 478 l 69 246 l 69 239 l 358 474 l 358 481 z "},"<":{"ha":428,"x_min":0,"x_max":0,"o":"m 358 717 l 69 481 l 69 474 l 358 239 l 358 246 l 74 478 l 358 710 z "},")":{"ha":526,"x_min":0,"x_max":0,"o":"m 69 1019 b 69 1013 69 1015 69 1013 b 372 417 265 1013 372 710 b 69 -178 372 125 265 -178 b 69 -185 69 -178 69 -182 b 457 417 342 -185 457 144 b 69 1019 457 689 342 1019 z "},"(":{"ha":525,"x_min":0,"x_max":0,"o":"m 456 1013 b 456 1019 456 1013 456 1015 b 69 417 183 1019 69 689 b 456 -185 69 144 183 -185 b 456 -178 456 -182 456 -178 b 153 417 261 -178 153 125 b 456 1013 153 710 261 1013 z "},"*":{"ha":503,"x_min":0,"x_max":0,"o":"m 431 1014 b 372 1019 425 1033 407 1038 b 254 960 338 1004 294 975 b 276 1092 257 1003 271 1054 b 251 1146 282 1131 272 1146 b 228 1092 232 1146 222 1131 b 249 960 233 1054 246 1003 b 131 1019 210 975 165 1003 b 72 1014 96 1038 78 1033 b 117 974 65 994 78 981 b 247 954 153 967 206 964 b 151 864 219 922 179 890 b 139 806 124 836 122 818 b 190 835 154 794 171 800 b 251 949 208 867 228 914 b 313 835 275 914 294 867 b 365 806 332 800 349 794 b 351 864 381 818 379 836 b 256 954 325 890 283 922 b 386 974 297 964 350 967 b 431 1014 425 981 438 994 z "},"&":{"ha":819,"x_min":0,"x_max":0,"o":"m 594 490 l 594 471 b 750 258 672 461 750 381 b 444 -7 750 121 638 -7 b 189 251 325 -7 197 71 b 392 507 179 417 269 507 b 474 507 404 507 447 507 l 474 517 b 426 517 451 517 450 517 b 232 760 301 517 232 639 b 407 979 232 881 299 979 b 535 625 629 979 679 708 b 535 604 535 615 535 615 b 414 985 682 667 679 968 l 419 1133 l 400 1133 l 406 985 b 390 985 401 985 396 985 b 118 767 265 985 118 935 b 343 517 117 642 206 547 b 57 256 167 513 54 421 b 426 -14 60 81 225 -14 b 429 -14 428 -14 429 -14 l 424 -165 l 443 -165 l 436 -14 b 763 265 656 -10 758 126 b 594 490 767 381 699 471 z "},"{":{"ha":314,"x_min":0,"x_max":0,"o":"m 244 1006 l 244 1008 b 74 760 126 985 53 913 b 181 424 93 619 215 549 b 135 386 178 410 164 386 b 83 393 107 386 83 393 l 83 367 b 135 374 83 367 107 374 b 181 336 164 374 178 350 b 74 0 215 211 93 140 b 244 -249 53 -151 126 -224 l 244 -246 b 121 -17 160 -218 97 -144 b 208 336 140 90 268 225 b 124 381 194 361 171 381 b 208 424 171 381 194 399 b 121 776 268 535 140 669 b 244 1006 97 904 160 979 z "},"}":{"ha":314,"x_min":0,"x_max":0,"o":"m 133 336 b 181 374 138 350 150 374 b 231 367 207 374 231 367 l 231 393 b 181 386 231 393 207 386 b 133 424 150 386 138 410 b 240 760 100 549 221 619 b 69 1008 261 913 188 985 l 69 1006 b 193 776 154 979 218 904 b 107 424 174 669 46 535 b 190 381 119 399 143 381 b 107 336 143 381 119 361 b 193 -17 46 225 174 90 b 69 -246 218 -144 154 -218 l 69 -249 b 240 0 188 -224 261 -151 b 133 336 221 140 100 211 z "},"¡":{"ha":274,"x_min":0,"x_max":0,"o":"m 136 340 b 204 407 174 340 204 369 b 136 474 204 444 174 474 b 69 407 99 474 69 444 b 136 340 69 369 99 340 z m 150 -44 b 140 215 136 94 140 215 l 136 215 l 133 215 b 124 -44 133 215 136 94 b 85 -429 110 -181 88 -408 b 136 -511 82 -478 89 -511 b 188 -429 183 -511 192 -478 b 150 -44 186 -408 164 -181 z "},"¿":{"ha":583,"x_min":0,"x_max":0,"o":"m 408 -135 b 408 -154 408 -144 408 -144 b 339 -519 560 -225 554 -519 b 193 -269 211 -519 174 -393 b 351 229 221 -101 365 14 b 344 229 351 229 349 229 b 60 -279 344 -24 86 -81 b 322 -525 32 -481 197 -525 b 408 -135 594 -525 567 -192 z m 342 340 b 408 407 379 340 408 369 b 342 474 408 444 379 474 b 275 407 304 474 275 444 b 342 340 275 369 304 340 z "},"~":{"ha":674,"x_min":0,"x_max":0,"o":"m 489 463 b 604 572 585 463 604 549 l 599 572 b 489 469 599 550 579 469 b 350 518 439 469 396 493 b 193 572 301 544 251 572 b 69 468 90 572 69 469 l 76 467 b 193 565 76 468 96 565 b 346 513 250 565 299 539 b 489 463 393 488 438 463 z "},"≈":{"ha":674,"x_min":0,"x_max":0,"o":"m 488 463 b 604 572 585 463 604 549 l 597 572 b 488 469 597 550 579 469 b 349 518 439 469 394 493 b 192 572 300 544 250 572 b 69 468 89 572 69 469 l 76 467 b 192 565 76 468 94 565 b 346 513 249 565 297 539 b 488 463 392 488 438 463 z m 488 308 b 604 417 585 308 604 394 l 597 417 b 488 314 597 396 579 314 b 349 364 439 314 394 339 b 192 418 300 390 250 418 b 69 314 89 418 69 314 l 76 313 b 192 411 76 313 94 411 b 346 358 249 411 297 385 b 488 308 392 332 438 308 z "},"^":{"ha":617,"x_min":0,"x_max":0,"o":"m 547 733 l 311 1022 l 304 1022 l 69 733 l 76 733 l 308 1018 l 540 733 z "},"›":{"ha":429,"x_min":0,"x_max":0,"o":"m 69 717 l 69 710 l 322 478 l 69 246 l 69 239 l 360 474 l 360 481 z "},"»":{"ha":572,"x_min":0,"x_max":0,"o":"m 69 717 l 69 710 l 321 478 l 69 246 l 69 239 l 358 474 l 358 481 z m 214 717 l 214 710 l 465 478 l 214 246 l 214 239 l 503 474 l 503 481 z "},"«":{"ha":572,"x_min":0,"x_max":0,"o":"m 214 481 l 214 474 l 503 239 l 503 246 l 251 478 l 503 710 l 503 717 z m 69 481 l 69 474 l 358 239 l 358 246 l 107 478 l 358 710 l 358 717 z "},"‹":{"ha":428,"x_min":0,"x_max":0,"o":"m 69 481 l 69 474 l 358 239 l 358 246 l 107 478 l 358 710 l 358 717 z "},"№":{"ha":1518,"x_min":0,"x_max":0,"o":"m 714 972 l 714 965 b 885 703 808 965 885 868 l 885 183 l 276 972 l 44 972 l 44 965 b 206 853 99 965 156 911 l 206 269 b 35 7 206 104 129 7 l 35 0 l 385 0 l 385 7 b 213 269 290 7 213 104 l 213 844 b 875 0 243 807 865 14 l 892 0 l 892 703 b 1064 965 892 868 969 965 l 1064 972 z m 1093 485 l 1093 478 l 1483 478 l 1483 485 z m 1289 985 b 1108 790 1193 986 1108 925 b 1288 596 1108 657 1193 596 b 1468 790 1383 596 1468 657 b 1289 985 1468 925 1383 985 z m 1288 600 b 1182 790 1211 600 1182 708 b 1289 981 1182 874 1211 981 b 1394 790 1365 981 1394 872 b 1288 600 1394 708 1365 600 z "},"—":{"ha":654,"x_min":0,"x_max":0,"o":"m 69 394 l 69 388 l 585 388 l 585 394 z "},"≤":{"ha":529,"x_min":0,"x_max":0,"o":"m 110 550 l 110 543 l 399 308 l 399 315 l 114 547 l 399 779 l 399 786 z m 69 186 l 69 179 l 460 179 l 460 186 z "},"≥":{"ha":529,"x_min":0,"x_max":0,"o":"m 131 786 l 131 779 l 415 547 l 131 315 l 131 308 l 419 543 l 419 550 z m 69 186 l 69 179 l 460 179 l 460 186 z "},"`":{"ha":269,"x_min":0,"x_max":0,"o":"m 146 944 l 69 944 l 193 790 l 200 790 z "},"´":{"ha":271,"x_min":0,"x_max":0,"o":"m 69 790 l 76 790 l 201 944 l 124 944 z "},"ˆ":{"ha":482,"x_min":0,"x_max":0,"o":"m 278 944 l 204 944 l 69 790 l 76 790 l 242 893 l 407 790 l 413 790 z "},"˜":{"ha":399,"x_min":0,"x_max":0,"o":"m 268 829 b 329 921 322 825 329 903 l 322 921 b 268 896 315 899 306 889 b 133 922 244 900 164 926 b 69 833 81 917 69 835 l 76 833 b 133 858 83 846 100 863 b 268 829 167 856 225 832 z "},"¨":{"ha":388,"x_min":0,"x_max":0,"o":"m 124 929 b 69 875 94 929 69 906 b 124 822 69 846 94 822 b 178 875 153 822 178 846 b 124 929 178 906 153 929 z m 265 929 b 211 875 235 929 211 906 b 265 822 211 846 235 822 b 318 875 294 822 318 846 b 265 929 318 906 294 929 z "},"¯":{"ha":381,"x_min":0,"x_max":0,"o":"m 69 871 l 69 864 l 311 864 l 311 871 z "},"˚":{"ha":300,"x_min":0,"x_max":0,"o":"m 150 774 b 231 854 194 774 231 810 b 150 935 231 899 194 935 b 69 854 106 935 69 899 b 150 774 69 810 106 774 z m 150 928 b 225 854 192 928 225 894 b 150 779 225 813 192 779 b 76 854 110 779 76 813 b 150 928 76 894 110 928 z "},"˘":{"ha":407,"x_min":0,"x_max":0,"o":"m 261 903 b 203 781 256 832 243 781 b 146 903 164 781 151 832 l 69 903 b 203 776 76 811 135 776 b 338 903 272 776 329 811 z "},"ˇ":{"ha":482,"x_min":0,"x_max":0,"o":"m 413 935 l 406 935 l 242 832 l 76 935 l 69 935 l 204 779 l 278 779 z "},"˝":{"ha":375,"x_min":0,"x_max":0,"o":"m 174 790 l 181 790 l 306 944 l 228 944 z m 69 790 l 76 790 l 201 944 l 124 944 z "},"¸":{"ha":308,"x_min":0,"x_max":0,"o":"m 118 -32 b 128 -7 121 -26 122 -24 l 124 -6 b 111 -36 117 -24 114 -31 b 178 -119 186 -33 185 -79 b 111 -174 172 -154 146 -185 b 69 -136 93 -167 79 -150 l 69 -151 b 118 -182 83 -165 99 -176 b 233 -131 169 -194 219 -175 b 118 -32 251 -72 217 -24 z "},"˛":{"ha":311,"x_min":0,"x_max":0,"o":"m 242 0 l 242 7 b 71 -114 150 -1 79 -50 b 232 -144 60 -192 154 -211 l 232 -137 b 118 -107 171 -168 122 -151 b 242 0 111 -40 171 -6 z "},"Ą":{"ha":989,"x_min":0,"x_max":0,"o":"m 982 0 l 982 7 b 819 194 894 7 857 106 b 521 972 783 283 521 972 l 507 972 b 215 222 507 972 263 343 b 7 7 161 85 94 24 l 7 0 l 303 0 l 303 7 b 242 272 208 7 199 156 b 286 388 246 283 263 326 l 618 388 b 715 135 663 274 701 172 b 675 7 753 33 743 7 l 675 0 l 940 0 b 810 -114 869 -17 817 -60 b 972 -144 800 -192 894 -211 l 972 -137 b 857 -107 911 -168 861 -151 b 982 0 850 -40 910 -6 z m 289 393 b 454 818 335 511 404 690 b 617 393 456 811 543 586 z "},"Ç":{"ha":1017,"x_min":0,"x_max":0,"o":"m 631 -10 b 947 110 785 0 872 50 l 947 132 b 631 -3 869 61 761 0 b 204 451 411 -8 228 182 b 543 975 181 722 332 957 b 754 928 613 982 688 964 b 924 672 839 879 924 763 l 931 672 l 931 1022 l 924 1022 b 822 949 924 929 893 932 b 543 982 742 968 631 990 b 65 440 254 957 39 743 b 603 -11 92 146 326 -17 b 593 -36 597 -25 596 -31 b 660 -119 668 -33 667 -79 b 593 -174 654 -154 628 -185 b 551 -136 575 -167 561 -150 l 551 -151 b 600 -182 565 -165 579 -176 b 715 -131 651 -194 701 -175 b 600 -32 733 -72 697 -24 b 608 -11 601 -28 603 -24 b 631 -10 615 -11 624 -10 z "},"Ę":{"ha":835,"x_min":0,"x_max":0,"o":"m 743 0 l 800 236 l 793 236 b 524 7 753 144 664 7 l 365 7 b 278 160 286 7 279 57 l 278 481 l 379 481 b 575 310 488 481 575 404 l 581 310 l 581 660 l 575 660 b 379 488 575 565 488 488 l 278 488 l 278 813 b 365 965 279 915 286 965 l 481 965 b 739 781 619 965 699 871 l 746 781 l 699 972 l 69 972 l 69 965 b 157 813 149 965 157 915 l 157 160 b 69 7 157 57 149 7 l 69 0 l 701 0 b 571 -114 629 -17 578 -60 b 732 -144 561 -192 656 -211 l 732 -137 b 618 -107 672 -168 622 -151 b 743 0 611 -40 671 -6 z "},"Į":{"ha":435,"x_min":0,"x_max":0,"o":"m 365 965 l 365 972 l 69 972 l 69 965 b 157 813 149 965 156 915 l 157 160 b 69 7 156 57 149 7 l 69 0 l 324 0 b 193 -114 253 -17 200 -60 b 356 -144 183 -192 278 -211 l 356 -137 b 240 -107 294 -168 244 -151 b 365 0 233 -40 293 -6 l 365 7 b 278 160 286 7 278 57 l 278 813 b 365 965 278 915 286 965 z "},"Ş":{"ha":788,"x_min":0,"x_max":0,"o":"m 390 -12 b 718 242 578 -12 718 71 b 200 790 718 525 200 556 b 386 979 200 925 296 979 b 661 672 550 979 661 842 l 668 672 l 668 1022 l 661 1022 b 585 946 661 946 635 932 b 382 985 524 961 460 985 b 93 743 235 985 93 908 b 601 189 93 451 601 435 b 389 -7 601 74 517 -7 b 76 300 171 -7 76 219 l 69 300 l 69 -50 l 76 -50 b 194 14 76 44 150 24 b 382 -12 236 4 308 -12 b 374 -36 378 -26 375 -31 b 440 -119 449 -33 447 -79 b 374 -174 435 -154 408 -185 b 332 -136 356 -167 342 -150 l 332 -151 b 381 -182 346 -165 360 -176 b 496 -131 432 -194 482 -175 b 381 -32 514 -72 478 -24 b 388 -12 382 -28 383 -24 b 390 -12 389 -12 389 -12 z "},"Ų":{"ha":981,"x_min":0,"x_max":0,"o":"m 729 972 l 729 965 b 817 813 808 965 817 915 l 817 303 b 507 -4 817 118 722 -4 b 279 286 376 -4 279 108 l 279 813 b 365 965 279 915 288 965 l 365 972 l 69 972 l 69 965 b 157 813 149 965 157 915 l 157 303 b 507 -14 157 61 356 -14 b 531 -12 515 -14 524 -12 b 440 -114 481 -35 446 -71 b 601 -144 429 -192 524 -211 l 601 -137 b 488 -107 540 -168 492 -151 b 558 -11 482 -58 513 -26 b 824 303 697 4 824 88 l 824 813 b 911 965 824 915 832 965 l 911 972 z "},"ą":{"ha":697,"x_min":0,"x_max":0,"o":"m 618 -12 b 669 4 639 -11 656 -4 l 669 11 b 622 -3 663 7 639 -3 b 554 146 558 -3 554 51 b 554 494 554 146 554 357 b 326 699 554 633 457 699 b 104 565 178 699 128 617 b 135 457 81 515 99 465 b 197 518 174 449 207 482 b 168 619 188 558 147 576 b 322 694 189 667 232 694 b 440 489 424 694 440 606 b 440 364 440 453 440 408 b 367 331 419 351 396 340 b 64 132 271 299 74 279 b 306 -1 54 -7 201 -33 b 442 119 367 18 410 63 b 594 -12 453 11 519 -11 b 504 -114 544 -35 510 -71 b 665 -144 494 -192 589 -211 l 665 -137 b 551 -107 606 -168 556 -151 b 618 -12 547 -60 575 -29 z m 329 14 b 160 164 243 -28 144 17 b 374 326 174 289 306 301 b 440 358 401 338 424 347 b 440 151 440 256 440 151 b 442 126 440 143 440 135 b 329 14 415 79 379 38 z "},"ç":{"ha":694,"x_min":0,"x_max":0,"o":"m 439 -7 b 167 322 290 -8 175 124 b 374 693 157 522 231 682 b 561 626 454 699 532 668 b 543 529 592 582 553 568 b 604 467 533 492 567 458 b 635 576 642 475 658 525 b 374 699 611 626 511 714 b 50 319 181 679 40 551 b 414 -12 60 94 228 -15 b 404 -36 408 -26 407 -31 b 471 -119 479 -33 478 -79 b 404 -174 465 -154 439 -185 b 363 -136 386 -167 372 -150 l 363 -151 b 411 -182 376 -165 392 -176 b 526 -131 463 -194 513 -175 b 411 -32 544 -72 510 -24 b 418 -12 413 -28 414 -24 b 439 -12 425 -12 432 -12 b 632 68 524 -6 588 35 l 632 85 b 439 -7 594 44 511 -6 z "},"ę":{"ha":751,"x_min":0,"x_max":0,"o":"m 50 318 b 50 318 50 321 50 315 z m 703 463 b 388 699 676 621 551 711 b 50 318 194 685 36 533 b 431 -12 67 97 243 -17 b 339 -114 379 -35 344 -71 b 501 -144 329 -192 424 -211 l 501 -137 b 386 -107 440 -168 390 -151 b 454 -12 382 -60 411 -28 b 671 75 558 -4 621 32 l 671 90 b 453 -7 618 39 542 -6 b 174 322 304 -11 192 115 b 179 463 169 371 172 419 z m 388 693 b 585 468 529 690 574 582 l 181 468 b 388 693 206 599 281 694 z "},"ş":{"ha":629,"x_min":0,"x_max":0,"o":"m 567 172 b 194 567 567 374 194 397 b 328 693 194 633 240 693 b 456 646 406 693 431 674 b 446 542 489 610 449 582 b 517 490 442 504 481 475 b 529 603 551 504 561 557 b 328 700 503 642 451 700 b 96 535 186 700 96 643 b 463 122 96 296 463 290 b 311 -6 463 53 401 -6 b 153 51 224 -6 179 21 b 167 160 117 90 163 119 b 94 211 169 197 132 226 b 82 99 60 197 51 144 b 311 -12 108 60 189 -14 b 303 -36 307 -26 304 -31 b 369 -119 376 -33 375 -79 b 301 -174 363 -154 336 -185 b 260 -136 283 -167 269 -150 l 260 -151 b 310 -182 274 -165 289 -176 b 424 -131 360 -194 410 -175 b 310 -32 442 -72 407 -24 b 317 -12 311 -28 313 -24 b 567 172 478 -11 567 56 z "},"į":{"ha":428,"x_min":0,"x_max":0,"o":"m 272 160 l 272 469 b 294 679 272 610 282 672 l 294 686 l 69 686 l 69 679 b 157 528 149 679 157 629 l 157 160 b 69 7 157 58 149 7 l 69 0 l 319 0 b 188 -114 247 -17 194 -60 b 349 -144 178 -192 272 -211 l 349 -137 b 235 -107 289 -168 239 -151 b 360 0 228 -40 288 -6 l 360 7 b 272 160 281 7 272 58 z m 214 832 b 289 908 256 832 289 865 b 214 986 289 951 256 986 b 140 908 174 986 140 951 b 214 832 140 865 174 832 z "},"ų":{"ha":865,"x_min":0,"x_max":0,"o":"m 708 160 l 708 469 b 732 679 708 610 718 672 l 732 686 l 507 686 l 507 679 b 594 528 586 679 593 629 l 594 215 b 593 131 594 183 593 156 b 415 -3 561 46 475 -3 b 264 203 281 -3 264 108 l 264 469 b 288 679 264 610 275 672 l 288 686 l 63 686 l 63 679 b 150 528 142 679 150 629 l 150 210 b 389 -12 150 44 251 -12 b 592 114 488 -12 557 44 b 571 7 588 44 581 13 l 571 0 l 756 0 b 624 -114 683 -17 632 -60 b 786 -144 614 -192 708 -211 l 786 -137 b 671 -107 725 -168 676 -151 b 796 0 665 -40 725 -6 l 796 7 b 708 160 717 7 708 58 z "},"·":{"ha":247,"x_min":0,"x_max":0,"o":"m 124 929 b 69 875 94 929 69 906 b 124 822 69 846 94 822 b 178 875 153 822 178 846 b 124 929 178 906 153 929 z "},"":{"ha":275,"x_min":0,"x_max":0,"o":"m 204 329 b 143 399 203 367 183 396 b 71 338 107 403 74 375 b 132 265 67 301 94 269 b 197 292 154 263 185 271 b 94 171 199 258 188 164 l 94 165 b 204 329 197 161 207 258 z "},"˙":{"ha":247,"x_min":0,"x_max":0,"o":"m 124 929 b 69 875 94 929 69 906 b 124 822 69 846 94 822 b 178 875 153 822 178 846 b 124 929 178 906 153 929 z "},"Æ":{"ha":1367,"x_min":0,"x_max":0,"o":"m 1325 236 b 1056 7 1285 144 1196 7 l 899 7 b 811 160 819 7 811 57 l 811 481 l 911 481 b 1107 310 1019 481 1107 404 l 1114 310 l 1114 660 l 1107 660 b 911 488 1107 565 1019 488 l 811 488 l 811 813 b 899 965 811 915 819 965 l 1013 965 b 1271 781 1151 965 1231 871 l 1278 781 l 1231 972 l 689 972 b 256 222 689 972 329 347 b 7 7 181 94 96 24 l 7 0 l 303 0 l 303 7 b 293 272 210 7 228 161 b 358 388 299 282 324 326 l 689 388 l 689 160 b 601 7 689 57 681 7 l 601 0 l 1275 0 l 1332 236 z m 363 393 b 689 961 467 574 651 896 l 689 393 z "},"Đ":{"ha":1044,"x_min":0,"x_max":0,"o":"m 533 972 l 69 972 l 69 965 b 157 813 149 965 157 915 l 157 488 l 69 488 l 69 481 l 157 481 l 157 160 b 69 7 157 57 149 7 l 69 0 l 533 0 b 982 486 833 0 982 215 b 533 972 982 757 833 972 z m 472 7 b 365 7 433 7 397 7 b 278 160 286 7 279 57 l 278 481 l 547 481 l 547 488 l 278 488 l 278 813 b 365 965 279 915 286 965 l 472 965 b 843 486 651 965 843 858 b 472 7 843 114 651 7 z "},"Ø":{"ha":1172,"x_min":0,"x_max":0,"o":"m 1107 532 b 721 971 1086 771 926 928 l 740 1046 l 733 1046 l 714 972 b 542 982 660 983 601 988 b 65 439 254 956 38 743 b 451 0 86 201 244 44 l 431 -74 l 438 -74 l 458 -1 b 631 -10 513 -12 571 -15 b 1107 532 918 15 1133 229 z m 203 451 b 542 975 179 722 331 956 b 707 944 600 981 656 969 l 460 31 b 203 451 324 97 221 257 z m 629 -3 b 465 28 572 -8 517 3 l 713 942 b 968 521 847 874 951 714 b 629 -3 993 250 842 15 z "},"Þ":{"ha":794,"x_min":0,"x_max":0,"o":"m 426 765 l 278 765 l 278 813 b 365 965 278 915 286 965 l 365 972 b 69 972 365 972 349 972 l 69 965 b 157 813 149 965 156 915 l 157 160 b 69 7 156 57 149 7 l 69 0 b 365 0 226 0 296 0 l 365 7 b 278 160 286 7 278 57 l 278 207 l 426 207 b 746 486 590 207 746 304 b 426 765 746 668 590 765 z m 410 214 l 278 214 l 278 758 l 410 758 b 611 486 503 758 611 671 b 410 214 611 301 503 214 z "},"Ħ":{"ha":1090,"x_min":0,"x_max":0,"o":"m 933 646 l 1036 646 l 1036 653 l 933 653 l 933 813 b 1021 965 935 915 942 965 l 1021 972 l 725 972 l 725 965 b 813 813 804 965 813 915 l 813 653 l 278 653 l 278 813 b 365 965 279 915 286 965 l 365 972 l 69 972 l 69 965 b 157 813 149 965 157 915 l 157 653 l 54 653 l 54 646 l 157 646 l 157 160 b 69 7 157 57 149 7 l 69 0 l 365 0 l 365 7 b 278 160 286 7 279 57 l 278 481 l 813 481 l 813 160 b 725 7 813 57 804 7 l 725 0 l 1021 0 l 1021 7 b 933 160 942 7 935 57 z m 278 488 l 278 646 l 813 646 l 813 488 z "},"Ł":{"ha":821,"x_min":0,"x_max":0,"o":"m 793 236 b 524 7 753 144 663 7 l 365 7 b 278 160 286 7 278 57 l 278 310 l 417 394 l 413 400 l 278 318 l 278 813 b 365 965 278 915 286 965 l 365 972 l 69 972 l 69 965 b 157 813 149 965 156 915 l 157 244 l 69 190 l 74 186 l 157 236 l 157 160 b 69 7 156 57 149 7 l 69 0 l 742 0 l 799 236 z "},"Œ":{"ha":1353,"x_min":0,"x_max":0,"o":"m 1311 236 b 1042 7 1271 144 1182 7 l 883 7 b 796 160 804 7 797 57 l 796 481 l 897 481 b 1092 310 1004 481 1092 404 l 1099 310 l 1099 660 l 1092 660 b 897 488 1092 565 1004 488 l 796 488 l 796 813 b 883 965 797 915 804 965 l 999 965 b 1257 781 1138 965 1217 871 l 1264 781 l 1217 972 l 511 972 b 63 486 213 972 63 757 b 511 0 63 215 211 0 l 1261 0 l 1318 236 z m 572 7 b 201 486 393 7 201 114 b 572 965 201 858 393 965 l 588 965 b 675 813 667 965 675 915 l 675 160 b 588 7 675 57 667 7 b 572 7 583 7 578 7 z "},"Ŧ":{"ha":951,"x_min":0,"x_max":0,"o":"m 865 972 l 85 972 l 56 764 l 61 764 b 304 965 103 854 164 965 l 328 965 b 415 813 407 965 414 915 l 415 488 l 236 488 l 236 481 l 415 481 l 415 160 b 328 7 414 57 407 7 l 328 0 l 624 0 l 624 7 b 536 160 544 7 536 57 l 536 481 l 714 481 l 714 488 l 536 488 l 536 813 b 624 965 536 915 544 965 l 647 965 b 889 764 786 965 849 854 l 896 764 z "},"Ŋ":{"ha":1099,"x_min":0,"x_max":0,"o":"m 714 972 l 714 965 b 886 703 808 965 886 868 l 886 183 l 276 972 l 44 972 l 44 965 b 207 853 99 965 157 913 l 207 269 b 35 7 207 104 129 7 l 35 0 l 385 0 l 385 7 b 213 269 290 7 213 104 l 213 844 b 876 0 244 807 865 14 l 889 0 b 856 -81 885 -35 872 -65 b 771 -75 824 -111 806 -78 b 726 -137 740 -71 718 -101 b 824 -147 735 -172 785 -178 b 893 10 849 -126 893 -54 b 893 703 893 74 893 703 b 1064 965 893 868 969 965 l 1064 972 z "},"ß":{"ha":910,"x_min":0,"x_max":0,"o":"m 843 222 b 521 733 765 444 372 438 b 440 986 568 828 571 951 b 157 726 293 1024 157 969 l 157 160 b 69 7 157 57 149 7 l 69 0 l 367 0 l 367 7 b 279 160 288 7 279 57 l 279 743 b 440 976 279 922 313 1007 b 511 733 544 951 571 847 b 713 201 344 411 622 418 b 618 -7 767 74 706 -7 b 403 300 490 -7 403 219 l 396 300 b 396 -50 396 124 396 38 l 403 -50 b 521 14 403 44 481 31 b 646 -12 561 -3 608 -12 b 843 222 807 -12 883 108 z "},"æ":{"ha":1146,"x_min":0,"x_max":0,"o":"m 1097 463 b 782 699 1071 621 946 711 b 536 588 686 692 599 653 b 326 699 503 663 424 699 b 106 565 179 699 129 615 b 136 456 82 514 99 464 b 199 518 175 447 207 482 b 168 618 189 557 149 575 b 324 693 190 665 233 693 b 444 488 424 693 444 606 b 444 365 444 444 444 399 b 367 329 424 351 399 340 b 64 131 272 297 75 279 b 307 -1 56 -7 203 -33 b 474 188 390 24 442 101 b 847 -12 539 42 693 -24 b 1065 74 953 -6 1015 31 l 1065 89 b 847 -7 1013 39 936 -4 b 568 321 699 -10 586 114 b 574 463 564 369 567 418 z m 782 693 b 979 468 924 692 968 583 l 575 468 b 782 693 600 599 675 694 z m 331 14 b 161 163 244 -28 146 17 b 374 326 175 289 307 300 b 443 358 404 338 426 349 b 444 317 443 338 444 322 b 472 193 447 271 457 229 b 331 14 446 118 403 49 z "},"đ":{"ha":829,"x_min":0,"x_max":0,"o":"m 672 821 l 760 821 l 760 828 l 672 828 b 696 1015 674 953 683 1010 l 696 1022 l 471 1022 l 471 1015 b 558 863 550 1015 557 965 l 558 828 l 282 828 l 282 821 l 558 821 l 558 696 b 319 682 481 699 414 706 b 57 343 172 646 64 535 b 343 -14 50 128 151 -14 b 558 197 447 -14 531 47 b 535 7 557 71 547 13 l 535 0 l 760 0 l 760 7 b 672 158 681 7 674 57 l 672 807 b 672 821 672 813 672 817 z m 558 242 b 542 151 556 211 550 182 b 378 0 518 71 461 0 b 171 343 235 0 161 147 b 353 679 181 532 251 643 b 558 689 400 696 501 696 z "},"ø":{"ha":821,"x_min":0,"x_max":0,"o":"m 768 374 b 508 690 764 542 653 657 l 528 767 l 522 767 l 501 692 b 393 699 467 699 431 701 b 54 310 186 685 42 522 b 314 -1 64 146 174 35 l 293 -81 l 300 -81 l 321 -4 b 456 -12 364 -14 410 -17 b 768 374 653 6 772 181 z m 175 318 b 393 693 160 531 242 681 b 496 669 431 696 465 688 l 319 19 b 175 318 240 67 186 172 z m 456 -7 b 326 15 408 -12 364 -6 l 501 667 b 646 368 585 613 639 492 b 456 -7 658 182 585 11 z "},"œ":{"ha":1358,"x_min":0,"x_max":0,"o":"m 1308 461 b 993 699 1282 619 1158 711 b 719 551 881 690 781 636 b 397 699 651 651 529 708 b 58 310 190 685 46 522 b 460 -12 71 94 258 -32 b 711 142 571 -1 657 58 b 1058 -14 785 29 921 -24 b 1276 74 1164 -7 1226 31 l 1276 89 b 1058 -7 1224 38 1147 -6 b 779 319 910 -11 797 114 b 779 321 779 321 779 321 b 785 461 775 369 778 417 z m 993 693 b 1190 467 1135 690 1179 581 l 786 467 b 993 693 811 597 886 694 z m 460 -7 b 179 318 308 -26 196 100 b 397 693 164 531 246 681 b 650 368 540 704 639 540 b 460 -7 663 182 589 11 z "},"ł":{"ha":429,"x_min":0,"x_max":0,"o":"m 272 160 l 272 318 l 385 394 l 379 399 l 272 326 l 272 807 b 296 1015 272 947 282 1008 l 296 1022 l 69 1022 l 69 1015 b 157 864 149 1015 157 965 l 157 250 l 69 190 l 75 186 l 157 242 l 157 160 b 69 7 157 57 149 7 l 69 0 l 360 0 l 360 7 b 272 160 281 7 272 57 z "},"ħ":{"ha":872,"x_min":0,"x_max":0,"o":"m 715 160 l 715 478 b 476 700 715 643 614 700 b 271 568 375 700 304 639 l 271 807 b 271 824 271 813 271 818 l 547 824 l 547 831 l 271 831 b 294 1015 272 954 282 1010 l 294 1022 l 69 1022 l 69 1015 b 157 864 149 1015 156 965 l 157 831 l 69 831 l 69 824 l 157 824 l 157 160 b 69 7 156 57 149 7 l 69 0 l 358 0 l 358 7 b 271 160 279 7 271 57 l 271 551 b 450 689 301 639 389 689 b 600 485 583 689 600 578 l 600 160 b 513 7 600 57 592 7 l 513 0 l 803 0 l 803 7 b 715 160 724 7 715 57 z "},"ŧ":{"ha":440,"x_min":0,"x_max":0,"o":"m 353 -3 b 242 178 263 -3 242 85 l 242 582 l 351 582 l 351 589 l 242 589 l 242 679 l 386 679 l 386 686 l 242 686 l 242 840 l 235 840 b 126 736 218 764 181 743 b 126 686 126 731 126 686 b 63 686 126 686 86 686 l 63 679 l 126 679 b 126 589 126 657 126 625 l 63 589 l 63 582 l 126 582 b 126 185 126 425 126 185 b 332 -14 126 21 238 -14 b 406 4 365 -14 389 -7 l 406 11 b 353 -3 400 7 376 -3 z "},"þ":{"ha":835,"x_min":0,"x_max":0,"o":"m 474 563 b 272 432 372 563 306 503 l 272 471 b 294 679 272 610 282 672 l 294 686 l 69 686 l 69 679 b 157 526 149 679 157 628 l 157 -114 b 69 -267 157 -215 149 -267 l 69 -274 l 358 -274 l 358 -267 b 272 -114 281 -267 272 -215 l 272 -19 b 474 -150 306 -90 372 -150 b 779 206 625 -150 779 -39 b 474 563 779 451 625 563 z m 447 -140 b 272 -3 386 -140 303 -90 l 272 415 b 447 553 303 503 386 553 b 665 206 582 553 665 435 b 447 -140 665 -22 582 -140 z "},"ŋ":{"ha":833,"x_min":0,"x_max":0,"o":"m 478 700 b 274 574 379 700 310 642 b 296 679 278 642 286 675 l 296 686 l 69 686 l 69 679 b 157 526 149 679 157 629 l 157 160 b 69 7 157 57 149 7 l 69 0 l 360 0 l 360 7 b 272 160 281 7 272 57 l 272 471 b 274 556 272 503 272 532 b 450 689 306 640 390 689 b 601 485 585 689 601 578 l 601 160 b 514 7 601 57 593 7 l 514 0 l 713 0 b 679 -81 708 -35 694 -65 b 594 -75 646 -111 628 -78 b 550 -137 564 -72 540 -101 b 646 -147 558 -172 608 -178 b 715 10 672 -128 715 -54 b 715 478 715 74 715 478 b 478 700 715 643 615 700 z "},"ð":{"ha":821,"x_min":0,"x_max":0,"o":"m 514 864 l 592 919 l 588 924 l 508 868 b 308 972 442 915 371 947 b 308 965 308 969 308 969 b 456 831 368 917 417 874 l 356 760 l 360 754 l 461 826 b 567 675 508 772 542 724 b 393 703 515 697 457 707 b 58 313 186 688 40 522 b 457 -10 79 93 250 -26 b 765 376 651 7 765 161 b 514 864 765 615 649 767 z m 457 -4 b 176 322 306 -21 197 103 b 394 697 157 542 242 685 b 647 371 540 710 631 547 b 457 -4 664 194 593 10 z "},"Ð":{"ha":1044,"x_min":0,"x_max":0,"o":"m 533 972 l 69 972 l 69 965 b 157 813 149 965 157 915 l 157 488 l 69 488 l 69 481 l 157 481 l 157 160 b 69 7 157 57 149 7 l 69 0 l 533 0 b 982 486 833 0 982 215 b 533 972 982 757 833 972 z m 472 7 b 365 7 433 7 397 7 b 278 160 286 7 279 57 l 278 481 l 547 481 l 547 488 l 278 488 l 278 813 b 365 965 279 915 286 965 l 472 965 b 843 486 651 965 843 858 b 472 7 843 114 651 7 z "},"ſ":{"ha":411,"x_min":0,"x_max":0,"o":"m 467 1006 b 363 1026 456 1011 417 1026 b 157 828 268 1026 157 993 b 157 686 157 828 157 768 l 69 686 l 69 679 l 157 679 b 157 160 157 649 157 619 b 69 7 157 58 149 7 l 69 0 l 360 0 l 360 7 b 272 160 281 7 272 58 l 272 835 b 383 1019 272 929 292 1019 b 426 915 436 1019 408 951 b 514 908 443 882 493 875 b 467 1006 532 939 521 983 z "},"‰":{"ha":1158,"x_min":0,"x_max":0,"o":"m 553 985 l 204 0 l 210 0 l 560 985 z m 215 985 b 56 790 121 986 56 925 b 215 596 56 657 119 596 b 375 790 311 596 375 657 b 215 985 375 925 311 985 z m 215 600 b 126 790 139 600 126 708 b 215 981 126 874 139 981 b 306 790 293 981 306 872 b 215 600 306 708 293 600 z m 563 376 b 403 182 467 376 403 315 b 563 -14 403 47 467 -14 b 722 181 657 -14 722 47 b 563 376 722 315 657 376 z m 563 -8 b 472 182 485 -8 472 99 b 563 372 472 264 485 372 b 651 181 639 371 651 264 b 563 -8 651 99 639 -10 z m 943 376 b 783 182 847 376 783 315 b 943 -14 783 47 847 -14 b 1103 181 1038 -14 1103 47 b 943 376 1103 315 1038 376 z m 943 -8 b 853 182 865 -8 853 99 b 943 372 853 264 865 372 b 1032 181 1019 371 1032 264 b 943 -8 1032 99 1019 -10 z "},"…":{"ha":693,"x_min":0,"x_max":0,"o":"m 136 122 b 69 54 99 122 69 92 b 136 -12 69 17 99 -12 b 204 54 174 -12 204 17 b 136 122 204 92 174 122 z m 344 122 b 278 54 307 122 278 92 b 344 -12 278 17 307 -12 b 413 54 382 -12 413 17 b 344 122 413 92 382 122 z m 556 122 b 489 54 518 122 489 92 b 556 -12 489 17 518 -12 b 624 54 593 -12 624 17 b 556 122 624 92 593 122 z "},"Á":{"ha":989,"x_min":0,"x_max":0,"o":"m 821 193 b 521 972 783 282 521 972 l 508 972 b 215 222 508 972 263 343 b 7 7 161 83 96 22 l 7 0 l 303 0 l 303 7 b 242 272 210 7 199 154 b 286 386 246 283 263 326 l 619 386 b 715 135 663 274 701 172 b 676 7 753 33 743 7 l 676 0 l 982 0 l 982 7 b 821 193 896 7 857 104 z m 289 393 b 454 817 335 511 404 689 b 617 393 457 810 543 586 z m 525 1068 l 532 1068 l 657 1222 l 579 1222 z "},"Ă":{"ha":989,"x_min":0,"x_max":0,"o":"m 821 193 b 521 972 783 282 521 972 l 508 972 b 215 222 508 972 263 343 b 7 7 161 83 96 22 l 7 0 l 303 0 l 303 7 b 242 272 210 7 199 154 b 286 386 246 283 263 326 l 619 386 b 715 135 663 274 701 172 b 676 7 753 33 743 7 l 676 0 l 982 0 l 982 7 b 821 193 896 7 857 104 z m 289 393 b 454 817 335 511 404 689 b 617 393 457 810 543 586 z m 572 1181 b 514 1058 567 1110 554 1058 b 457 1181 475 1058 463 1110 l 381 1181 b 514 1054 388 1089 446 1054 b 649 1181 583 1054 640 1089 z "},"Â":{"ha":989,"x_min":0,"x_max":0,"o":"m 821 193 b 521 972 783 282 521 972 l 508 972 b 215 222 508 972 263 343 b 7 7 161 83 96 22 l 7 0 l 303 0 l 303 7 b 242 272 210 7 199 154 b 286 386 246 283 263 326 l 619 386 b 715 135 663 274 701 172 b 676 7 753 33 743 7 l 676 0 l 982 0 l 982 7 b 821 193 896 7 857 104 z m 289 393 b 454 817 335 511 404 689 b 617 393 457 810 543 586 z m 551 1222 l 478 1222 l 343 1068 l 350 1068 l 515 1171 l 681 1068 l 686 1068 z "},"À":{"ha":989,"x_min":0,"x_max":0,"o":"m 821 193 b 521 972 783 282 521 972 l 508 972 b 215 222 508 972 263 343 b 7 7 161 83 96 22 l 7 0 l 303 0 l 303 7 b 242 272 210 7 199 154 b 286 386 246 283 263 326 l 619 386 b 715 135 663 274 701 172 b 676 7 753 33 743 7 l 676 0 l 982 0 l 982 7 b 821 193 896 7 857 104 z m 289 393 b 454 817 335 511 404 689 b 617 393 457 810 543 586 z m 436 1222 l 360 1222 l 483 1068 l 490 1068 z "},"Ä":{"ha":989,"x_min":0,"x_max":0,"o":"m 821 193 b 521 972 783 282 521 972 l 508 972 b 215 222 508 972 263 343 b 7 7 161 83 96 22 l 7 0 l 303 0 l 303 7 b 242 272 210 7 199 154 b 286 386 246 283 263 326 l 619 386 b 715 135 663 274 701 172 b 676 7 753 33 743 7 l 676 0 l 982 0 l 982 7 b 821 193 896 7 857 104 z m 289 393 b 454 817 335 511 404 689 b 617 393 457 810 543 586 z m 446 1207 b 392 1153 417 1207 392 1183 b 446 1100 392 1124 417 1100 b 500 1153 475 1100 500 1124 b 446 1207 500 1183 475 1207 z m 588 1207 b 533 1153 557 1207 533 1183 b 588 1100 533 1124 557 1100 b 640 1153 617 1100 640 1124 b 588 1207 640 1183 617 1207 z "},"Ā":{"ha":989,"x_min":0,"x_max":0,"o":"m 821 193 b 521 972 783 282 521 972 l 508 972 b 215 222 508 972 263 343 b 7 7 161 83 96 22 l 7 0 l 303 0 l 303 7 b 242 272 210 7 199 154 b 286 386 246 283 263 326 l 619 386 b 715 135 663 274 701 172 b 676 7 753 33 743 7 l 676 0 l 982 0 l 982 7 b 821 193 896 7 857 104 z m 289 393 b 454 817 335 511 404 689 b 617 393 457 810 543 586 z m 394 1149 l 394 1142 l 636 1142 l 636 1149 z "},"Å":{"ha":989,"x_min":0,"x_max":0,"o":"m 821 193 b 521 972 783 282 521 972 l 508 972 b 215 222 508 972 263 343 b 7 7 161 83 96 22 l 7 0 l 303 0 l 303 7 b 242 272 210 7 199 154 b 286 386 246 283 263 326 l 619 386 b 715 135 663 274 701 172 b 676 7 753 33 743 7 l 676 0 l 982 0 l 982 7 b 821 193 896 7 857 104 z m 289 393 b 454 817 335 511 404 689 b 617 393 457 810 543 586 z m 515 1051 b 596 1132 560 1051 596 1088 b 515 1213 596 1176 560 1213 b 435 1132 471 1213 435 1176 b 515 1051 435 1088 471 1051 z m 515 1206 b 590 1132 557 1206 590 1172 b 515 1057 590 1090 557 1057 b 442 1132 475 1057 442 1090 b 515 1206 442 1172 475 1206 z "},"Ã":{"ha":989,"x_min":0,"x_max":0,"o":"m 821 193 b 521 972 783 282 521 972 l 508 972 b 215 222 508 972 263 343 b 7 7 161 83 96 22 l 7 0 l 303 0 l 303 7 b 242 272 210 7 199 154 b 286 386 246 283 263 326 l 619 386 b 715 135 663 274 701 172 b 676 7 753 33 743 7 l 676 0 l 982 0 l 982 7 b 821 193 896 7 857 104 z m 289 393 b 454 817 335 511 404 689 b 617 393 457 810 543 586 z m 583 1107 b 644 1199 638 1103 644 1181 l 638 1199 b 583 1174 631 1176 621 1167 b 449 1200 560 1178 479 1204 b 385 1111 396 1194 385 1113 l 392 1111 b 449 1136 399 1124 415 1140 b 583 1107 482 1133 540 1110 z "},"Ǽ":{"ha":1367,"x_min":0,"x_max":0,"o":"m 1325 236 b 1056 7 1285 144 1196 7 l 899 7 b 811 160 819 7 811 57 l 811 481 l 911 481 b 1107 310 1019 481 1107 404 l 1114 310 l 1114 660 l 1107 660 b 911 488 1107 565 1019 488 l 811 488 l 811 813 b 899 965 811 915 819 965 l 1013 965 b 1271 781 1151 965 1231 871 l 1278 781 l 1231 972 l 689 972 b 256 222 689 972 329 347 b 7 7 181 94 96 24 l 7 0 l 303 0 l 303 7 b 293 272 210 7 228 161 b 358 388 299 282 324 326 l 689 388 l 689 160 b 601 7 689 57 681 7 l 601 0 l 1275 0 l 1332 236 z m 363 393 b 689 961 467 574 651 896 l 689 393 z m 725 1068 l 732 1068 l 857 1222 l 779 1222 z "},"Ć":{"ha":1015,"x_min":0,"x_max":0,"o":"m 629 -3 b 203 451 411 -8 226 182 b 542 975 179 722 331 956 b 754 928 611 981 686 964 b 922 672 838 879 922 763 l 929 672 l 929 1022 l 922 1022 b 821 949 922 928 892 932 b 542 982 740 968 629 989 b 65 439 254 956 38 743 b 631 -10 92 136 342 -28 b 946 110 785 0 871 50 l 946 131 b 629 -3 868 60 761 0 z m 563 1068 l 569 1068 l 694 1222 l 617 1222 z "},"Č":{"ha":1015,"x_min":0,"x_max":0,"o":"m 629 -3 b 203 451 411 -8 226 182 b 542 975 179 722 331 956 b 754 928 611 981 686 964 b 922 672 838 879 922 763 l 929 672 l 929 1022 l 922 1022 b 821 949 922 928 892 932 b 542 982 740 968 629 989 b 65 439 254 956 38 743 b 631 -10 92 136 342 -28 b 946 110 785 0 871 50 l 946 131 b 629 -3 868 60 761 0 z m 744 1213 l 738 1213 l 574 1110 l 408 1213 l 401 1213 l 536 1057 l 610 1057 z "},"Ĉ":{"ha":1015,"x_min":0,"x_max":0,"o":"m 629 -3 b 203 451 411 -8 226 182 b 542 975 179 722 331 956 b 754 928 611 981 686 964 b 922 672 838 879 922 763 l 929 672 l 929 1022 l 922 1022 b 821 949 922 928 892 932 b 542 982 740 968 629 989 b 65 439 254 956 38 743 b 631 -10 92 136 342 -28 b 946 110 785 0 871 50 l 946 131 b 629 -3 868 60 761 0 z m 611 1222 l 538 1222 l 403 1068 l 410 1068 l 575 1171 l 740 1068 l 746 1068 z "},"Ċ":{"ha":1015,"x_min":0,"x_max":0,"o":"m 629 -3 b 203 451 411 -8 226 182 b 542 975 179 722 331 956 b 754 928 611 981 686 964 b 922 672 838 879 922 763 l 929 672 l 929 1022 l 922 1022 b 821 949 922 928 892 932 b 542 982 740 968 629 989 b 65 439 254 956 38 743 b 631 -10 92 136 342 -28 b 946 110 785 0 871 50 l 946 131 b 629 -3 868 60 761 0 z m 574 1207 b 519 1153 544 1207 519 1183 b 574 1100 519 1124 544 1100 b 628 1153 603 1100 628 1124 b 574 1207 628 1183 603 1207 z "},"Ď":{"ha":1044,"x_min":0,"x_max":0,"o":"m 533 972 l 69 972 l 69 965 b 157 813 149 965 156 914 l 157 160 b 69 7 156 58 149 7 l 69 0 l 533 0 b 982 486 833 0 982 215 b 533 972 982 757 832 972 z m 472 7 b 365 7 432 7 396 7 b 278 160 286 7 278 58 l 278 813 b 365 965 278 914 286 965 l 472 965 b 843 486 651 965 843 857 b 472 7 843 114 651 7 z m 628 1213 l 621 1213 l 457 1110 l 292 1213 l 285 1213 l 419 1057 l 493 1057 z "},"É":{"ha":835,"x_min":0,"x_max":0,"o":"m 793 235 b 524 7 753 144 664 7 l 365 7 b 278 160 286 7 279 58 l 278 481 l 379 481 b 574 310 488 481 574 403 l 581 310 l 581 658 l 574 658 b 379 488 574 565 488 488 l 278 488 l 278 813 b 365 965 279 914 286 965 l 481 965 b 739 781 619 965 699 871 l 746 781 l 699 972 l 69 972 l 69 965 b 157 813 149 965 157 914 l 157 160 b 69 7 157 58 149 7 l 69 0 l 743 0 l 800 235 z m 439 1068 l 446 1068 l 571 1222 l 493 1222 z "},"Ĕ":{"ha":835,"x_min":0,"x_max":0,"o":"m 793 235 b 524 7 753 144 664 7 l 365 7 b 278 160 286 7 279 58 l 278 481 l 379 481 b 574 310 488 481 574 403 l 581 310 l 581 658 l 574 658 b 379 488 574 565 488 488 l 278 488 l 278 813 b 365 965 279 914 286 965 l 481 965 b 739 781 619 965 699 871 l 746 781 l 699 972 l 69 972 l 69 965 b 157 813 149 965 157 914 l 157 160 b 69 7 157 58 149 7 l 69 0 l 743 0 l 800 235 z m 507 1181 b 449 1058 501 1110 489 1058 b 392 1181 410 1058 397 1110 l 315 1181 b 449 1054 322 1089 381 1054 b 583 1181 518 1054 575 1089 z "},"Ě":{"ha":835,"x_min":0,"x_max":0,"o":"m 793 235 b 524 7 753 144 664 7 l 365 7 b 278 160 286 7 279 58 l 278 481 l 379 481 b 574 310 488 481 574 403 l 581 310 l 581 658 l 574 658 b 379 488 574 565 488 488 l 278 488 l 278 813 b 365 965 279 914 286 965 l 481 965 b 739 781 619 965 699 871 l 746 781 l 699 972 l 69 972 l 69 965 b 157 813 149 965 157 914 l 157 160 b 69 7 157 58 149 7 l 69 0 l 743 0 l 800 235 z m 619 1213 l 613 1213 l 449 1110 l 283 1213 l 276 1213 l 411 1057 l 485 1057 z "},"Ê":{"ha":835,"x_min":0,"x_max":0,"o":"m 793 235 b 524 7 753 144 664 7 l 365 7 b 278 160 286 7 279 58 l 278 481 l 379 481 b 574 310 488 481 574 403 l 581 310 l 581 658 l 574 658 b 379 488 574 565 488 488 l 278 488 l 278 813 b 365 965 279 914 286 965 l 481 965 b 739 781 619 965 699 871 l 746 781 l 699 972 l 69 972 l 69 965 b 157 813 149 965 157 914 l 157 160 b 69 7 157 58 149 7 l 69 0 l 743 0 l 800 235 z m 486 1222 l 413 1222 l 278 1068 l 285 1068 l 450 1171 l 615 1068 l 621 1068 z "},"Ë":{"ha":835,"x_min":0,"x_max":0,"o":"m 793 235 b 524 7 753 144 664 7 l 365 7 b 278 160 286 7 279 58 l 278 481 l 379 481 b 574 310 488 481 574 403 l 581 310 l 581 658 l 574 658 b 379 488 574 565 488 488 l 278 488 l 278 813 b 365 965 279 914 286 965 l 481 965 b 739 781 619 965 699 871 l 746 781 l 699 972 l 69 972 l 69 965 b 157 813 149 965 157 914 l 157 160 b 69 7 157 58 149 7 l 69 0 l 743 0 l 800 235 z m 379 1207 b 325 1153 350 1207 325 1183 b 379 1100 325 1124 350 1100 b 433 1153 408 1100 433 1124 b 379 1207 433 1183 408 1207 z m 521 1207 b 467 1153 490 1207 467 1183 b 521 1100 467 1124 490 1100 b 574 1153 550 1100 574 1124 b 521 1207 574 1183 550 1207 z "},"Ė":{"ha":835,"x_min":0,"x_max":0,"o":"m 793 235 b 524 7 753 144 664 7 l 365 7 b 278 160 286 7 279 58 l 278 481 l 379 481 b 574 310 488 481 574 403 l 581 310 l 581 658 l 574 658 b 379 488 574 565 488 488 l 278 488 l 278 813 b 365 965 279 914 286 965 l 481 965 b 739 781 619 965 699 871 l 746 781 l 699 972 l 69 972 l 69 965 b 157 813 149 965 157 914 l 157 160 b 69 7 157 58 149 7 l 69 0 l 743 0 l 800 235 z m 449 1207 b 394 1153 419 1207 394 1183 b 449 1100 394 1124 419 1100 b 503 1153 478 1100 503 1124 b 449 1207 503 1183 478 1207 z "},"È":{"ha":835,"x_min":0,"x_max":0,"o":"m 793 235 b 524 7 753 144 664 7 l 365 7 b 278 160 286 7 279 58 l 278 481 l 379 481 b 574 310 488 481 574 403 l 581 310 l 581 658 l 574 658 b 379 488 574 565 488 488 l 278 488 l 278 813 b 365 965 279 914 286 965 l 481 965 b 739 781 619 965 699 871 l 746 781 l 699 972 l 69 972 l 69 965 b 157 813 149 965 157 914 l 157 160 b 69 7 157 58 149 7 l 69 0 l 743 0 l 800 235 z m 418 1222 l 342 1222 l 465 1068 l 472 1068 z "},"Ē":{"ha":835,"x_min":0,"x_max":0,"o":"m 793 235 b 524 7 753 144 664 7 l 365 7 b 278 160 286 7 279 58 l 278 481 l 379 481 b 574 310 488 481 574 403 l 581 310 l 581 658 l 574 658 b 379 488 574 565 488 488 l 278 488 l 278 813 b 365 965 279 914 286 965 l 481 965 b 739 781 619 965 699 871 l 746 781 l 699 972 l 69 972 l 69 965 b 157 813 149 965 157 914 l 157 160 b 69 7 157 58 149 7 l 69 0 l 743 0 l 800 235 z m 321 1149 l 321 1142 l 563 1142 l 563 1149 z "},"Ğ":{"ha":1068,"x_min":0,"x_max":0,"o":"m 738 440 l 738 433 b 825 281 817 433 824 383 l 825 63 b 629 -3 763 25 690 3 b 203 451 418 -22 228 182 b 542 975 179 722 331 956 b 754 928 611 981 686 964 b 922 672 838 879 922 763 l 929 672 l 929 1022 l 922 1022 b 832 946 922 935 896 931 b 542 982 767 961 635 990 b 65 439 254 956 38 743 b 631 -10 92 136 342 -31 b 939 -14 721 -4 939 71 l 946 -14 b 946 281 946 146 946 214 b 1033 433 946 383 954 433 l 1033 440 z m 647 1181 b 589 1058 642 1110 629 1058 b 532 1181 550 1058 538 1110 l 456 1181 b 589 1054 463 1089 521 1054 b 724 1181 658 1054 715 1089 z "},"Ĝ":{"ha":1068,"x_min":0,"x_max":0,"o":"m 738 440 l 738 433 b 825 281 817 433 824 383 l 825 63 b 629 -3 763 25 690 3 b 203 451 418 -22 228 182 b 542 975 179 722 331 956 b 754 928 611 981 686 964 b 922 672 838 879 922 763 l 929 672 l 929 1022 l 922 1022 b 832 946 922 935 896 931 b 542 982 767 961 635 990 b 65 439 254 956 38 743 b 631 -10 92 136 342 -31 b 939 -14 721 -4 939 71 l 946 -14 b 946 281 946 146 946 214 b 1033 433 946 383 954 433 l 1033 440 z m 613 1222 l 539 1222 l 404 1068 l 411 1068 l 576 1171 l 742 1068 l 747 1068 z "},"Ģ":{"ha":1068,"x_min":0,"x_max":0,"o":"m 738 440 l 738 433 b 825 281 817 433 824 383 l 825 63 b 629 -3 763 25 690 3 b 203 451 418 -22 228 182 b 542 975 179 722 331 956 b 754 928 611 981 686 964 b 922 672 838 879 922 763 l 929 672 l 929 1022 l 922 1022 b 832 946 922 935 896 931 b 542 982 767 961 635 990 b 65 439 254 956 38 743 b 631 -10 92 136 342 -31 b 939 -14 721 -4 939 71 l 946 -14 b 946 281 946 146 946 214 b 1033 433 946 383 954 433 l 1033 440 z m 657 -183 b 596 -114 656 -146 636 -117 b 524 -175 560 -110 526 -137 b 585 -247 519 -211 547 -243 b 650 -221 607 -250 638 -242 b 547 -342 651 -254 640 -349 l 547 -347 b 657 -183 650 -351 660 -254 z "},"Ġ":{"ha":1068,"x_min":0,"x_max":0,"o":"m 738 440 l 738 433 b 825 281 817 433 824 383 l 825 63 b 629 -3 763 25 690 3 b 203 451 418 -22 228 182 b 542 975 179 722 331 956 b 754 928 611 981 686 964 b 922 672 838 879 922 763 l 929 672 l 929 1022 l 922 1022 b 832 946 922 935 896 931 b 542 982 767 961 635 990 b 65 439 254 956 38 743 b 631 -10 92 136 342 -31 b 939 -14 721 -4 939 71 l 946 -14 b 946 281 946 146 946 214 b 1033 433 946 383 954 433 l 1033 440 z m 576 1207 b 522 1153 547 1207 522 1183 b 576 1100 522 1124 547 1100 b 631 1153 606 1100 631 1124 b 576 1207 631 1183 606 1207 z "},"Ĥ":{"ha":1090,"x_min":0,"x_max":0,"o":"m 933 813 b 1021 965 935 914 942 965 l 1021 972 l 725 972 l 725 965 b 813 813 804 965 813 914 l 813 489 l 278 489 l 278 813 b 365 965 278 914 286 965 l 365 972 l 69 972 l 69 965 b 157 813 149 965 156 914 l 157 160 b 69 7 156 58 149 7 l 69 0 l 365 0 l 365 7 b 278 160 286 7 278 58 l 278 482 l 813 482 l 813 160 b 725 7 813 58 804 7 l 725 0 l 1021 0 l 1021 7 b 933 160 942 7 935 58 l 933 813 z m 582 1222 l 508 1222 l 374 1068 l 381 1068 l 546 1171 l 711 1068 l 717 1068 z "},"Í":{"ha":435,"x_min":0,"x_max":0,"o":"m 278 813 b 365 965 279 914 286 965 l 365 972 l 69 972 l 69 965 b 157 813 149 965 157 914 l 157 160 b 69 7 157 58 149 7 l 69 0 l 365 0 l 365 7 b 278 160 286 7 279 58 z m 207 1068 l 214 1068 l 339 1222 l 261 1222 z "},"Ĭ":{"ha":435,"x_min":0,"x_max":0,"o":"m 278 813 b 365 965 279 914 286 965 l 365 972 l 69 972 l 69 965 b 157 813 149 965 157 914 l 157 160 b 69 7 157 58 149 7 l 69 0 l 365 0 l 365 7 b 278 160 286 7 279 58 z m 275 1181 b 217 1058 269 1110 257 1058 b 160 1181 178 1058 165 1110 l 83 1181 b 217 1054 90 1089 149 1054 b 351 1181 286 1054 343 1089 z "},"Î":{"ha":435,"x_min":0,"x_max":0,"o":"m 278 813 b 365 965 279 914 286 965 l 365 972 l 69 972 l 69 965 b 157 813 149 965 157 914 l 157 160 b 69 7 157 58 149 7 l 69 0 l 365 0 l 365 7 b 278 160 286 7 279 58 z m 254 1222 l 181 1222 l 46 1068 l 53 1068 l 218 1171 l 383 1068 l 389 1068 z "},"Ï":{"ha":435,"x_min":0,"x_max":0,"o":"m 278 813 b 365 965 279 914 286 965 l 365 972 l 69 972 l 69 965 b 157 813 149 965 157 914 l 157 160 b 69 7 157 58 149 7 l 69 0 l 365 0 l 365 7 b 278 160 286 7 279 58 z m 147 1207 b 93 1153 118 1207 93 1183 b 147 1100 93 1124 118 1100 b 201 1153 176 1100 201 1124 b 147 1207 201 1183 176 1207 z m 289 1207 b 235 1153 258 1207 235 1183 b 289 1100 235 1124 258 1100 b 342 1153 318 1100 342 1124 b 289 1207 342 1183 318 1207 z "},"İ":{"ha":435,"x_min":0,"x_max":0,"o":"m 278 813 b 365 965 279 914 286 965 l 365 972 l 69 972 l 69 965 b 157 813 149 965 157 914 l 157 160 b 69 7 157 58 149 7 l 69 0 l 365 0 l 365 7 b 278 160 286 7 279 58 z m 218 1207 b 164 1153 189 1207 164 1183 b 218 1100 164 1124 189 1100 b 272 1153 247 1100 272 1124 b 218 1207 272 1183 247 1207 z "},"Ì":{"ha":435,"x_min":0,"x_max":0,"o":"m 278 813 b 365 965 279 914 286 965 l 365 972 l 69 972 l 69 965 b 157 813 149 965 157 914 l 157 160 b 69 7 157 58 149 7 l 69 0 l 365 0 l 365 7 b 278 160 286 7 279 58 z m 174 1222 l 97 1222 l 221 1068 l 228 1068 z "},"Ī":{"ha":435,"x_min":0,"x_max":0,"o":"m 278 813 b 365 965 279 914 286 965 l 365 972 l 69 972 l 69 965 b 157 813 149 965 157 914 l 157 160 b 69 7 157 58 149 7 l 69 0 l 365 0 l 365 7 b 278 160 286 7 279 58 z m 97 1149 l 97 1142 l 339 1142 l 339 1149 z "},"Ĩ":{"ha":435,"x_min":0,"x_max":0,"o":"m 278 813 b 365 965 279 914 286 965 l 365 972 l 69 972 l 69 965 b 157 813 149 965 157 914 l 157 160 b 69 7 157 58 149 7 l 69 0 l 365 0 l 365 7 b 278 160 286 7 279 58 z m 286 1107 b 347 1199 340 1103 347 1181 l 340 1199 b 286 1174 333 1176 324 1167 b 151 1200 263 1178 182 1204 b 88 1111 99 1194 88 1113 l 94 1111 b 151 1136 101 1124 118 1140 b 286 1107 185 1133 243 1110 z "},"Ĳ":{"ha":858,"x_min":0,"x_max":0,"o":"m 278 813 b 365 965 279 914 286 965 l 365 972 l 69 972 l 69 965 b 157 813 149 965 157 914 l 157 160 b 69 7 157 58 149 7 l 69 0 l 365 0 l 365 7 b 278 160 286 7 279 58 z m 492 972 l 492 965 b 579 813 571 965 579 914 l 579 14 b 435 -264 579 -142 522 -232 l 435 -272 b 701 31 583 -260 701 -179 l 701 813 b 789 965 701 914 710 965 l 789 972 z "},"Ĵ":{"ha":438,"x_min":0,"x_max":0,"o":"m 71 972 l 71 965 b 158 813 150 965 158 914 l 158 14 b 14 -264 158 -142 101 -232 l 14 -272 b 281 31 163 -260 281 -179 l 281 813 b 368 965 281 914 289 965 l 368 972 z m 228 1222 l 154 1222 l 19 1068 l 26 1068 l 192 1171 l 357 1068 l 363 1068 z "},"Ķ":{"ha":1015,"x_min":0,"x_max":0,"o":"m 738 186 b 433 564 676 256 450 543 b 614 736 499 625 567 689 b 926 965 678 800 836 965 l 926 972 l 631 972 l 631 965 b 621 753 729 965 722 854 b 278 426 528 660 358 501 l 278 813 b 365 965 279 914 286 965 l 365 972 l 69 972 l 69 965 b 157 813 149 965 156 914 l 157 160 b 69 7 156 58 149 7 l 69 0 l 365 0 l 365 7 b 278 160 286 7 279 58 l 278 419 b 344 481 296 436 319 457 l 722 0 l 1008 0 l 1008 7 b 738 186 915 7 799 114 z m 564 -183 b 503 -114 563 -146 543 -117 b 431 -175 467 -110 433 -137 b 492 -247 426 -211 454 -243 b 557 -221 514 -250 544 -242 b 454 -342 558 -254 547 -349 l 454 -347 b 564 -183 557 -351 567 -254 z "},"Ĺ":{"ha":821,"x_min":0,"x_max":0,"o":"m 793 235 b 524 7 753 144 664 7 l 365 7 b 278 158 286 7 279 57 l 278 813 b 365 965 279 914 286 965 l 365 972 l 69 972 l 69 965 b 157 813 149 965 157 914 l 157 158 b 69 7 157 57 149 7 l 69 0 l 742 0 l 800 235 z m 217 1068 l 224 1068 l 349 1222 l 271 1222 z "},"Ľ":{"ha":821,"x_min":0,"x_max":0,"o":"m 793 235 b 524 7 753 144 664 7 l 365 7 b 278 158 286 7 279 57 l 278 813 b 365 965 279 914 286 965 l 365 972 l 69 972 l 69 965 b 157 813 149 965 157 914 l 157 158 b 69 7 157 57 149 7 l 69 0 l 742 0 l 800 235 z m 601 921 b 553 976 600 951 585 974 b 496 929 524 979 499 958 b 544 871 493 899 515 874 b 596 892 563 869 586 875 b 514 797 597 865 586 790 l 514 792 b 601 921 596 788 604 865 z "},"Ļ":{"ha":821,"x_min":0,"x_max":0,"o":"m 793 235 b 524 7 753 144 664 7 l 365 7 b 278 158 286 7 279 57 l 278 813 b 365 965 279 914 286 965 l 365 972 l 69 972 l 69 965 b 157 813 149 965 157 914 l 157 158 b 69 7 157 57 149 7 l 69 0 l 742 0 l 800 235 z m 533 -183 b 472 -114 532 -146 513 -117 b 400 -175 436 -110 403 -137 b 461 -247 396 -211 424 -243 b 526 -221 483 -250 514 -242 b 424 -342 528 -254 517 -349 l 424 -347 b 533 -183 526 -351 536 -254 z "},"Ŀ":{"ha":821,"x_min":0,"x_max":0,"o":"m 793 235 b 524 7 753 144 664 7 l 365 7 b 278 158 286 7 279 57 l 278 813 b 365 965 279 914 286 965 l 365 972 l 69 972 l 69 965 b 157 813 149 965 157 914 l 157 158 b 69 7 157 57 149 7 l 69 0 l 742 0 l 800 235 z m 767 465 b 713 411 738 465 713 442 b 767 358 713 382 738 358 b 821 411 796 358 821 382 b 767 465 821 442 796 465 z "},"Ń":{"ha":1099,"x_min":0,"x_max":0,"o":"m 714 972 l 714 965 b 886 703 808 965 886 868 l 886 183 l 276 972 l 44 972 l 44 965 b 206 853 99 965 157 913 l 206 269 b 35 7 206 104 129 7 l 35 0 l 385 0 l 385 7 b 213 269 290 7 213 104 l 213 844 b 876 0 244 807 865 13 l 893 0 l 893 703 b 1064 965 893 868 971 965 l 1064 972 z m 567 1068 l 574 1068 l 699 1222 l 621 1222 z "},"Ň":{"ha":1099,"x_min":0,"x_max":0,"o":"m 714 972 l 714 965 b 886 703 808 965 886 868 l 886 183 l 276 972 l 44 972 l 44 965 b 206 853 99 965 157 913 l 206 269 b 35 7 206 104 129 7 l 35 0 l 385 0 l 385 7 b 213 269 290 7 213 104 l 213 844 b 876 0 244 807 865 13 l 893 0 l 893 703 b 1064 965 893 868 971 965 l 1064 972 z m 749 1213 l 742 1213 l 578 1110 l 413 1213 l 406 1213 l 540 1057 l 614 1057 z "},"Ņ":{"ha":1099,"x_min":0,"x_max":0,"o":"m 714 972 l 714 965 b 886 703 808 965 886 868 l 886 183 l 276 972 l 44 972 l 44 965 b 206 853 99 965 157 913 l 206 269 b 35 7 206 104 129 7 l 35 0 l 385 0 l 385 7 b 213 269 290 7 213 104 l 213 844 b 876 0 244 807 865 13 l 893 0 l 893 703 b 1064 965 893 868 971 965 l 1064 972 z m 658 -183 b 597 -114 657 -146 638 -117 b 525 -175 561 -110 528 -137 b 586 -247 521 -211 549 -243 b 651 -221 608 -250 639 -242 b 549 -342 653 -254 642 -349 l 549 -347 b 658 -183 651 -351 661 -254 z "},"Ñ":{"ha":1099,"x_min":0,"x_max":0,"o":"m 714 972 l 714 965 b 886 703 808 965 886 868 l 886 183 l 276 972 l 44 972 l 44 965 b 206 853 99 965 157 913 l 206 269 b 35 7 206 104 129 7 l 35 0 l 385 0 l 385 7 b 213 269 290 7 213 104 l 213 844 b 876 0 244 807 865 13 l 893 0 l 893 703 b 1064 965 893 868 971 965 l 1064 972 z m 646 1107 b 707 1199 700 1103 707 1181 l 700 1199 b 646 1174 693 1176 683 1167 b 511 1200 622 1178 542 1204 b 447 1111 458 1194 447 1113 l 454 1111 b 511 1136 461 1124 478 1140 b 646 1107 544 1133 603 1110 z "},"Ó":{"ha":1174,"x_min":0,"x_max":0,"o":"m 543 982 b 65 439 254 957 39 743 b 631 -10 93 136 343 -36 b 1108 532 919 15 1135 229 b 543 982 1081 836 831 1008 z m 631 -3 b 204 451 419 -21 228 182 b 543 975 179 722 332 957 b 969 521 754 994 946 790 b 631 -3 994 250 842 17 z m 563 1068 l 569 1068 l 694 1222 l 617 1222 z "},"Ŏ":{"ha":1174,"x_min":0,"x_max":0,"o":"m 543 982 b 65 439 254 957 39 743 b 631 -10 93 136 343 -36 b 1108 532 919 15 1135 229 b 543 982 1081 836 831 1008 z m 631 -3 b 204 451 419 -21 228 182 b 543 975 179 722 332 957 b 969 521 754 994 946 790 b 631 -3 994 250 842 17 z m 644 1181 b 586 1058 639 1110 626 1058 b 529 1181 547 1058 535 1110 l 453 1181 b 586 1054 460 1089 518 1054 b 721 1181 656 1054 713 1089 z "},"Ô":{"ha":1174,"x_min":0,"x_max":0,"o":"m 543 982 b 65 439 254 957 39 743 b 631 -10 93 136 343 -36 b 1108 532 919 15 1135 229 b 543 982 1081 836 831 1008 z m 631 -3 b 204 451 419 -21 228 182 b 543 975 179 722 332 957 b 969 521 754 994 946 790 b 631 -3 994 250 842 17 z m 624 1222 l 550 1222 l 415 1068 l 422 1068 l 588 1171 l 753 1068 l 758 1068 z "},"Ö":{"ha":1174,"x_min":0,"x_max":0,"o":"m 543 982 b 65 439 254 957 39 743 b 631 -10 93 136 343 -36 b 1108 532 919 15 1135 229 b 543 982 1081 836 831 1008 z m 631 -3 b 204 451 419 -21 228 182 b 543 975 179 722 332 957 b 969 521 754 994 946 790 b 631 -3 994 250 842 17 z m 517 1207 b 463 1153 488 1207 463 1183 b 517 1100 463 1124 488 1100 b 571 1153 546 1100 571 1124 b 517 1207 571 1183 546 1207 z m 658 1207 b 604 1153 628 1207 604 1183 b 658 1100 604 1124 628 1100 b 711 1153 688 1100 711 1124 b 658 1207 711 1183 688 1207 z "},"Ò":{"ha":1174,"x_min":0,"x_max":0,"o":"m 543 982 b 65 439 254 957 39 743 b 631 -10 93 136 343 -36 b 1108 532 919 15 1135 229 b 543 982 1081 836 831 1008 z m 631 -3 b 204 451 419 -21 228 182 b 543 975 179 722 332 957 b 969 521 754 994 946 790 b 631 -3 994 250 842 17 z m 542 1222 l 465 1222 l 589 1068 l 596 1068 z "},"Ő":{"ha":1174,"x_min":0,"x_max":0,"o":"m 543 982 b 65 439 254 957 39 743 b 631 -10 93 136 343 -36 b 1108 532 919 15 1135 229 b 543 982 1081 836 831 1008 z m 631 -3 b 204 451 419 -21 228 182 b 543 975 179 722 332 957 b 969 521 754 994 946 790 b 631 -3 994 250 842 17 z m 629 1068 l 636 1068 l 761 1222 l 683 1222 z m 525 1068 l 532 1068 l 657 1222 l 579 1222 z "},"Ō":{"ha":1174,"x_min":0,"x_max":0,"o":"m 543 982 b 65 439 254 957 39 743 b 631 -10 93 136 343 -36 b 1108 532 919 15 1135 229 b 543 982 1081 836 831 1008 z m 631 -3 b 204 451 419 -21 228 182 b 543 975 179 722 332 957 b 969 521 754 994 946 790 b 631 -3 994 250 842 17 z m 465 1149 l 465 1142 l 707 1142 l 707 1149 z "},"Ǿ":{"ha":1172,"x_min":0,"x_max":0,"o":"m 1107 532 b 721 971 1086 771 926 928 l 740 1046 l 733 1046 l 714 972 b 542 982 660 983 601 988 b 65 439 254 956 38 743 b 451 0 86 201 244 44 l 431 -74 l 438 -74 l 458 -1 b 631 -10 513 -12 571 -15 b 1107 532 918 15 1133 229 z m 203 451 b 542 975 179 722 331 956 b 707 944 600 981 656 969 l 460 31 b 203 451 324 97 221 257 z m 629 -3 b 465 28 572 -8 517 3 l 713 942 b 968 521 847 874 951 714 b 629 -3 993 250 842 15 z m 557 1068 l 564 1068 l 689 1222 l 611 1222 z "},"Õ":{"ha":1174,"x_min":0,"x_max":0,"o":"m 543 982 b 65 439 254 957 39 743 b 631 -10 93 136 343 -36 b 1108 532 919 15 1135 229 b 543 982 1081 836 831 1008 z m 631 -3 b 204 451 419 -21 228 182 b 543 975 179 722 332 957 b 969 521 754 994 946 790 b 631 -3 994 250 842 17 z m 656 1107 b 717 1199 710 1103 717 1181 l 710 1199 b 656 1174 703 1176 693 1167 b 521 1200 632 1178 551 1204 b 457 1111 468 1194 457 1113 l 464 1111 b 521 1136 471 1124 488 1140 b 656 1107 554 1133 613 1110 z "},"Ŕ":{"ha":999,"x_min":0,"x_max":0,"o":"m 772 151 b 515 488 685 282 651 446 b 746 726 639 507 746 581 b 453 972 746 901 588 972 l 69 972 l 69 965 b 157 813 149 965 156 915 l 157 158 b 69 7 156 57 149 7 l 69 0 l 365 0 l 365 7 b 278 158 286 7 279 57 l 278 481 b 399 481 290 481 399 481 b 679 61 542 472 558 199 b 836 0 717 17 776 0 b 985 0 907 0 985 0 l 985 7 b 772 151 900 7 826 71 z m 278 488 l 278 813 b 365 965 279 915 286 965 l 410 965 b 611 726 490 965 611 901 b 410 488 611 551 497 488 b 278 488 376 488 324 488 z m 392 1068 l 399 1068 l 524 1222 l 446 1222 z "},"Ř":{"ha":999,"x_min":0,"x_max":0,"o":"m 772 151 b 515 488 685 282 651 446 b 746 726 639 507 746 581 b 453 972 746 901 588 972 l 69 972 l 69 965 b 157 813 149 965 156 915 l 157 158 b 69 7 156 57 149 7 l 69 0 l 365 0 l 365 7 b 278 158 286 7 279 57 l 278 481 b 399 481 290 481 399 481 b 679 61 542 472 558 199 b 836 0 717 17 776 0 b 985 0 907 0 985 0 l 985 7 b 772 151 900 7 826 71 z m 278 488 l 278 813 b 365 965 279 915 286 965 l 410 965 b 611 726 490 965 611 901 b 410 488 611 551 497 488 b 278 488 376 488 324 488 z m 560 1213 l 553 1213 l 389 1110 l 224 1213 l 217 1213 l 351 1057 l 425 1057 z "},"Ŗ":{"ha":999,"x_min":0,"x_max":0,"o":"m 772 151 b 515 488 685 282 651 446 b 746 726 639 507 746 581 b 453 972 746 901 588 972 l 69 972 l 69 965 b 157 813 149 965 156 915 l 157 158 b 69 7 156 57 149 7 l 69 0 l 365 0 l 365 7 b 278 158 286 7 279 57 l 278 481 b 399 481 290 481 399 481 b 679 61 542 472 558 199 b 836 0 717 17 776 0 b 985 0 907 0 985 0 l 985 7 b 772 151 900 7 826 71 z m 278 488 l 278 813 b 365 965 279 915 286 965 l 410 965 b 611 726 490 965 611 901 b 410 488 611 551 497 488 b 278 488 376 488 324 488 z m 581 -183 b 519 -114 579 -146 560 -117 b 447 -175 483 -110 450 -137 b 508 -247 443 -211 471 -243 b 574 -221 531 -250 561 -242 b 471 -342 575 -254 564 -349 l 471 -347 b 581 -183 574 -351 583 -254 z "},"Ś":{"ha":788,"x_min":0,"x_max":0,"o":"m 200 790 b 386 979 200 925 296 979 b 661 672 550 979 661 842 l 668 672 l 668 1022 l 661 1022 b 585 946 661 946 635 932 b 382 986 524 961 460 986 b 93 743 235 986 93 908 b 601 188 93 450 601 433 b 389 -7 601 74 515 -7 b 76 299 169 -7 76 218 l 69 299 l 69 -51 l 76 -51 b 193 13 76 43 150 24 b 389 -14 238 3 314 -14 b 718 242 578 -14 718 71 b 200 790 718 525 200 556 z m 383 1068 l 390 1068 l 515 1222 l 438 1222 z "},"Š":{"ha":788,"x_min":0,"x_max":0,"o":"m 200 790 b 386 979 200 925 296 979 b 661 672 550 979 661 842 l 668 672 l 668 1022 l 661 1022 b 585 946 661 946 635 932 b 382 986 524 961 460 986 b 93 743 235 986 93 908 b 601 188 93 450 601 433 b 389 -7 601 74 515 -7 b 76 299 169 -7 76 218 l 69 299 l 69 -51 l 76 -51 b 193 13 76 43 150 24 b 389 -14 238 3 314 -14 b 718 242 578 -14 718 71 b 200 790 718 525 200 556 z m 565 1213 l 558 1213 l 394 1110 l 229 1213 l 222 1213 l 357 1057 l 431 1057 z "},"Ŝ":{"ha":788,"x_min":0,"x_max":0,"o":"m 200 790 b 386 979 200 925 296 979 b 661 672 550 979 661 842 l 668 672 l 668 1022 l 661 1022 b 585 946 661 946 635 932 b 382 986 524 961 460 986 b 93 743 235 986 93 908 b 601 188 93 450 601 433 b 389 -7 601 74 515 -7 b 76 299 169 -7 76 218 l 69 299 l 69 -51 l 76 -51 b 193 13 76 43 150 24 b 389 -14 238 3 314 -14 b 718 242 578 -14 718 71 b 200 790 718 525 200 556 z m 431 1222 l 357 1222 l 222 1068 l 229 1068 l 394 1171 l 560 1068 l 565 1068 z "},"Ș":{"ha":788,"x_min":0,"x_max":0,"o":"m 200 790 b 386 979 200 925 296 979 b 661 672 550 979 661 842 l 668 672 l 668 1022 l 661 1022 b 585 946 661 946 635 932 b 382 986 524 961 460 986 b 93 743 235 986 93 908 b 601 188 93 450 601 433 b 389 -7 601 74 515 -7 b 76 299 169 -7 76 218 l 69 299 l 69 -51 l 76 -51 b 193 13 76 43 150 24 b 389 -14 238 3 314 -14 b 718 242 578 -14 718 71 b 200 790 718 525 200 556 z m 456 -183 b 394 -114 454 -146 435 -117 b 322 -175 358 -110 325 -137 b 383 -247 318 -211 346 -243 b 449 -221 406 -250 436 -242 b 346 -342 450 -254 439 -349 l 346 -347 b 456 -183 449 -351 458 -254 z "},"Ť":{"ha":953,"x_min":0,"x_max":0,"o":"m 867 972 l 86 972 l 56 764 l 63 764 b 304 965 103 854 165 965 l 328 965 b 415 813 407 965 415 915 l 415 160 b 328 7 415 58 407 7 l 328 0 l 625 0 l 625 7 b 538 160 546 7 538 58 l 538 813 b 625 965 538 915 546 965 l 649 965 b 890 764 788 965 850 854 l 897 764 z m 647 1213 l 640 1213 l 476 1110 l 311 1213 l 304 1213 l 439 1057 l 513 1057 z "},"Ţ":{"ha":953,"x_min":0,"x_max":0,"o":"m 867 972 l 86 972 l 56 764 l 63 764 b 304 965 103 854 165 965 l 328 965 b 415 813 407 965 415 915 l 415 160 b 328 7 415 58 407 7 l 328 0 l 625 0 l 625 7 b 538 160 546 7 538 58 l 538 813 b 625 965 538 915 546 965 l 649 965 b 890 764 788 965 850 854 l 897 764 z m 543 -183 b 482 -114 542 -146 522 -117 b 410 -175 446 -110 413 -137 b 471 -247 406 -211 433 -243 b 536 -221 493 -250 524 -242 b 433 -342 538 -254 526 -349 l 433 -347 b 543 -183 536 -351 546 -254 z "},"Ú":{"ha":981,"x_min":0,"x_max":0,"o":"m 729 972 l 729 965 b 817 813 808 965 817 915 l 817 303 b 507 -4 817 118 722 -4 b 278 286 376 -4 278 107 l 278 813 b 365 965 279 915 286 965 l 365 972 l 69 972 l 69 965 b 157 813 149 965 157 915 l 157 303 b 507 -14 157 60 356 -14 b 824 303 665 -14 824 60 l 824 813 b 911 965 824 915 832 965 l 911 972 z m 521 1068 l 528 1068 l 653 1222 l 575 1222 z "},"Ŭ":{"ha":981,"x_min":0,"x_max":0,"o":"m 729 972 l 729 965 b 817 813 808 965 817 915 l 817 303 b 507 -4 817 118 722 -4 b 278 286 376 -4 278 107 l 278 813 b 365 965 279 915 286 965 l 365 972 l 69 972 l 69 965 b 157 813 149 965 157 915 l 157 303 b 507 -14 157 60 356 -14 b 824 303 665 -14 824 60 l 824 813 b 911 965 824 915 832 965 l 911 972 z m 604 1181 b 546 1058 599 1110 586 1058 b 489 1181 507 1058 494 1110 l 413 1181 b 546 1054 419 1089 478 1054 b 681 1181 615 1054 672 1089 z "},"Û":{"ha":981,"x_min":0,"x_max":0,"o":"m 729 972 l 729 965 b 817 813 808 965 817 915 l 817 303 b 507 -4 817 118 722 -4 b 278 286 376 -4 278 107 l 278 813 b 365 965 279 915 286 965 l 365 972 l 69 972 l 69 965 b 157 813 149 965 157 915 l 157 303 b 507 -14 157 60 356 -14 b 824 303 665 -14 824 60 l 824 813 b 911 965 824 915 832 965 l 911 972 z m 583 1222 l 510 1222 l 375 1068 l 382 1068 l 547 1171 l 713 1068 l 718 1068 z "},"Ü":{"ha":981,"x_min":0,"x_max":0,"o":"m 729 972 l 729 965 b 817 813 808 965 817 915 l 817 303 b 507 -4 817 118 722 -4 b 278 286 376 -4 278 107 l 278 813 b 365 965 279 915 286 965 l 365 972 l 69 972 l 69 965 b 157 813 149 965 157 915 l 157 303 b 507 -14 157 60 356 -14 b 824 303 665 -14 824 60 l 824 813 b 911 965 824 915 832 965 l 911 972 z m 476 1207 b 422 1153 447 1207 422 1183 b 476 1100 422 1124 447 1100 b 531 1153 506 1100 531 1124 b 476 1207 531 1183 506 1207 z m 618 1207 b 564 1153 588 1207 564 1183 b 618 1100 564 1124 588 1100 b 671 1153 647 1100 671 1124 b 618 1207 671 1183 647 1207 z "},"Ù":{"ha":981,"x_min":0,"x_max":0,"o":"m 729 972 l 729 965 b 817 813 808 965 817 915 l 817 303 b 507 -4 817 118 722 -4 b 278 286 376 -4 278 107 l 278 813 b 365 965 279 915 286 965 l 365 972 l 69 972 l 69 965 b 157 813 149 965 157 915 l 157 303 b 507 -14 157 60 356 -14 b 824 303 665 -14 824 60 l 824 813 b 911 965 824 915 832 965 l 911 972 z m 488 1222 l 411 1222 l 535 1068 l 542 1068 z "},"Ű":{"ha":981,"x_min":0,"x_max":0,"o":"m 729 972 l 729 965 b 817 813 808 965 817 915 l 817 303 b 507 -4 817 118 722 -4 b 278 286 376 -4 278 107 l 278 813 b 365 965 279 915 286 965 l 365 972 l 69 972 l 69 965 b 157 813 149 965 157 915 l 157 303 b 507 -14 157 60 356 -14 b 824 303 665 -14 824 60 l 824 813 b 911 965 824 915 832 965 l 911 972 z m 560 1068 l 567 1068 l 692 1222 l 614 1222 z m 456 1068 l 463 1068 l 588 1222 l 510 1222 z "},"Ū":{"ha":981,"x_min":0,"x_max":0,"o":"m 729 972 l 729 965 b 817 813 808 965 817 915 l 817 303 b 507 -4 817 118 722 -4 b 278 286 376 -4 278 107 l 278 813 b 365 965 279 915 286 965 l 365 972 l 69 972 l 69 965 b 157 813 149 965 157 915 l 157 303 b 507 -14 157 60 356 -14 b 824 303 665 -14 824 60 l 824 813 b 911 965 824 915 832 965 l 911 972 z m 425 1149 l 425 1142 l 667 1142 l 667 1149 z "},"Ů":{"ha":981,"x_min":0,"x_max":0,"o":"m 729 972 l 729 965 b 817 813 808 965 817 915 l 817 303 b 507 -4 817 118 722 -4 b 278 286 376 -4 278 107 l 278 813 b 365 965 279 915 286 965 l 365 972 l 69 972 l 69 965 b 157 813 149 965 157 915 l 157 303 b 507 -14 157 60 356 -14 b 824 303 665 -14 824 60 l 824 813 b 911 965 824 915 832 965 l 911 972 z m 560 1051 b 640 1132 604 1051 640 1088 b 560 1213 640 1176 604 1213 b 479 1132 515 1213 479 1176 b 560 1051 479 1088 515 1051 z m 560 1206 b 635 1132 601 1206 635 1172 b 560 1057 635 1090 601 1057 b 486 1132 519 1057 486 1090 b 560 1206 486 1172 519 1206 z "},"Ũ":{"ha":981,"x_min":0,"x_max":0,"o":"m 729 972 l 729 965 b 817 813 808 965 817 915 l 817 303 b 507 -4 817 118 722 -4 b 278 286 376 -4 278 107 l 278 813 b 365 965 279 915 286 965 l 365 972 l 69 972 l 69 965 b 157 813 149 965 157 915 l 157 303 b 507 -14 157 60 356 -14 b 824 303 665 -14 824 60 l 824 813 b 911 965 824 915 832 965 l 911 972 z m 628 1107 b 689 1199 682 1103 689 1181 l 682 1199 b 628 1174 675 1176 665 1167 b 493 1200 604 1178 524 1204 b 429 1111 440 1194 429 1113 l 436 1111 b 493 1136 443 1124 460 1140 b 628 1107 526 1133 585 1110 z "},"Ẃ":{"ha":1447,"x_min":0,"x_max":0,"o":"m 1108 972 l 1108 965 b 1186 726 1203 965 1211 832 b 1031 189 1178 689 1090 392 l 775 972 l 758 972 l 536 204 b 319 853 521 249 350 754 b 371 965 293 939 308 965 l 371 972 l 42 972 l 42 965 b 204 779 128 965 165 892 b 469 0 243 660 469 0 l 482 0 l 707 772 l 967 0 l 981 0 b 1203 750 981 0 1163 622 b 1406 965 1242 874 1317 949 l 1406 972 z m 782 1068 l 789 1068 l 914 1222 l 836 1222 z "},"Ŵ":{"ha":1447,"x_min":0,"x_max":0,"o":"m 1108 972 l 1108 965 b 1186 726 1203 965 1211 832 b 1031 189 1178 689 1090 392 l 775 972 l 758 972 l 536 204 b 319 853 521 249 350 754 b 371 965 293 939 308 965 l 371 972 l 42 972 l 42 965 b 204 779 128 965 165 892 b 469 0 243 660 469 0 l 482 0 l 707 772 l 967 0 l 981 0 b 1203 750 981 0 1163 622 b 1406 965 1242 874 1317 949 l 1406 972 z m 804 1222 l 731 1222 l 596 1068 l 603 1068 l 768 1171 l 933 1068 l 939 1068 z "},"Ẅ":{"ha":1447,"x_min":0,"x_max":0,"o":"m 1108 972 l 1108 965 b 1186 726 1203 965 1211 832 b 1031 189 1178 689 1090 392 l 775 972 l 758 972 l 536 204 b 319 853 521 249 350 754 b 371 965 293 939 308 965 l 371 972 l 42 972 l 42 965 b 204 779 128 965 165 892 b 469 0 243 660 469 0 l 482 0 l 707 772 l 967 0 l 981 0 b 1203 750 981 0 1163 622 b 1406 965 1242 874 1317 949 l 1406 972 z m 697 1207 b 643 1153 668 1207 643 1183 b 697 1100 643 1124 668 1100 b 751 1153 726 1100 751 1124 b 697 1207 751 1183 726 1207 z m 839 1207 b 785 1153 808 1207 785 1183 b 839 1100 785 1124 808 1100 b 892 1153 868 1100 892 1124 b 839 1207 892 1183 868 1207 z "},"Ẁ":{"ha":1447,"x_min":0,"x_max":0,"o":"m 1108 972 l 1108 965 b 1186 726 1203 965 1211 832 b 1031 189 1178 689 1090 392 l 775 972 l 758 972 l 536 204 b 319 853 521 249 350 754 b 371 965 293 939 308 965 l 371 972 l 42 972 l 42 965 b 204 779 128 965 165 892 b 469 0 243 660 469 0 l 482 0 l 707 772 l 967 0 l 981 0 b 1203 750 981 0 1163 622 b 1406 965 1242 874 1317 949 l 1406 972 z m 693 1222 l 617 1222 l 740 1068 l 747 1068 z "},"Ý":{"ha":939,"x_min":0,"x_max":0,"o":"m 601 972 l 601 965 b 649 700 694 965 699 828 b 549 424 638 674 589 538 b 335 844 529 463 364 788 b 349 965 313 889 294 965 l 349 972 l 42 972 l 42 965 b 254 747 129 965 210 832 b 429 410 288 683 374 517 l 429 160 b 342 7 429 58 421 7 l 342 0 l 638 0 l 638 7 b 550 160 558 7 551 58 l 550 411 b 675 750 590 524 646 675 b 897 965 722 871 808 949 l 897 972 z m 486 1068 l 493 1068 l 618 1222 l 540 1222 z "},"Ŷ":{"ha":939,"x_min":0,"x_max":0,"o":"m 601 972 l 601 965 b 649 700 694 965 699 828 b 549 424 638 674 589 538 b 335 844 529 463 364 788 b 349 965 313 889 294 965 l 349 972 l 42 972 l 42 965 b 254 747 129 965 210 832 b 429 410 288 683 374 517 l 429 160 b 342 7 429 58 421 7 l 342 0 l 638 0 l 638 7 b 550 160 558 7 551 58 l 550 411 b 675 750 590 524 646 675 b 897 965 722 871 808 949 l 897 972 z m 528 1222 l 454 1222 l 319 1068 l 326 1068 l 492 1171 l 657 1068 l 663 1068 z "},"Ÿ":{"ha":939,"x_min":0,"x_max":0,"o":"m 601 972 l 601 965 b 649 700 694 965 699 828 b 549 424 638 674 589 538 b 335 844 529 463 364 788 b 349 965 313 889 294 965 l 349 972 l 42 972 l 42 965 b 254 747 129 965 210 832 b 429 410 288 683 374 517 l 429 160 b 342 7 429 58 421 7 l 342 0 l 638 0 l 638 7 b 550 160 558 7 551 58 l 550 411 b 675 750 590 524 646 675 b 897 965 722 871 808 949 l 897 972 z m 422 1207 b 368 1153 393 1207 368 1183 b 422 1100 368 1124 393 1100 b 476 1153 451 1100 476 1124 b 422 1207 476 1183 451 1207 z m 564 1207 b 510 1153 533 1207 510 1183 b 564 1100 510 1124 533 1100 b 617 1153 593 1100 617 1124 b 564 1207 617 1183 593 1207 z "},"Ỳ":{"ha":939,"x_min":0,"x_max":0,"o":"m 601 972 l 601 965 b 649 700 694 965 699 828 b 549 424 638 674 589 538 b 335 844 529 463 364 788 b 349 965 313 889 294 965 l 349 972 l 42 972 l 42 965 b 254 747 129 965 210 832 b 429 410 288 683 374 517 l 429 160 b 342 7 429 58 421 7 l 342 0 l 638 0 l 638 7 b 550 160 558 7 551 58 l 550 411 b 675 750 590 524 646 675 b 897 965 722 871 808 949 l 897 972 z m 439 1222 l 363 1222 l 486 1068 l 493 1068 z "},"Ź":{"ha":807,"x_min":0,"x_max":0,"o":"m 758 972 l 122 972 l 75 781 l 82 781 b 340 965 122 871 201 965 l 624 965 l 49 7 l 49 0 l 694 0 l 742 192 l 735 192 b 475 7 694 100 615 7 l 182 7 l 758 965 z m 435 1068 l 442 1068 l 567 1222 l 489 1222 z "},"Ž":{"ha":807,"x_min":0,"x_max":0,"o":"m 758 972 l 122 972 l 75 781 l 82 781 b 340 965 122 871 201 965 l 624 965 l 49 7 l 49 0 l 694 0 l 742 192 l 735 192 b 475 7 694 100 615 7 l 182 7 l 758 965 z m 631 1213 l 624 1213 l 460 1110 l 294 1213 l 288 1213 l 422 1057 l 496 1057 z "},"Ż":{"ha":807,"x_min":0,"x_max":0,"o":"m 758 972 l 122 972 l 75 781 l 82 781 b 340 965 122 871 201 965 l 624 965 l 49 7 l 49 0 l 694 0 l 742 192 l 735 192 b 475 7 694 100 615 7 l 182 7 l 758 965 z m 460 1207 b 406 1153 431 1207 406 1183 b 460 1100 406 1124 431 1100 b 514 1153 489 1100 514 1124 b 460 1207 514 1183 489 1207 z "},"á":{"ha":697,"x_min":0,"x_max":0,"o":"m 622 -3 b 554 144 558 -3 554 51 b 554 494 554 144 554 357 b 326 699 554 633 457 699 b 104 565 178 699 128 617 b 135 457 81 515 97 465 b 197 518 174 447 207 482 b 168 619 188 558 147 575 b 322 693 189 667 232 693 b 440 488 424 693 440 606 b 440 364 440 453 440 408 b 367 331 419 351 396 340 b 64 132 271 299 74 279 b 306 -1 54 -7 201 -33 b 442 119 367 18 410 63 b 604 -12 453 7 525 -12 b 669 4 632 -12 651 -7 l 669 11 b 622 -3 661 6 639 -3 z m 329 14 b 160 164 243 -28 144 17 b 372 326 174 289 306 301 b 440 358 401 338 422 347 b 440 151 440 256 440 151 b 442 126 440 143 440 135 b 329 14 415 79 379 38 z m 328 790 l 335 790 l 460 944 l 382 944 z "},"ă":{"ha":697,"x_min":0,"x_max":0,"o":"m 622 -3 b 554 144 558 -3 554 51 b 554 494 554 144 554 357 b 326 699 554 633 457 699 b 104 565 178 699 128 617 b 135 457 81 515 97 465 b 197 518 174 447 207 482 b 168 619 188 558 147 575 b 322 693 189 667 232 693 b 440 488 424 693 440 606 b 440 364 440 453 440 408 b 367 331 419 351 396 340 b 64 132 271 299 74 279 b 306 -1 54 -7 201 -33 b 442 119 367 18 410 63 b 604 -12 453 7 525 -12 b 669 4 632 -12 651 -7 l 669 11 b 622 -3 661 6 639 -3 z m 329 14 b 160 164 243 -28 144 17 b 372 326 174 289 306 301 b 440 358 401 338 422 347 b 440 151 440 256 440 151 b 442 126 440 143 440 135 b 329 14 415 79 379 38 z m 396 903 b 338 781 390 832 378 781 b 281 903 299 781 286 832 l 204 903 b 338 776 211 811 269 776 b 472 903 407 776 464 811 z "},"â":{"ha":697,"x_min":0,"x_max":0,"o":"m 622 -3 b 554 144 558 -3 554 51 b 554 494 554 144 554 357 b 326 699 554 633 457 699 b 104 565 178 699 128 617 b 135 457 81 515 97 465 b 197 518 174 447 207 482 b 168 619 188 558 147 575 b 322 693 189 667 232 693 b 440 488 424 693 440 606 b 440 364 440 453 440 408 b 367 331 419 351 396 340 b 64 132 271 299 74 279 b 306 -1 54 -7 201 -33 b 442 119 367 18 410 63 b 604 -12 453 7 525 -12 b 669 4 632 -12 651 -7 l 669 11 b 622 -3 661 6 639 -3 z m 329 14 b 160 164 243 -28 144 17 b 372 326 174 289 306 301 b 440 358 401 338 422 347 b 440 151 440 256 440 151 b 442 126 440 143 440 135 b 329 14 415 79 379 38 z m 361 944 l 288 944 l 153 790 l 160 790 l 325 893 l 490 790 l 496 790 z "},"ä":{"ha":697,"x_min":0,"x_max":0,"o":"m 622 -3 b 554 144 558 -3 554 51 b 554 494 554 144 554 357 b 326 699 554 633 457 699 b 104 565 178 699 128 617 b 135 457 81 515 97 465 b 197 518 174 447 207 482 b 168 619 188 558 147 575 b 322 693 189 667 232 693 b 440 488 424 693 440 606 b 440 364 440 453 440 408 b 367 331 419 351 396 340 b 64 132 271 299 74 279 b 306 -1 54 -7 201 -33 b 442 119 367 18 410 63 b 604 -12 453 7 525 -12 b 669 4 632 -12 651 -7 l 669 11 b 622 -3 661 6 639 -3 z m 329 14 b 160 164 243 -28 144 17 b 372 326 174 289 306 301 b 440 358 401 338 422 347 b 440 151 440 256 440 151 b 442 126 440 143 440 135 b 329 14 415 79 379 38 z m 240 929 b 186 875 211 929 186 906 b 240 822 186 846 211 822 b 294 875 269 822 294 846 b 240 929 294 906 269 929 z m 382 929 b 328 875 351 929 328 906 b 382 822 328 846 351 822 b 435 875 411 822 435 846 b 382 929 435 906 411 929 z "},"à":{"ha":697,"x_min":0,"x_max":0,"o":"m 622 -3 b 554 144 558 -3 554 51 b 554 494 554 144 554 357 b 326 699 554 633 457 699 b 104 565 178 699 128 617 b 135 457 81 515 97 465 b 197 518 174 447 207 482 b 168 619 188 558 147 575 b 322 693 189 667 232 693 b 440 488 424 693 440 606 b 440 364 440 453 440 408 b 367 331 419 351 396 340 b 64 132 271 299 74 279 b 306 -1 54 -7 201 -33 b 442 119 367 18 410 63 b 604 -12 453 7 525 -12 b 669 4 632 -12 651 -7 l 669 11 b 622 -3 661 6 639 -3 z m 329 14 b 160 164 243 -28 144 17 b 372 326 174 289 306 301 b 440 358 401 338 422 347 b 440 151 440 256 440 151 b 442 126 440 143 440 135 b 329 14 415 79 379 38 z m 308 944 l 232 944 l 356 790 l 363 790 z "},"ā":{"ha":697,"x_min":0,"x_max":0,"o":"m 622 -3 b 554 144 558 -3 554 51 b 554 494 554 144 554 357 b 326 699 554 633 457 699 b 104 565 178 699 128 617 b 135 457 81 515 97 465 b 197 518 174 447 207 482 b 168 619 188 558 147 575 b 322 693 189 667 232 693 b 440 488 424 693 440 606 b 440 364 440 453 440 408 b 367 331 419 351 396 340 b 64 132 271 299 74 279 b 306 -1 54 -7 201 -33 b 442 119 367 18 410 63 b 604 -12 453 7 525 -12 b 669 4 632 -12 651 -7 l 669 11 b 622 -3 661 6 639 -3 z m 329 14 b 160 164 243 -28 144 17 b 372 326 174 289 306 301 b 440 358 401 338 422 347 b 440 151 440 256 440 151 b 442 126 440 143 440 135 b 329 14 415 79 379 38 z m 190 871 l 190 864 l 432 864 l 432 871 z "},"å":{"ha":697,"x_min":0,"x_max":0,"o":"m 622 -3 b 554 144 558 -3 554 51 b 554 494 554 144 554 357 b 326 699 554 633 457 699 b 104 565 178 699 128 617 b 135 457 81 515 97 465 b 197 518 174 447 207 482 b 168 619 188 558 147 575 b 322 693 189 667 232 693 b 440 488 424 693 440 606 b 440 364 440 453 440 408 b 367 331 419 351 396 340 b 64 132 271 299 74 279 b 306 -1 54 -7 201 -33 b 442 119 367 18 410 63 b 604 -12 453 7 525 -12 b 669 4 632 -12 651 -7 l 669 11 b 622 -3 661 6 639 -3 z m 329 14 b 160 164 243 -28 144 17 b 372 326 174 289 306 301 b 440 358 401 338 422 347 b 440 151 440 256 440 151 b 442 126 440 143 440 135 b 329 14 415 79 379 38 z m 311 774 b 392 854 356 774 392 810 b 311 935 392 899 356 935 b 231 854 267 935 231 899 b 311 774 231 810 267 774 z m 311 928 b 386 854 353 928 386 894 b 311 779 386 813 353 779 b 238 854 271 779 238 813 b 311 928 238 894 271 928 z "},"ã":{"ha":697,"x_min":0,"x_max":0,"o":"m 622 -3 b 554 144 558 -3 554 51 b 554 494 554 144 554 357 b 326 699 554 633 457 699 b 104 565 178 699 128 617 b 135 457 81 515 97 465 b 197 518 174 447 207 482 b 168 619 188 558 147 575 b 322 693 189 667 232 693 b 440 488 424 693 440 606 b 440 364 440 453 440 408 b 367 331 419 351 396 340 b 64 132 271 299 74 279 b 306 -1 54 -7 201 -33 b 442 119 367 18 410 63 b 604 -12 453 7 525 -12 b 669 4 632 -12 651 -7 l 669 11 b 622 -3 661 6 639 -3 z m 329 14 b 160 164 243 -28 144 17 b 372 326 174 289 306 301 b 440 358 401 338 422 347 b 440 151 440 256 440 151 b 442 126 440 143 440 135 b 329 14 415 79 379 38 z m 393 829 b 454 921 447 825 454 903 l 447 921 b 393 896 440 899 431 889 b 258 922 369 900 289 926 b 194 833 206 917 194 835 l 201 833 b 258 858 208 846 225 863 b 393 829 292 856 350 832 z "},"ǽ":{"ha":1146,"x_min":0,"x_max":0,"o":"m 1097 463 b 782 699 1071 621 946 711 b 536 588 686 692 599 653 b 326 699 503 663 424 699 b 106 565 179 699 129 615 b 136 456 82 514 99 464 b 199 518 175 447 207 482 b 168 618 189 557 149 575 b 324 693 190 665 233 693 b 444 488 424 693 444 606 b 444 365 444 444 444 399 b 367 329 424 351 399 340 b 64 131 272 297 75 279 b 307 -1 56 -7 203 -33 b 474 188 390 24 442 101 b 847 -12 539 42 693 -24 b 1065 74 953 -6 1015 31 l 1065 89 b 847 -7 1013 39 936 -4 b 568 321 699 -10 586 114 b 574 463 564 369 567 418 z m 782 693 b 979 468 924 692 968 583 l 575 468 b 782 693 600 599 675 694 z m 331 14 b 161 163 244 -28 146 17 b 374 326 175 289 307 300 b 443 358 404 338 426 349 b 444 317 443 338 444 322 b 472 193 447 271 457 229 b 331 14 446 118 403 49 z m 622 944 l 700 944 l 575 790 l 568 790 z "},"ć":{"ha":694,"x_min":0,"x_max":0,"o":"m 439 -7 b 167 322 290 -8 175 122 b 374 693 158 522 231 682 b 561 626 454 699 533 668 b 543 529 592 582 553 568 b 604 467 533 492 567 458 b 635 575 642 475 658 525 b 374 699 613 626 511 714 b 50 319 181 679 40 551 b 440 -12 60 85 244 -25 b 632 68 525 -7 589 35 l 632 85 b 439 -7 594 44 511 -7 z m 393 790 l 400 790 l 525 944 l 447 944 z "},"č":{"ha":694,"x_min":0,"x_max":0,"o":"m 439 -7 b 167 322 290 -8 175 122 b 374 693 158 522 231 682 b 561 626 454 699 533 668 b 543 529 592 582 553 568 b 604 467 533 492 567 458 b 635 575 642 475 658 525 b 374 699 613 626 511 714 b 50 319 181 679 40 551 b 440 -12 60 85 244 -25 b 632 68 525 -7 589 35 l 632 85 b 439 -7 594 44 511 -7 z m 575 935 l 568 935 l 404 832 l 239 935 l 232 935 l 367 779 l 440 779 z "},"ĉ":{"ha":694,"x_min":0,"x_max":0,"o":"m 439 -7 b 167 322 290 -8 175 122 b 374 693 158 522 231 682 b 561 626 454 699 533 668 b 543 529 592 582 553 568 b 604 467 533 492 567 458 b 635 575 642 475 658 525 b 374 699 613 626 511 714 b 50 319 181 679 40 551 b 440 -12 60 85 244 -25 b 632 68 525 -7 589 35 l 632 85 b 439 -7 594 44 511 -7 z m 426 944 l 353 944 l 218 790 l 225 790 l 390 893 l 556 790 l 561 790 z "},"ċ":{"ha":694,"x_min":0,"x_max":0,"o":"m 439 -7 b 167 322 290 -8 175 122 b 374 693 158 522 231 682 b 561 626 454 699 533 668 b 543 529 592 582 553 568 b 604 467 533 492 567 458 b 635 575 642 475 658 525 b 374 699 613 626 511 714 b 50 319 181 679 40 551 b 440 -12 60 85 244 -25 b 632 68 525 -7 589 35 l 632 85 b 439 -7 594 44 511 -7 z m 403 929 b 349 875 374 929 349 906 b 403 822 349 846 374 822 b 457 875 432 822 457 846 b 403 929 457 906 432 929 z "},"ď":{"ha":906,"x_min":0,"x_max":0,"o":"m 672 160 l 672 807 b 696 1015 672 946 682 1008 l 696 1022 l 471 1022 l 471 1015 b 558 864 550 1015 557 965 l 558 697 b 319 683 481 700 414 707 b 57 343 172 647 64 535 b 343 -12 50 128 151 -12 b 558 199 447 -12 531 47 b 535 7 557 71 547 14 l 535 0 l 760 0 l 760 7 b 672 160 681 7 674 58 z m 378 0 b 171 343 235 0 161 149 b 353 681 181 533 251 643 b 558 690 400 697 501 697 l 558 243 b 542 151 556 213 550 183 b 378 0 518 71 461 0 z m 939 972 b 890 1028 938 1003 922 1025 b 833 981 861 1031 836 1010 b 882 922 831 950 853 925 b 933 943 900 921 924 926 b 851 849 935 917 924 842 l 851 843 b 939 972 933 839 942 917 z "},"é":{"ha":751,"x_min":0,"x_max":0,"o":"m 50 318 b 50 318 50 321 50 315 z m 703 463 b 388 699 676 621 551 711 b 50 318 194 685 36 533 b 453 -12 67 89 257 -25 b 671 75 558 -6 621 32 l 671 90 b 453 -7 618 39 542 -6 b 174 322 304 -11 192 115 b 179 463 169 371 172 419 z m 388 693 b 585 468 529 690 574 582 l 181 468 b 388 693 206 599 281 694 z m 379 790 l 386 790 l 511 944 l 433 944 z "},"ĕ":{"ha":751,"x_min":0,"x_max":0,"o":"m 50 318 b 50 318 50 321 50 315 z m 703 463 b 388 699 676 621 551 711 b 50 318 194 685 36 533 b 453 -12 67 89 257 -25 b 671 75 558 -6 621 32 l 671 90 b 453 -7 618 39 542 -6 b 174 322 304 -11 192 115 b 179 463 169 371 172 419 z m 388 693 b 585 468 529 690 574 582 l 181 468 b 388 693 206 599 281 694 z m 447 903 b 389 781 442 832 429 781 b 332 903 350 781 338 832 l 256 903 b 389 776 263 811 321 776 b 524 903 458 776 515 811 z "},"ě":{"ha":751,"x_min":0,"x_max":0,"o":"m 50 318 b 50 318 50 321 50 315 z m 703 463 b 388 699 676 621 551 711 b 50 318 194 685 36 533 b 453 -12 67 89 257 -25 b 671 75 558 -6 621 32 l 671 90 b 453 -7 618 39 542 -6 b 174 322 304 -11 192 115 b 179 463 169 371 172 419 z m 388 693 b 585 468 529 690 574 582 l 181 468 b 388 693 206 599 281 694 z m 561 935 l 554 935 l 390 832 l 225 935 l 218 935 l 353 779 l 426 779 z "},"ê":{"ha":751,"x_min":0,"x_max":0,"o":"m 50 318 b 50 318 50 321 50 315 z m 703 463 b 388 699 676 621 551 711 b 50 318 194 685 36 533 b 453 -12 67 89 257 -25 b 671 75 558 -6 621 32 l 671 90 b 453 -7 618 39 542 -6 b 174 322 304 -11 192 115 b 179 463 169 371 172 419 z m 388 693 b 585 468 529 690 574 582 l 181 468 b 388 693 206 599 281 694 z m 426 944 l 353 944 l 218 790 l 225 790 l 390 893 l 556 790 l 561 790 z "},"ë":{"ha":751,"x_min":0,"x_max":0,"o":"m 50 318 b 50 318 50 321 50 315 z m 703 463 b 388 699 676 621 551 711 b 50 318 194 685 36 533 b 453 -12 67 89 257 -25 b 671 75 558 -6 621 32 l 671 90 b 453 -7 618 39 542 -6 b 174 322 304 -11 192 115 b 179 463 169 371 172 419 z m 388 693 b 585 468 529 690 574 582 l 181 468 b 388 693 206 599 281 694 z m 319 929 b 265 875 290 929 265 906 b 319 822 265 846 290 822 b 374 875 349 822 374 846 b 319 929 374 906 349 929 z m 461 929 b 407 875 431 929 407 906 b 461 822 407 846 431 822 b 514 875 490 822 514 846 b 461 929 514 906 490 929 z "},"ė":{"ha":751,"x_min":0,"x_max":0,"o":"m 50 318 b 50 318 50 321 50 315 z m 703 463 b 388 699 676 621 551 711 b 50 318 194 685 36 533 b 453 -12 67 89 257 -25 b 671 75 558 -6 621 32 l 671 90 b 453 -7 618 39 542 -6 b 174 322 304 -11 192 115 b 179 463 169 371 172 419 z m 388 693 b 585 468 529 690 574 582 l 181 468 b 388 693 206 599 281 694 z m 390 929 b 336 875 361 929 336 906 b 390 822 336 846 361 822 b 444 875 419 822 444 846 b 390 929 444 906 419 929 z "},"è":{"ha":751,"x_min":0,"x_max":0,"o":"m 50 318 b 50 318 50 321 50 315 z m 703 463 b 388 699 676 621 551 711 b 50 318 194 685 36 533 b 453 -12 67 89 257 -25 b 671 75 558 -6 621 32 l 671 90 b 453 -7 618 39 542 -6 b 174 322 304 -11 192 115 b 179 463 169 371 172 419 z m 388 693 b 585 468 529 690 574 582 l 181 468 b 388 693 206 599 281 694 z m 332 944 l 256 944 l 379 790 l 386 790 z "},"ē":{"ha":751,"x_min":0,"x_max":0,"o":"m 50 318 b 50 318 50 321 50 315 z m 703 463 b 388 699 676 621 551 711 b 50 318 194 685 36 533 b 453 -12 67 89 257 -25 b 671 75 558 -6 621 32 l 671 90 b 453 -7 618 39 542 -6 b 174 322 304 -11 192 115 b 179 463 169 371 172 419 z m 388 693 b 585 468 529 690 574 582 l 181 468 b 388 693 206 599 281 694 z m 256 871 l 256 864 l 497 864 l 497 871 z "},"ğ":{"ha":711,"x_min":0,"x_max":0,"o":"m 689 -40 b 263 78 647 67 511 21 b 236 188 165 100 150 158 b 371 168 279 171 326 164 b 611 431 492 181 617 274 b 508 607 608 513 565 571 b 536 656 514 628 524 646 b 619 650 568 686 586 654 b 664 713 651 647 681 676 b 568 724 649 746 607 749 b 504 610 546 708 517 665 b 329 649 451 640 386 653 b 88 385 207 636 75 544 b 232 189 96 285 157 221 b 138 125 200 179 160 164 b 154 17 121 96 119 46 b 585 -81 256 -64 521 -28 b 490 -310 639 -124 625 -239 b 104 -208 350 -383 115 -374 b 210 -57 97 -107 151 -64 b 322 -71 265 -50 322 -71 l 322 -57 b 217 -51 289 -51 253 -50 b 17 -218 114 -53 -4 -90 b 444 -339 36 -343 279 -385 b 689 -40 613 -292 729 -140 z m 329 643 b 508 424 419 651 496 563 b 369 174 519 285 460 183 b 190 393 279 165 204 254 b 329 643 179 532 239 633 z m 400 903 b 342 781 394 832 382 781 b 285 903 303 781 290 832 l 208 903 b 342 776 215 811 274 776 b 476 903 411 776 468 811 z "},"ĝ":{"ha":711,"x_min":0,"x_max":0,"o":"m 689 -40 b 263 78 647 67 511 21 b 236 188 165 100 150 158 b 371 168 279 171 326 164 b 611 431 492 181 617 274 b 508 607 608 513 565 571 b 536 656 514 628 524 646 b 619 650 568 686 586 654 b 664 713 651 647 681 676 b 568 724 649 746 607 749 b 504 610 546 708 517 665 b 329 649 451 640 386 653 b 88 385 207 636 75 544 b 232 189 96 285 157 221 b 138 125 200 179 160 164 b 154 17 121 96 119 46 b 585 -81 256 -64 521 -28 b 490 -310 639 -124 625 -239 b 104 -208 350 -383 115 -374 b 210 -57 97 -107 151 -64 b 322 -71 265 -50 322 -71 l 322 -57 b 217 -51 289 -51 253 -50 b 17 -218 114 -53 -4 -90 b 444 -339 36 -343 279 -385 b 689 -40 613 -292 729 -140 z m 329 643 b 508 424 419 651 496 563 b 369 174 519 285 460 183 b 190 393 279 165 204 254 b 329 643 179 532 239 633 z m 379 944 l 306 944 l 171 790 l 178 790 l 343 893 l 508 790 l 514 790 z "},"ģ":{"ha":711,"x_min":0,"x_max":0,"o":"m 689 -40 b 263 78 647 67 511 21 b 236 188 165 100 150 158 b 371 168 279 171 326 164 b 611 431 492 181 617 274 b 508 607 608 513 565 571 b 536 656 514 628 524 646 b 619 650 568 686 586 654 b 664 713 651 647 681 676 b 568 724 649 746 607 749 b 504 610 546 708 517 665 b 329 649 451 640 386 653 b 88 385 207 636 75 544 b 232 189 96 285 157 221 b 138 125 200 179 160 164 b 154 17 121 96 119 46 b 585 -81 256 -64 521 -28 b 490 -310 639 -124 625 -239 b 104 -208 350 -383 115 -374 b 210 -57 97 -107 151 -64 b 322 -71 265 -50 322 -71 l 322 -57 b 217 -51 289 -51 253 -50 b 17 -218 114 -53 -4 -90 b 444 -339 36 -343 279 -385 b 689 -40 613 -292 729 -140 z m 329 643 b 508 424 419 651 496 563 b 369 174 519 285 460 183 b 190 393 279 165 204 254 b 329 643 179 532 239 633 z m 303 829 b 350 774 304 800 319 776 b 408 822 381 771 406 793 b 360 881 411 851 389 876 b 308 858 342 882 318 875 b 389 954 307 885 315 960 l 389 958 b 303 829 308 963 300 886 z "},"ġ":{"ha":711,"x_min":0,"x_max":0,"o":"m 689 -40 b 263 78 647 67 511 21 b 236 188 165 100 150 158 b 371 168 279 171 326 164 b 611 431 492 181 617 274 b 508 607 608 513 565 571 b 536 656 514 628 524 646 b 619 650 568 686 586 654 b 664 713 651 647 681 676 b 568 724 649 746 607 749 b 504 610 546 708 517 665 b 329 649 451 640 386 653 b 88 385 207 636 75 544 b 232 189 96 285 157 221 b 138 125 200 179 160 164 b 154 17 121 96 119 46 b 585 -81 256 -64 521 -28 b 490 -310 639 -124 625 -239 b 104 -208 350 -383 115 -374 b 210 -57 97 -107 151 -64 b 322 -71 265 -50 322 -71 l 322 -57 b 217 -51 289 -51 253 -50 b 17 -218 114 -53 -4 -90 b 444 -339 36 -343 279 -385 b 689 -40 613 -292 729 -140 z m 329 643 b 508 424 419 651 496 563 b 369 174 519 285 460 183 b 190 393 279 165 204 254 b 329 643 179 532 239 633 z m 342 929 b 288 875 313 929 288 906 b 342 822 288 846 313 822 b 396 875 371 822 396 846 b 342 929 396 906 371 929 z "},"ĥ":{"ha":872,"x_min":0,"x_max":0,"o":"m 715 160 l 715 478 b 478 700 715 643 615 700 b 272 569 376 700 306 639 l 272 807 b 296 1015 272 946 282 1008 l 296 1022 l 69 1022 l 69 1015 b 157 864 149 1015 157 965 l 157 160 b 69 7 157 58 149 7 l 69 0 l 360 0 l 360 7 b 272 160 281 7 272 58 l 272 553 b 450 690 303 639 390 690 b 601 485 585 690 601 579 l 601 160 b 514 7 601 58 593 7 l 514 0 l 803 0 l 803 7 b 715 160 724 7 717 58 z m 281 1224 l 207 1224 l 72 1069 l 79 1069 l 244 1172 l 410 1069 l 415 1069 z "},"í":{"ha":428,"x_min":0,"x_max":0,"o":"m 271 160 l 271 469 b 294 679 271 610 281 672 l 294 686 l 69 686 l 69 679 b 157 528 149 679 156 629 l 157 160 b 69 7 156 58 149 7 l 69 0 l 358 0 l 358 7 b 271 160 279 7 271 58 z m 204 790 l 211 790 l 336 944 l 258 944 z "},"ĭ":{"ha":428,"x_min":0,"x_max":0,"o":"m 271 160 l 271 469 b 294 679 271 610 281 672 l 294 686 l 69 686 l 69 679 b 157 528 149 679 156 629 l 157 160 b 69 7 156 58 149 7 l 69 0 l 358 0 l 358 7 b 271 160 279 7 271 58 z m 272 903 b 214 781 267 832 254 781 b 157 903 175 781 163 832 l 81 903 b 214 776 88 811 146 776 b 349 903 283 776 340 811 z "},"î":{"ha":428,"x_min":0,"x_max":0,"o":"m 271 160 l 271 469 b 294 679 271 610 281 672 l 294 686 l 69 686 l 69 679 b 157 528 149 679 156 629 l 157 160 b 69 7 156 58 149 7 l 69 0 l 358 0 l 358 7 b 271 160 279 7 271 58 z m 238 944 l 164 944 l 29 790 l 36 790 l 201 893 l 367 790 l 372 790 z "},"ï":{"ha":428,"x_min":0,"x_max":0,"o":"m 271 160 l 271 469 b 294 679 271 610 281 672 l 294 686 l 69 686 l 69 679 b 157 528 149 679 156 629 l 157 160 b 69 7 156 58 149 7 l 69 0 l 358 0 l 358 7 b 271 160 279 7 271 58 z m 131 929 b 76 875 101 929 76 906 b 131 822 76 846 101 822 b 185 875 160 822 185 846 b 131 929 185 906 160 929 z m 272 929 b 218 875 242 929 218 906 b 272 822 218 846 242 822 b 325 875 301 822 325 846 b 272 929 325 906 301 929 z "},"ì":{"ha":428,"x_min":0,"x_max":0,"o":"m 271 160 l 271 469 b 294 679 271 610 281 672 l 294 686 l 69 686 l 69 679 b 157 528 149 679 156 629 l 157 160 b 69 7 156 58 149 7 l 69 0 l 358 0 l 358 7 b 271 160 279 7 271 58 z m 169 944 l 93 944 l 217 790 l 224 790 z "},"ī":{"ha":428,"x_min":0,"x_max":0,"o":"m 271 160 l 271 469 b 294 679 271 610 281 672 l 294 686 l 69 686 l 69 679 b 157 528 149 679 156 629 l 157 160 b 69 7 156 58 149 7 l 69 0 l 358 0 l 358 7 b 271 160 279 7 271 58 z m 65 871 l 65 864 l 307 864 l 307 871 z "},"ĩ":{"ha":428,"x_min":0,"x_max":0,"o":"m 271 160 l 271 469 b 294 679 271 610 281 672 l 294 686 l 69 686 l 69 679 b 157 528 149 679 156 629 l 157 160 b 69 7 156 58 149 7 l 69 0 l 358 0 l 358 7 b 271 160 279 7 271 58 z m 269 829 b 331 921 324 825 331 903 l 324 921 b 269 896 317 899 307 889 b 135 922 246 900 165 926 b 71 833 82 917 71 835 l 78 833 b 135 858 85 846 101 863 b 269 829 168 856 226 832 z "},"ĳ":{"ha":829,"x_min":0,"x_max":0,"o":"m 271 160 l 271 469 b 294 679 271 610 281 672 l 294 686 l 69 686 l 69 679 b 157 528 149 679 156 629 l 157 160 b 69 7 156 58 149 7 l 69 0 l 358 0 l 358 7 b 271 160 279 7 271 58 z m 214 832 b 288 908 254 832 288 865 b 214 986 288 951 254 986 b 140 908 172 986 140 951 b 214 832 140 865 172 832 z m 471 686 l 471 679 b 558 528 550 679 558 629 l 558 -121 b 414 -397 558 -276 501 -367 l 414 -407 b 674 -104 563 -393 674 -312 l 674 469 b 697 679 674 610 683 672 l 697 686 z m 615 832 b 690 908 657 832 690 865 b 615 986 690 951 657 986 b 542 908 575 986 542 951 b 615 832 542 865 575 832 z "},"ı":{"ha":428,"x_min":0,"x_max":0,"o":"m 271 160 l 271 469 b 294 679 271 610 281 672 l 294 686 l 69 686 l 69 679 b 157 528 149 679 156 629 l 157 160 b 69 7 156 58 149 7 l 69 0 l 358 0 l 358 7 b 271 160 279 7 271 58 z "},"ĵ":{"ha":428,"x_min":0,"x_max":0,"o":"m 67 686 l 67 679 b 154 528 146 679 154 629 l 154 -121 b 10 -397 154 -276 97 -367 l 10 -407 b 269 -104 158 -393 269 -312 l 269 469 b 293 679 269 610 279 672 l 293 686 z m 161 944 l 88 944 l -47 790 l -40 790 l 125 893 l 290 790 l 296 790 z "},"ķ":{"ha":864,"x_min":0,"x_max":0,"o":"m 625 165 b 424 467 572 239 436 447 b 540 579 461 503 501 543 b 753 679 617 651 718 679 l 753 686 l 457 686 l 457 679 b 543 651 504 679 532 669 b 533 582 557 631 551 600 b 272 326 474 522 307 361 l 272 807 b 296 1015 272 946 282 1008 l 296 1022 l 69 1022 l 69 1015 b 157 864 149 1015 157 965 l 157 160 b 69 7 157 58 149 7 l 69 0 l 360 0 l 360 7 b 272 160 281 7 272 58 l 272 317 b 340 385 283 328 308 353 l 585 0 l 836 0 l 836 7 b 625 165 744 7 685 81 z m 519 -183 b 458 -114 518 -146 499 -117 b 386 -175 422 -110 389 -137 b 447 -247 382 -211 410 -243 b 513 -221 469 -250 500 -242 b 410 -342 514 -254 503 -349 l 410 -347 b 519 -183 513 -351 522 -254 z "},"ĸ":{"ha":864,"x_min":0,"x_max":0,"o":"m 625 165 b 424 467 572 239 436 447 b 540 579 461 503 501 543 b 753 679 617 651 718 679 l 753 686 l 457 686 l 457 679 b 543 651 504 679 532 669 b 533 582 557 631 551 600 b 272 326 474 522 307 361 l 272 471 b 296 679 272 610 282 672 l 296 686 l 69 686 l 69 679 b 157 528 149 679 157 629 l 157 160 b 69 7 157 58 149 7 l 69 0 l 360 0 l 360 7 b 272 160 281 7 272 58 l 272 317 b 340 385 283 328 308 353 l 585 0 l 836 0 l 836 7 b 625 165 744 7 685 81 z "},"ĺ":{"ha":429,"x_min":0,"x_max":0,"o":"m 272 160 l 272 807 b 296 1015 272 946 282 1008 l 296 1022 l 69 1022 l 69 1015 b 157 864 149 1015 157 965 l 157 160 b 69 7 157 58 149 7 l 69 0 l 360 0 l 360 7 b 272 160 281 7 272 58 z m 190 1069 l 197 1069 l 322 1224 l 244 1224 z "},"ľ":{"ha":471,"x_min":0,"x_max":0,"o":"m 272 160 l 272 807 b 296 1015 272 946 282 1008 l 296 1022 l 69 1022 l 69 1015 b 157 864 149 1015 157 965 l 157 160 b 69 7 157 58 149 7 l 69 0 l 360 0 l 360 7 b 272 160 281 7 272 58 z m 539 972 b 490 1028 538 1003 522 1025 b 433 981 461 1031 436 1010 b 482 922 431 950 453 925 b 533 943 500 921 524 926 b 451 849 535 917 524 842 l 451 843 b 539 972 533 839 542 917 z "},"ļ":{"ha":429,"x_min":0,"x_max":0,"o":"m 272 160 l 272 807 b 296 1015 272 946 282 1008 l 296 1022 l 69 1022 l 69 1015 b 157 864 149 1015 157 965 l 157 160 b 69 7 157 58 149 7 l 69 0 l 360 0 l 360 7 b 272 160 281 7 272 58 z m 282 -183 b 221 -114 281 -146 261 -117 b 149 -175 185 -110 151 -137 b 210 -247 144 -211 172 -243 b 275 -221 232 -250 263 -242 b 172 -342 276 -254 265 -349 l 172 -347 b 282 -183 275 -351 285 -254 z "},"ŀ":{"ha":460,"x_min":0,"x_max":0,"o":"m 272 160 l 272 807 b 296 1015 272 946 282 1008 l 296 1022 l 69 1022 l 69 1015 b 157 864 149 1015 157 965 l 157 160 b 69 7 157 58 149 7 l 69 0 l 360 0 l 360 7 b 272 160 281 7 272 58 z m 426 518 b 372 464 397 518 372 494 b 426 411 372 435 397 411 b 481 464 456 411 481 435 b 426 518 481 494 456 518 z "},"ń":{"ha":872,"x_min":0,"x_max":0,"o":"m 715 160 l 715 478 b 478 700 715 642 615 700 b 274 572 379 700 310 642 b 296 679 278 642 286 675 l 296 686 l 69 686 l 69 679 b 157 526 149 679 157 629 l 157 160 b 69 7 157 58 149 7 l 69 0 l 360 0 l 360 7 b 272 160 281 7 272 58 l 272 471 b 274 556 272 503 272 531 b 450 690 306 640 392 690 b 601 485 585 690 601 578 l 601 160 b 514 7 601 58 593 7 l 514 0 l 803 0 l 803 7 b 715 160 724 7 717 57 z m 454 790 l 461 790 l 586 944 l 508 944 z "},"ŉ":{"ha":1089,"x_min":0,"x_max":0,"o":"m 932 160 l 932 478 b 694 700 932 642 832 700 b 490 572 596 700 526 642 b 513 679 494 642 503 675 l 513 686 l 286 686 l 286 679 b 374 526 365 679 374 629 l 374 160 b 286 7 374 58 365 7 l 286 0 l 576 0 l 576 7 b 489 160 497 7 489 58 l 489 471 b 490 556 489 503 489 531 b 667 690 522 640 608 690 b 818 485 801 690 818 578 l 818 160 b 731 7 818 58 810 7 l 731 0 l 1019 0 l 1019 7 b 932 160 940 7 933 57 z m 204 625 b 143 694 203 663 183 692 b 71 633 107 699 74 671 b 132 561 67 597 94 565 b 197 588 154 558 185 567 b 94 467 199 554 188 460 l 94 461 b 204 625 197 457 207 554 z "},"ň":{"ha":872,"x_min":0,"x_max":0,"o":"m 715 160 l 715 478 b 478 700 715 642 615 700 b 274 572 379 700 310 642 b 296 679 278 642 286 675 l 296 686 l 69 686 l 69 679 b 157 526 149 679 157 629 l 157 160 b 69 7 157 58 149 7 l 69 0 l 360 0 l 360 7 b 272 160 281 7 272 58 l 272 471 b 274 556 272 503 272 531 b 450 690 306 640 392 690 b 601 485 585 690 601 578 l 601 160 b 514 7 601 58 593 7 l 514 0 l 803 0 l 803 7 b 715 160 724 7 717 57 z m 635 935 l 628 935 l 464 832 l 299 935 l 292 935 l 426 779 l 500 779 z "},"ņ":{"ha":872,"x_min":0,"x_max":0,"o":"m 715 160 l 715 478 b 478 700 715 642 615 700 b 274 572 379 700 310 642 b 296 679 278 642 286 675 l 296 686 l 69 686 l 69 679 b 157 526 149 679 157 629 l 157 160 b 69 7 157 58 149 7 l 69 0 l 360 0 l 360 7 b 272 160 281 7 272 58 l 272 471 b 274 556 272 503 272 531 b 450 690 306 640 392 690 b 601 485 585 690 601 578 l 601 160 b 514 7 601 58 593 7 l 514 0 l 803 0 l 803 7 b 715 160 724 7 717 57 z m 503 -183 b 442 -114 501 -146 482 -117 b 369 -175 406 -110 372 -137 b 431 -247 365 -211 393 -243 b 496 -221 453 -250 483 -242 b 393 -342 497 -254 486 -349 l 393 -347 b 503 -183 496 -351 506 -254 z "},"ñ":{"ha":872,"x_min":0,"x_max":0,"o":"m 715 160 l 715 478 b 478 700 715 642 615 700 b 274 572 379 700 310 642 b 296 679 278 642 286 675 l 296 686 l 69 686 l 69 679 b 157 526 149 679 157 629 l 157 160 b 69 7 157 58 149 7 l 69 0 l 360 0 l 360 7 b 272 160 281 7 272 58 l 272 471 b 274 556 272 503 272 531 b 450 690 306 640 392 690 b 601 485 585 690 601 578 l 601 160 b 514 7 601 58 593 7 l 514 0 l 803 0 l 803 7 b 715 160 724 7 717 57 z m 532 829 b 593 921 586 825 593 903 l 586 921 b 532 896 579 899 569 889 b 397 922 508 900 428 926 b 333 833 344 917 333 835 l 340 833 b 397 858 347 846 364 863 b 532 829 431 856 489 832 z "},"ó":{"ha":821,"x_min":0,"x_max":0,"o":"m 394 699 b 56 310 188 685 43 522 b 457 -12 68 94 256 -32 b 769 374 654 6 776 181 b 394 699 763 583 590 713 z m 457 -7 b 176 318 306 -26 193 100 b 394 693 161 531 243 681 b 647 368 538 704 636 540 b 457 -7 660 182 586 11 z m 386 790 l 393 790 l 518 944 l 440 944 z "},"ŏ":{"ha":821,"x_min":0,"x_max":0,"o":"m 394 699 b 56 310 188 685 43 522 b 457 -12 68 94 256 -32 b 769 374 654 6 776 181 b 394 699 763 583 590 713 z m 457 -7 b 176 318 306 -26 193 100 b 394 693 161 531 243 681 b 647 368 538 704 636 540 b 457 -7 660 182 586 11 z m 468 903 b 410 781 463 832 450 781 b 353 903 371 781 358 832 l 276 903 b 410 776 283 811 342 776 b 544 903 479 776 536 811 z "},"ô":{"ha":821,"x_min":0,"x_max":0,"o":"m 394 699 b 56 310 188 685 43 522 b 457 -12 68 94 256 -32 b 769 374 654 6 776 181 b 394 699 763 583 590 713 z m 457 -7 b 176 318 306 -26 193 100 b 394 693 161 531 243 681 b 647 368 538 704 636 540 b 457 -7 660 182 586 11 z m 447 944 l 374 944 l 239 790 l 246 790 l 411 893 l 576 790 l 582 790 z "},"ö":{"ha":821,"x_min":0,"x_max":0,"o":"m 394 699 b 56 310 188 685 43 522 b 457 -12 68 94 256 -32 b 769 374 654 6 776 181 b 394 699 763 583 590 713 z m 457 -7 b 176 318 306 -26 193 100 b 394 693 161 531 243 681 b 647 368 538 704 636 540 b 457 -7 660 182 586 11 z m 340 929 b 286 875 311 929 286 906 b 340 822 286 846 311 822 b 394 875 369 822 394 846 b 340 929 394 906 369 929 z m 482 929 b 428 875 451 929 428 906 b 482 822 428 846 451 822 b 535 875 511 822 535 846 b 482 929 535 906 511 929 z "},"ò":{"ha":821,"x_min":0,"x_max":0,"o":"m 394 699 b 56 310 188 685 43 522 b 457 -12 68 94 256 -32 b 769 374 654 6 776 181 b 394 699 763 583 590 713 z m 457 -7 b 176 318 306 -26 193 100 b 394 693 161 531 243 681 b 647 368 538 704 636 540 b 457 -7 660 182 586 11 z m 353 944 l 276 944 l 400 790 l 407 790 z "},"ő":{"ha":821,"x_min":0,"x_max":0,"o":"m 394 699 b 56 310 188 685 43 522 b 457 -12 68 94 256 -32 b 769 374 654 6 776 181 b 394 699 763 583 590 713 z m 457 -7 b 176 318 306 -26 193 100 b 394 693 161 531 243 681 b 647 368 538 704 636 540 b 457 -7 660 182 586 11 z m 453 790 l 460 790 l 585 944 l 507 944 z m 349 790 l 356 790 l 481 944 l 403 944 z "},"ō":{"ha":821,"x_min":0,"x_max":0,"o":"m 394 699 b 56 310 188 685 43 522 b 457 -12 68 94 256 -32 b 769 374 654 6 776 181 b 394 699 763 583 590 713 z m 457 -7 b 176 318 306 -26 193 100 b 394 693 161 531 243 681 b 647 368 538 704 636 540 b 457 -7 660 182 586 11 z m 290 871 l 290 864 l 532 864 l 532 871 z "},"ǿ":{"ha":821,"x_min":0,"x_max":0,"o":"m 394 699 b 56 310 188 685 43 522 b 457 -12 68 94 256 -32 b 769 374 654 6 776 181 b 394 699 763 583 590 713 z m 457 -7 b 176 318 306 -26 193 100 b 394 693 161 531 243 681 b 647 368 538 704 636 540 b 457 -7 660 182 586 11 z m 508 976 l 307 -10 l 314 -10 l 515 976 z m 399 944 l 476 944 l 351 790 l 344 790 z "},"õ":{"ha":821,"x_min":0,"x_max":0,"o":"m 394 699 b 56 310 188 685 43 522 b 457 -12 68 94 256 -32 b 769 374 654 6 776 181 b 394 699 763 583 590 713 z m 457 -7 b 176 318 306 -26 193 100 b 394 693 161 531 243 681 b 647 368 538 704 636 540 b 457 -7 660 182 586 11 z m 479 829 b 540 921 533 825 540 903 l 533 921 b 479 896 526 899 517 889 b 344 922 456 900 375 926 b 281 833 292 917 281 835 l 288 833 b 344 858 294 846 311 863 b 479 829 378 856 436 832 z "},"ŕ":{"ha":615,"x_min":0,"x_max":0,"o":"m 468 699 b 271 488 415 693 306 614 b 294 679 272 615 282 672 l 294 686 l 69 686 l 69 679 b 157 526 149 679 157 629 l 157 160 b 69 7 157 58 149 7 l 69 0 l 358 0 l 358 7 b 271 160 279 7 272 58 l 272 472 b 397 644 292 549 349 631 b 483 593 449 660 449 615 b 565 635 515 572 564 588 b 468 699 567 679 524 706 z m 308 790 l 315 790 l 440 944 l 363 944 z "},"ř":{"ha":615,"x_min":0,"x_max":0,"o":"m 468 699 b 271 488 415 693 306 614 b 294 679 272 615 282 672 l 294 686 l 69 686 l 69 679 b 157 526 149 679 157 629 l 157 160 b 69 7 157 58 149 7 l 69 0 l 358 0 l 358 7 b 271 160 279 7 272 58 l 272 472 b 397 644 292 549 349 631 b 483 593 449 660 449 615 b 565 635 515 572 564 588 b 468 699 567 679 524 706 z m 504 935 l 497 935 l 333 832 l 168 935 l 161 935 l 296 779 l 369 779 z "},"ŗ":{"ha":615,"x_min":0,"x_max":0,"o":"m 468 699 b 271 488 415 693 306 614 b 294 679 272 615 282 672 l 294 686 l 69 686 l 69 679 b 157 526 149 679 157 629 l 157 160 b 69 7 157 58 149 7 l 69 0 l 358 0 l 358 7 b 271 160 279 7 272 58 l 272 472 b 397 644 292 549 349 631 b 483 593 449 660 449 615 b 565 635 515 572 564 588 b 468 699 567 679 524 706 z m 283 -183 b 222 -114 282 -146 263 -117 b 150 -175 186 -110 153 -137 b 211 -247 146 -211 174 -243 b 276 -221 233 -250 264 -242 b 174 -342 278 -254 267 -349 l 174 -347 b 283 -183 276 -351 286 -254 z "},"ś":{"ha":629,"x_min":0,"x_max":0,"o":"m 194 565 b 328 693 194 632 240 693 b 456 646 404 693 431 672 b 446 540 489 608 449 581 b 517 489 442 503 481 475 b 529 601 551 504 560 556 b 328 699 503 640 451 699 b 96 535 186 699 96 642 b 463 121 96 296 463 289 b 311 -7 463 51 401 -7 b 153 50 224 -7 179 19 b 165 160 117 90 163 119 b 94 211 169 197 131 225 b 82 99 60 197 51 144 b 311 -12 108 60 183 -12 b 567 171 475 -12 567 53 b 194 565 567 374 194 397 z m 332 790 l 339 790 l 464 944 l 386 944 z "},"š":{"ha":629,"x_min":0,"x_max":0,"o":"m 194 565 b 328 693 194 632 240 693 b 456 646 404 693 431 672 b 446 540 489 608 449 581 b 517 489 442 503 481 475 b 529 601 551 504 560 556 b 328 699 503 640 451 699 b 96 535 186 699 96 642 b 463 121 96 296 463 289 b 311 -7 463 51 401 -7 b 153 50 224 -7 179 19 b 165 160 117 90 163 119 b 94 211 169 197 131 225 b 82 99 60 197 51 144 b 311 -12 108 60 183 -12 b 567 171 475 -12 567 53 b 194 565 567 374 194 397 z m 500 935 l 493 935 l 329 832 l 164 935 l 157 935 l 292 779 l 365 779 z "},"ŝ":{"ha":629,"x_min":0,"x_max":0,"o":"m 194 565 b 328 693 194 632 240 693 b 456 646 404 693 431 672 b 446 540 489 608 449 581 b 517 489 442 503 481 475 b 529 601 551 504 560 556 b 328 699 503 640 451 699 b 96 535 186 699 96 642 b 463 121 96 296 463 289 b 311 -7 463 51 401 -7 b 153 50 224 -7 179 19 b 165 160 117 90 163 119 b 94 211 169 197 131 225 b 82 99 60 197 51 144 b 311 -12 108 60 183 -12 b 567 171 475 -12 567 53 b 194 565 567 374 194 397 z m 365 944 l 292 944 l 157 790 l 164 790 l 329 893 l 494 790 l 500 790 z "},"ș":{"ha":629,"x_min":0,"x_max":0,"o":"m 194 565 b 328 693 194 632 240 693 b 456 646 404 693 431 672 b 446 540 489 608 449 581 b 517 489 442 503 481 475 b 529 601 551 504 560 556 b 328 699 503 640 451 699 b 96 535 186 699 96 642 b 463 121 96 296 463 289 b 311 -7 463 51 401 -7 b 153 50 224 -7 179 19 b 165 160 117 90 163 119 b 94 211 169 197 131 225 b 82 99 60 197 51 144 b 311 -12 108 60 183 -12 b 567 171 475 -12 567 53 b 194 565 567 374 194 397 z m 396 -183 b 335 -114 394 -146 375 -117 b 263 -175 299 -110 265 -137 b 324 -247 258 -211 286 -243 b 389 -221 346 -250 376 -242 b 286 -342 390 -254 379 -349 l 286 -347 b 396 -183 389 -351 399 -254 z "},"ť":{"ha":608,"x_min":0,"x_max":0,"o":"m 351 -4 b 240 178 261 -4 240 83 l 240 679 l 385 679 l 385 686 l 240 686 l 240 840 l 233 840 b 126 736 217 763 181 743 b 126 686 126 729 126 686 b 63 686 126 686 85 686 l 63 679 l 126 679 b 126 185 126 560 126 185 b 331 -14 126 19 238 -14 b 406 3 365 -14 389 -7 l 406 11 b 351 -4 399 7 375 -4 z m 572 788 b 524 843 571 818 556 840 b 467 796 494 846 469 825 b 515 738 464 765 486 740 b 567 758 533 736 557 742 b 485 664 568 732 557 657 l 485 658 b 572 788 567 654 575 732 z "},"ţ":{"ha":440,"x_min":0,"x_max":0,"o":"m 351 -4 b 240 178 261 -4 240 83 l 240 679 l 385 679 l 385 686 l 240 686 l 240 840 l 233 840 b 126 736 217 763 181 743 b 126 686 126 729 126 686 b 63 686 126 686 85 686 l 63 679 l 126 679 b 126 185 126 560 126 185 b 331 -14 126 19 238 -14 b 406 3 365 -14 389 -7 l 406 11 b 351 -4 399 7 375 -4 z m 328 -183 b 267 -114 326 -146 307 -117 b 194 -175 231 -110 197 -137 b 256 -247 190 -211 218 -243 b 321 -221 278 -250 308 -242 b 218 -342 322 -254 311 -349 l 218 -347 b 328 -183 321 -351 331 -254 z "},"ú":{"ha":865,"x_min":0,"x_max":0,"o":"m 708 160 l 708 471 b 732 679 708 610 718 672 l 732 686 l 507 686 l 507 679 b 594 526 586 679 593 629 l 594 215 b 593 131 594 183 593 154 b 415 -4 561 46 475 -4 b 265 201 281 -4 265 107 l 265 471 b 288 679 265 610 275 672 l 288 686 l 63 686 l 63 679 b 150 526 142 679 150 629 l 150 208 b 389 -14 150 43 251 -14 b 592 113 488 -14 557 44 b 571 7 588 44 581 11 l 571 0 l 796 0 l 796 7 b 708 158 717 7 710 57 z m 406 790 l 413 790 l 538 944 l 460 944 z "},"ŭ":{"ha":865,"x_min":0,"x_max":0,"o":"m 708 160 l 708 471 b 732 679 708 610 718 672 l 732 686 l 507 686 l 507 679 b 594 526 586 679 593 629 l 594 215 b 593 131 594 183 593 154 b 415 -4 561 46 475 -4 b 265 201 281 -4 265 107 l 265 471 b 288 679 265 610 275 672 l 288 686 l 63 686 l 63 679 b 150 526 142 679 150 629 l 150 208 b 389 -14 150 43 251 -14 b 592 113 488 -14 557 44 b 571 7 588 44 581 11 l 571 0 l 796 0 l 796 7 b 708 158 717 7 710 57 z m 474 903 b 415 781 468 832 456 781 b 358 903 376 781 364 832 l 282 903 b 415 776 289 811 347 776 b 550 903 485 776 542 811 z "},"û":{"ha":865,"x_min":0,"x_max":0,"o":"m 708 160 l 708 471 b 732 679 708 610 718 672 l 732 686 l 507 686 l 507 679 b 594 526 586 679 593 629 l 594 215 b 593 131 594 183 593 154 b 415 -4 561 46 475 -4 b 265 201 281 -4 265 107 l 265 471 b 288 679 265 610 275 672 l 288 686 l 63 686 l 63 679 b 150 526 142 679 150 629 l 150 208 b 389 -14 150 43 251 -14 b 592 113 488 -14 557 44 b 571 7 588 44 581 11 l 571 0 l 796 0 l 796 7 b 708 158 717 7 710 57 z m 453 944 l 379 944 l 244 790 l 251 790 l 417 893 l 582 790 l 588 790 z "},"ü":{"ha":865,"x_min":0,"x_max":0,"o":"m 708 160 l 708 471 b 732 679 708 610 718 672 l 732 686 l 507 686 l 507 679 b 594 526 586 679 593 629 l 594 215 b 593 131 594 183 593 154 b 415 -4 561 46 475 -4 b 265 201 281 -4 265 107 l 265 471 b 288 679 265 610 275 672 l 288 686 l 63 686 l 63 679 b 150 526 142 679 150 629 l 150 208 b 389 -14 150 43 251 -14 b 592 113 488 -14 557 44 b 571 7 588 44 581 11 l 571 0 l 796 0 l 796 7 b 708 158 717 7 710 57 z m 346 929 b 292 875 317 929 292 906 b 346 822 292 846 317 822 b 400 875 375 822 400 846 b 346 929 400 906 375 929 z m 488 929 b 433 875 457 929 433 906 b 488 822 433 846 457 822 b 540 875 517 822 540 846 b 488 929 540 906 517 929 z "},"ű":{"ha":865,"x_min":0,"x_max":0,"o":"m 708 160 l 708 471 b 732 679 708 610 718 672 l 732 686 l 507 686 l 507 679 b 594 526 586 679 593 629 l 594 215 b 593 131 594 183 593 154 b 415 -4 561 46 475 -4 b 265 201 281 -4 265 107 l 265 471 b 288 679 265 610 275 672 l 288 686 l 63 686 l 63 679 b 150 526 142 679 150 629 l 150 208 b 389 -14 150 43 251 -14 b 592 113 488 -14 557 44 b 571 7 588 44 581 11 l 571 0 l 796 0 l 796 7 b 708 158 717 7 710 57 z m 457 790 l 464 790 l 589 944 l 511 944 z m 353 790 l 360 790 l 485 944 l 407 944 z "},"ù":{"ha":865,"x_min":0,"x_max":0,"o":"m 708 160 l 708 471 b 732 679 708 610 718 672 l 732 686 l 507 686 l 507 679 b 594 526 586 679 593 629 l 594 215 b 593 131 594 183 593 154 b 415 -4 561 46 475 -4 b 265 201 281 -4 265 107 l 265 471 b 288 679 265 610 275 672 l 288 686 l 63 686 l 63 679 b 150 526 142 679 150 629 l 150 208 b 389 -14 150 43 251 -14 b 592 113 488 -14 557 44 b 571 7 588 44 581 11 l 571 0 l 796 0 l 796 7 b 708 158 717 7 710 57 z m 385 944 l 308 944 l 432 790 l 439 790 z "},"ū":{"ha":865,"x_min":0,"x_max":0,"o":"m 708 160 l 708 471 b 732 679 708 610 718 672 l 732 686 l 507 686 l 507 679 b 594 526 586 679 593 629 l 594 215 b 593 131 594 183 593 154 b 415 -4 561 46 475 -4 b 265 201 281 -4 265 107 l 265 471 b 288 679 265 610 275 672 l 288 686 l 63 686 l 63 679 b 150 526 142 679 150 629 l 150 208 b 389 -14 150 43 251 -14 b 592 113 488 -14 557 44 b 571 7 588 44 581 11 l 571 0 l 796 0 l 796 7 b 708 158 717 7 710 57 z m 294 871 l 294 864 l 536 864 l 536 871 z "},"ů":{"ha":865,"x_min":0,"x_max":0,"o":"m 708 160 l 708 471 b 732 679 708 610 718 672 l 732 686 l 507 686 l 507 679 b 594 526 586 679 593 629 l 594 215 b 593 131 594 183 593 154 b 415 -4 561 46 475 -4 b 265 201 281 -4 265 107 l 265 471 b 288 679 265 610 275 672 l 288 686 l 63 686 l 63 679 b 150 526 142 679 150 629 l 150 208 b 389 -14 150 43 251 -14 b 592 113 488 -14 557 44 b 571 7 588 44 581 11 l 571 0 l 796 0 l 796 7 b 708 158 717 7 710 57 z m 415 774 b 496 854 460 774 496 810 b 415 935 496 899 460 935 b 335 854 371 935 335 899 b 415 774 335 810 371 774 z m 415 928 b 490 854 457 928 490 894 b 415 779 490 813 457 779 b 342 854 375 779 342 813 b 415 928 342 894 375 928 z "},"ũ":{"ha":865,"x_min":0,"x_max":0,"o":"m 708 160 l 708 471 b 732 679 708 610 718 672 l 732 686 l 507 686 l 507 679 b 594 526 586 679 593 629 l 594 215 b 593 131 594 183 593 154 b 415 -4 561 46 475 -4 b 265 201 281 -4 265 107 l 265 471 b 288 679 265 610 275 672 l 288 686 l 63 686 l 63 679 b 150 526 142 679 150 629 l 150 208 b 389 -14 150 43 251 -14 b 592 113 488 -14 557 44 b 571 7 588 44 581 11 l 571 0 l 796 0 l 796 7 b 708 158 717 7 710 57 z m 483 829 b 544 921 538 825 544 903 l 538 921 b 483 896 531 899 521 889 b 349 922 460 900 379 926 b 285 833 296 917 285 835 l 292 833 b 349 858 299 846 315 863 b 483 829 382 856 440 832 z "},"ẃ":{"ha":1104,"x_min":0,"x_max":0,"o":"m 868 686 l 868 679 b 915 493 935 679 939 565 b 807 156 908 471 851 294 l 603 686 l 593 686 l 433 156 b 264 586 414 207 289 517 b 286 679 236 656 238 679 l 286 686 l 35 686 l 35 679 b 149 549 96 679 122 611 b 379 0 182 467 379 0 l 392 0 l 546 515 l 749 0 l 763 0 b 935 528 763 0 901 443 b 1076 679 968 614 1014 668 l 1076 686 z m 614 790 l 621 790 l 746 944 l 668 944 z "},"ŵ":{"ha":1104,"x_min":0,"x_max":0,"o":"m 868 686 l 868 679 b 915 493 935 679 939 565 b 807 156 908 471 851 294 l 603 686 l 593 686 l 433 156 b 264 586 414 207 289 517 b 286 679 236 656 238 679 l 286 686 l 35 686 l 35 679 b 149 549 96 679 122 611 b 379 0 182 467 379 0 l 392 0 l 546 515 l 749 0 l 763 0 b 935 528 763 0 901 443 b 1076 679 968 614 1014 668 l 1076 686 z m 633 944 l 560 944 l 425 790 l 432 790 l 597 893 l 763 790 l 768 790 z "},"ẅ":{"ha":1104,"x_min":0,"x_max":0,"o":"m 868 686 l 868 679 b 915 493 935 679 939 565 b 807 156 908 471 851 294 l 603 686 l 593 686 l 433 156 b 264 586 414 207 289 517 b 286 679 236 656 238 679 l 286 686 l 35 686 l 35 679 b 149 549 96 679 122 611 b 379 0 182 467 379 0 l 392 0 l 546 515 l 749 0 l 763 0 b 935 528 763 0 901 443 b 1076 679 968 614 1014 668 l 1076 686 z m 526 929 b 472 875 497 929 472 906 b 526 822 472 846 497 822 b 581 875 556 822 581 846 b 526 929 581 906 556 929 z m 668 929 b 614 875 638 929 614 906 b 668 822 614 846 638 822 b 721 875 697 822 721 846 b 668 929 721 906 697 929 z "},"ẁ":{"ha":1104,"x_min":0,"x_max":0,"o":"m 868 686 l 868 679 b 915 493 935 679 939 565 b 807 156 908 471 851 294 l 603 686 l 593 686 l 433 156 b 264 586 414 207 289 517 b 286 679 236 656 238 679 l 286 686 l 35 686 l 35 679 b 149 549 96 679 122 611 b 379 0 182 467 379 0 l 392 0 l 546 515 l 749 0 l 763 0 b 935 528 763 0 901 443 b 1076 679 968 614 1014 668 l 1076 686 z m 525 944 l 449 944 l 572 790 l 579 790 z "},"ý":{"ha":771,"x_min":0,"x_max":0,"o":"m 535 686 l 535 679 b 582 493 601 679 608 564 b 450 126 575 474 508 290 b 250 586 432 168 276 519 b 272 679 221 656 224 679 l 272 686 l 35 686 l 35 679 b 149 549 96 679 121 610 b 399 0 179 481 399 0 l 404 0 b 253 -260 361 -114 296 -225 b 163 -192 190 -307 196 -215 b 85 -229 131 -171 86 -187 b 171 -301 82 -275 122 -304 b 411 0 260 -296 336 -182 b 456 124 426 38 440 81 b 601 528 515 292 581 475 b 743 679 635 614 681 668 l 743 686 z m 407 790 l 414 790 l 539 944 l 461 944 z "},"ŷ":{"ha":771,"x_min":0,"x_max":0,"o":"m 535 686 l 535 679 b 582 493 601 679 608 564 b 450 126 575 474 508 290 b 250 586 432 168 276 519 b 272 679 221 656 224 679 l 272 686 l 35 686 l 35 679 b 149 549 96 679 121 610 b 399 0 179 481 399 0 l 404 0 b 253 -260 361 -114 296 -225 b 163 -192 190 -307 196 -215 b 85 -229 131 -171 86 -187 b 171 -301 82 -275 122 -304 b 411 0 260 -296 336 -182 b 456 124 426 38 440 81 b 601 528 515 292 581 475 b 743 679 635 614 681 668 l 743 686 z m 447 944 l 374 944 l 239 790 l 246 790 l 411 893 l 576 790 l 582 790 z "},"ÿ":{"ha":771,"x_min":0,"x_max":0,"o":"m 535 686 l 535 679 b 582 493 601 679 608 564 b 450 126 575 474 508 290 b 250 586 432 168 276 519 b 272 679 221 656 224 679 l 272 686 l 35 686 l 35 679 b 149 549 96 679 121 610 b 399 0 179 481 399 0 l 404 0 b 253 -260 361 -114 296 -225 b 163 -192 190 -307 196 -215 b 85 -229 131 -171 86 -187 b 171 -301 82 -275 122 -304 b 411 0 260 -296 336 -182 b 456 124 426 38 440 81 b 601 528 515 292 581 475 b 743 679 635 614 681 668 l 743 686 z m 347 929 b 293 875 318 929 293 906 b 347 822 293 846 318 822 b 401 875 376 822 401 846 b 347 929 401 906 376 929 z m 489 929 b 435 875 458 929 435 906 b 489 822 435 846 458 822 b 542 875 518 822 542 846 b 489 929 542 906 518 929 z "},"ỳ":{"ha":771,"x_min":0,"x_max":0,"o":"m 535 686 l 535 679 b 582 493 601 679 608 564 b 450 126 575 474 508 290 b 250 586 432 168 276 519 b 272 679 221 656 224 679 l 272 686 l 35 686 l 35 679 b 149 549 96 679 121 610 b 399 0 179 481 399 0 l 404 0 b 253 -260 361 -114 296 -225 b 163 -192 190 -307 196 -215 b 85 -229 131 -171 86 -187 b 171 -301 82 -275 122 -304 b 411 0 260 -296 336 -182 b 456 124 426 38 440 81 b 601 528 515 292 581 475 b 743 679 635 614 681 668 l 743 686 z m 372 944 l 296 944 l 419 790 l 426 790 z "},"ź":{"ha":651,"x_min":0,"x_max":0,"o":"m 596 686 l 126 686 l 88 540 l 92 540 b 281 679 119 604 182 679 l 476 679 l 63 7 l 63 0 l 539 0 l 579 146 l 574 146 b 385 7 546 81 483 7 l 182 7 l 596 679 z m 361 790 l 368 790 l 493 944 l 415 944 z "},"ž":{"ha":651,"x_min":0,"x_max":0,"o":"m 596 686 l 126 686 l 88 540 l 92 540 b 281 679 119 604 182 679 l 476 679 l 63 7 l 63 0 l 539 0 l 579 146 l 574 146 b 385 7 546 81 483 7 l 182 7 l 596 679 z m 543 935 l 536 935 l 372 832 l 207 935 l 200 935 l 335 779 l 408 779 z "},"ż":{"ha":651,"x_min":0,"x_max":0,"o":"m 596 686 l 126 686 l 88 540 l 92 540 b 281 679 119 604 182 679 l 476 679 l 63 7 l 63 0 l 539 0 l 579 146 l 574 146 b 385 7 546 81 483 7 l 182 7 l 596 679 z m 371 929 b 317 875 342 929 317 906 b 371 822 317 846 342 822 b 425 875 400 822 425 846 b 371 929 425 906 400 929 z "},"•":{"ha":274,"x_min":0,"x_max":0,"o":"m 136 596 b 69 528 99 596 69 565 b 136 461 69 490 99 461 b 204 528 174 461 204 490 b 136 596 204 565 174 596 z "},"H":{"ha":1090,"x_min":0,"x_max":0,"o":"m 933 813 b 1021 965 935 914 942 965 l 1021 972 l 725 972 l 725 965 b 813 813 804 965 813 914 l 813 489 l 278 489 l 278 813 b 365 965 278 914 286 965 l 365 972 l 69 972 l 69 965 b 157 813 149 965 156 914 l 157 160 b 69 7 156 58 149 7 l 69 0 l 365 0 l 365 7 b 278 160 286 7 278 58 l 278 482 l 813 482 l 813 160 b 725 7 813 58 804 7 l 725 0 l 1021 0 l 1021 7 b 933 160 942 7 935 58 l 933 813 z "}}}
